<svg xmlns="http://www.w3.org/2000/svg" xmlns:xlink="http://www.w3.org/1999/xlink" viewBox="0 0 267.95 535.06"><defs><style>.cls-1{fill:none;}.cls-2{clip-path:url(#clip-path);}.cls-3{fill:#333a40;}</style><clipPath id="clip-path" transform="translate(-106.1 -151.42)"><rect class="cls-1" width="457.91" height="610.18"/></clipPath></defs><title>a_thing_2Ресурс 13</title><g id="Слой_2" data-name="Слой 2"><g id="Layer_1" data-name="Layer 1"><g class="cls-2"><path class="cls-3" d="M307.5,679.73c-12.56,3.52-25.2,6.2-38.24,6.67-10.9.39-21.63-.52-31.9-4.54a44.52,44.52,0,0,1-15-9.06,16.8,16.8,0,0,1-5.46-10.91c-2.24-23-4.73-46-7.14-69-1.76-16.82-3.57-33.63-5.31-50.45q-2.54-24.6-5-49.2a4.88,4.88,0,0,0-2.65-4.35c-4.36-2.42-6.57-8.19-3.21-13a3.32,3.32,0,0,0,.45-3.32c-.83-2.2-1.55-4.45-2.42-6.64q-5-12.53-10-25c-1.59-4-3.13-8-4.87-11.86a5.56,5.56,0,0,1,0-5.2,24.67,24.67,0,0,0,2.37-9.94c.32-5.88-2.15-10.69-6.4-14.49a36.14,36.14,0,0,0-7.4-5A11.48,11.48,0,0,1,162,376.89a8.21,8.21,0,0,0,1.83-3.23,10.84,10.84,0,0,1,3.72-6.22,8.24,8.24,0,0,0,3-5.13,70.63,70.63,0,0,0-.37-33.42,72.17,72.17,0,0,0-8.94-20.53q-11.8-18.37-24-36.49c-8-11.93-16.09-23.79-22-36.93-5.64-12.58-9.87-25.6-9.13-39.69.47-9,3.62-17.11,8.35-24.68,1.72-2.76,4.71-3.73,7.41-4.85,7.12-2.93,14.27-5.88,21.62-8.13a172.67,172.67,0,0,1,24.61-6,13.65,13.65,0,0,1,9,1.43,62.56,62.56,0,0,1,14.66,10.31c5.59,5.55,9.34,12.22,12.28,19.41,5.71,13.94,8.25,28.56,8.86,43.51.51,12.41.59,24.83.86,37.25.26,12.19.35,24.39,2.14,36.5a66.6,66.6,0,0,0,16.65,35.18c1.49,1.68,3.08,3.27,4.65,4.88,2,2,4.15,3.54,7.21,3.61a6.76,6.76,0,0,1,3.84,1.41,23.21,23.21,0,0,0,7,3.68,11.07,11.07,0,0,1,5.61,15.53,30.85,30.85,0,0,0-3.5,10.6c-1,6.84,1.65,12.13,6.39,16.66a20.73,20.73,0,0,0,3.78,3,8.55,8.55,0,0,1,4.16,5.77c1.26,5.2,2.71,10.35,4.06,15.52q2.39,9.16,4.74,18.33c.9,3.52,1.8,7,2.62,10.58a5.11,5.11,0,0,0,2.36,3.28c4.7,3.07,6,7.07,3.57,12.09-.91,1.89-.45,3.16.43,4.74q15.06,26.89,30,53.84Q330.81,538.9,342,559.15q14.18,25.74,28.3,51.51a11.44,11.44,0,0,0,.76,1.41c4.16,5.53,3.37,11.52,1.39,17.47-2.8,8.42-8,15.36-14.19,21.55-9.17,9.1-19.94,15.81-31.71,21C320.27,674.79,313.85,677.18,307.5,679.73ZM141.1,170.78c-1.86-.15-2,1-2.27,2A41.35,41.35,0,0,0,137.64,189a128.36,128.36,0,0,0,2.48,13.55,84.74,84.74,0,0,0,8.09,22.6c1.73,3.19,3.47,6.36,5.18,9.56,4,7.52,7.51,15.39,12.17,22.49,9.58,14.6,18.35,29.65,26.5,45.06a107.84,107.84,0,0,1,7.8,18.61c2.73,8.87,4.56,18,6.83,27,.34,1.35.39,3,2.49,3.61,2.17-3.67-.79-7.31,0-11.07.34.37.6.54.69.78.86,2.19,1.68,4.39,2.53,6.58.37,1,.56,2.34,2,1.94s.86-1.74.82-2.74-.25-2-.43-3.26c2.34,1.36,2.66,4.71,5.64,4.56.91-1.33,0-2.15-.47-3.06-1.36-2.57-2.69-5.16-4-7.74l.74-.53,2.86,3.15c1.73,1.89,3.45,3.81,5.23,5.65.67.69,1.5,1.29,2.76,0a20.26,20.26,0,0,0-1.61-2.46,87.68,87.68,0,0,1-12.72-19.59,78.66,78.66,0,0,1-6.3-20.41,130.78,130.78,0,0,1-2.32-23.56c0-5.88,0-11.76-.06-17.63q-.08-8.33-.27-16.66c-.2-8-.32-16-.72-24.05-.46-9.35-2.75-18.4-5.59-27.25a62.67,62.67,0,0,0-8.3-16.91,60.39,60.39,0,0,0-12.12-12.75,36.59,36.59,0,0,0-5.24-2.88c0,2.46,1.57,3.1,2.68,3.87,3.86,2.66,6.69,6.25,9.6,9.82,3.7,4.54,6,9.85,8.54,15,1.05,2.18,1.21,4.8,1.82,7.43-.64-.17-.92-.16-1-.28a8.49,8.49,0,0,1-1-1.66c-2-5.25-5-9.87-8-14.6-4.22-6.77-10.11-11.87-16-17-.78-.68-1.71-1.8-3.16-.89-.19,1.66,1.19,2.43,2.11,3.32a47,47,0,0,1,8.28,11.39,6.15,6.15,0,0,1,.35,1.89,38.9,38.9,0,0,1-5.38-5.26,62.4,62.4,0,0,0-5-5.41c-1.77-1.54-2.67-4.16-5.83-4.84a9,9,0,0,0,.13,2.59c.7,1.78,1.69,3.45,2.39,5.24s1.13,3.5,1.69,5.26l-.74.37c-1.33-2-2.68-3.93-4-5.92s-2-4.41-4.62-6.28a16.73,16.73,0,0,0-.35,3.19c.43,3.82,1.05,7.62,1.45,11.45.24,2.32,1.36,4.61.29,7.72a36.78,36.78,0,0,1-1.95-3.89,51.43,51.43,0,0,1-2.5-13.53c-.08-1.26.11-2.58-1.9-3-1.26,4.2-.65,8.36-.44,12.44s.91,8.28,1.53,12.4,1.37,8,2.06,12l-.71.2a19.37,19.37,0,0,1-1.85-3.3c-1.11-3.34-2.13-6.72-3-10.13a31.59,31.59,0,0,1-1-6.3c-.23-4.69-.21-9.39-.35-14.09a12.66,12.66,0,0,0-.77-2.53c-.63,1.17-1.1,1.67-1.15,2.2-.39,4.69-1.19,9.41-1,14.08a87.42,87.42,0,0,0,6.31,28.68c1.81,4.45,4,8.76,5.93,13.14.48,1.07.87,2.18,1.3,3.27a33,33,0,0,1-6.82-10,104.87,104.87,0,0,1-9.24-28.25,47.58,47.58,0,0,1-.54-14C140.78,175.29,140.89,173.18,141.1,170.78Zm131,278.57a4.42,4.42,0,0,0,.38-1.69c-.51-2.73-1.06-5.46-1.74-8.16q-3.56-14.16-7.22-28.3c-.48-1.86-1-3.7-1.59-5.54-.28-1-.58-2,.67-2.43s1.9.57,2.23,1.7c.56,2,1.22,3.89,1.69,5.87,1,3.94,1.73,7.92,2.74,11.85,1.41,5.49,2.94,11,4.44,16.43.74,2.69,1.43,5.39,2.33,8,.21.6,1.23.93,1.87,1.38.45-.65,1.18-1.27,1.27-2a6.84,6.84,0,0,0-.58-2.47c-1-3.61-2.07-7.21-3-10.84-2.42-9.43-4.64-18.91-7.22-28.3-1.57-5.71-.65-6.25-7.69-4.8-9.82,2-19.61,4.36-29.2,7.26-12.3,3.72-24.42,8-36.54,12.31a102.31,102.31,0,0,0-11.68,5.3c-2.33,1.17-2.4,1.72-1.71,4.11a19,19,0,0,0,.61,1.83c2.41,5.94,4.85,11.87,7.25,17.82q4.37,10.87,8.67,21.77c.44,1.12.81,2.25,2.36,2.15,1.16-.9,1-1.93.5-3.14q-2.75-6.67-5.36-13.4c-1.28-3.29-2.35-6.67-3.69-9.93-2-4.94-4.23-9.82-6.33-14.73-.44-1-.92-2.11.35-3.37A19.32,19.32,0,0,1,187,430.1c1.64,4.18,3.2,8.4,4.87,12.57q4.84,12.06,9.78,24.08a12.51,12.51,0,0,0,1.49,2.82,1.82,1.82,0,0,0,1.62.54,1.72,1.72,0,0,0,.71-1.48,15.25,15.25,0,0,0-.93-3.07c-1-2.61-2-5.21-3-7.8q-3.65-9.24-7.33-18.46c-1.35-3.37-2.86-6.69-4.1-10.1s-.66-4.57,2.83-5.64c2.26-.69,3.09-.37,4,1.83,1.77,4.12,3.55,8.25,5.18,12.43,3.42,8.77,6.75,17.57,10.12,26.36a4.41,4.41,0,0,0,.86,1.69,1.91,1.91,0,0,0,1.63.47,1.8,1.8,0,0,0,.7-1.54,14.71,14.71,0,0,0-.91-3.08q-2.64-7.06-5.33-14.1c-1.82-4.8-3.64-9.6-5.5-14.38-1.24-3.19-2.63-6.32-3.83-9.52-.31-.83-.49-2.43-.13-2.64a9.31,9.31,0,0,1,4.1-1.28c.63,0,1.64,1,1.95,1.75,1.46,3.56,2.76,7.18,4.09,10.8q5.42,14.77,10.81,29.55c.4,1.11,1,1.9,2.29,1.77,1-1.75,1.13-1.79.63-3.16-.91-2.51-2-4.95-3-7.45q-2.67-7.23-5.2-14.5c-1.3-3.74-2.45-7.52-3.77-11.25-.82-2.31-1.85-4.55-2.76-6.84-.49-1.23-.45-2.5.92-3s1.76.8,2.07,1.84c.54,1.84.94,3.72,1.57,5.53q4.35,12.42,8.81,24.81c1.16,3.22,2.42,6.4,3.67,9.59.49,1.25,1.2,2.28,2.9,2.05,1-1.58.43-3.11-.06-4.6-2.67-8-5.29-16.08-8.07-24.07-1.54-4.44-3.39-8.77-5-13.17-.46-1.23-1.43-2.47-.39-3.86,1.73-.31,2,.93,2.4,2q2.35,6.83,4.67,13.68c2.37,7,4.72,14,7.11,21a58.76,58.76,0,0,0,2.31,6c.29.62,1.25.93,1.9,1.38.37-.69,1-1.38,1-2.08a17.9,17.9,0,0,0-.66-3.45c-.26-1.33-.51-2.66-.76-4l.65-.21c.93,2.1,1.87,4.2,2.78,6.31.44,1,.95,2.08,2.26,1.84s1.33-1.43,1.33-2.54-.75-2.26.49-3.47a23.84,23.84,0,0,0,2,3.34c.45.54,1.36.7,2.06,1a7.71,7.71,0,0,0,.65-2c.06-1.1-.47-2.28.76-3.43.52.85,1,1.53,1.36,2.27.46.93,1,1.71,2.19,1.44s1.21-1.35,1.29-2.32.15-1.94.23-3c2.22.85,1.39,4.12,4.46,4a14.11,14.11,0,0,0,.72-2.49c.1-.86-.56-1.91.93-2.5a10.49,10.49,0,0,0,1.2,2.26,8.35,8.35,0,0,0,2,1.25,7.52,7.52,0,0,0,.94-1.89c.17-.93-.68-2.13.92-2.76.3.48.6.9.83,1.36.47,1,.92,2.18,2.25,1.82,1.6-.44,1-1.88.94-3-.06-.74-.34-1.46-.43-2.2-.23-1.81-.41-3.62-.62-5.43l.68-.14c.2.42.41.84.59,1.27,1,2.37,1.94,4.74,2.89,7.13A1.78,1.78,0,0,0,272.09,449.35Zm-50.81-50.07.59-.19c.65,1.28,1.28,2.58,2,3.83.6,1.09,1.46,2.07,2.79,1.65s1.26-1.56,1.11-2.71-.2-2.32-.3-3.48a2.3,2.3,0,0,1,1.51,1.1c.36.65.5,1.5,1,2a11.57,11.57,0,0,0,2.36,1.39,8.18,8.18,0,0,0,1.25-2.36,25,25,0,0,0,0-4.08c2.19,1.31,1.9,4.74,4.7,4.88,2.54-1.86-.11-4.28,1.06-6.72l2.11,3.11c.77,1.13,1.46,2.78,3.16,1.88,1.55-.82.47-2.28.21-3.46s-1-2.5-.08-4.19c.82,1,1.39,1.71,2,2.4a35.06,35.06,0,0,0,3.07,3.27c.45.39,1.31.3,2,.43.06-.68.38-1.47.15-2-.77-1.87-1.79-3.64-2.61-5.5-2.62-5.89-3.39-12.14-3.34-18.5,0-2.39,1.54-3.2,4.33-2.51a39,39,0,0,1-.52,4.41c-1,4.47-.15,8.73,1.32,12.9a21.63,21.63,0,0,0,5.7,8.83c1.55,1.43,2.44,1.22,3.83-.76-8.69-8.14-9.38-18.12-5.89-28.68-1.73-1.54-3.4-.86-4.87-.52-9.26,2.17-18.58,4.2-27.72,6.81-9.58,2.73-19,5.9-28.44,9.2-6.45,2.26-12.72,5-19,7.68a26.68,26.68,0,0,0-3.76,2.45c1.41,1.25,2.4,2.16,3.43,3,7.07,6,10.16,13.58,9,22.83a3.51,3.51,0,0,0-.16,1.26,10.29,10.29,0,0,0,.87,1.75,4.53,4.53,0,0,0,2.33-4c.68-8.05-1-15.32-6.95-21.22-1-1-2-2.05-3-3.17.59-.29.8-.48,1-.44a3.7,3.7,0,0,1,1.17.45c5.08,3.29,7.53,8.38,8.93,13.94.77,3.07.75,6.35,1,9.54.07,1,.3,1.91,1.3,1.78.6-.08,1.22-1,1.56-1.67a3.56,3.56,0,0,0,.12-1.9,71.75,71.75,0,0,0-1.23-8.87,27.06,27.06,0,0,0-6.44-12.41,33.55,33.55,0,0,1-2.13-2.8c1.45-.77,2.51-1.43,3.64-1.91,2.69-1.13,3.16-1,4.68,1.48a61,61,0,0,1,8.12,21.17c.18,1,0,2.28,1.54,2.55a2.44,2.44,0,0,0,1.36-2.89c-.49-2.73-1-5.46-1.73-8.13a46.76,46.76,0,0,0-6.25-14c-.38-.56-.69-1.88-.52-2a22.61,22.61,0,0,1,4.24-1.95c1.11-.37,1.81.49,2.22,1.41,1.36,3,2.86,6,4,9.12,1.6,4.53,2.87,9.17,4.38,13.73.22.66,1,1.11,1.6,1.66a12.06,12.06,0,0,0,1.17-2,2.63,2.63,0,0,0-.09-1.58c-1.65-5.08-3.26-10.18-5-15.21-.71-2-1.9-3.83-2.75-5.79-.52-1.21-1.22-2.6.85-3.79a25.7,25.7,0,0,1,2.27,3.36,94.21,94.21,0,0,1,7.1,19.47c.3,1.36.36,3.09,2.72,3.58a10.07,10.07,0,0,0,.78-2.81,16.68,16.68,0,0,0-.68-4.42c-1.84-6.14-3.48-12.38-7.16-17.79a2.05,2.05,0,0,1-.15-2.73c1.9.76,2.32,2.59,2.87,4,2,5.28,3.84,10.65,5.71,16a46.84,46.84,0,0,0,1.66,4.85,2.39,2.39,0,0,0,2,1,2.47,2.47,0,0,0,1.38-1.79,16.4,16.4,0,0,0-.21-3.49C221.35,400.42,221.32,399.85,221.28,399.28Zm13.5-54.77a37.83,37.83,0,0,0-2.45-3c-10.55-10.49-17.53-23-20.12-37.63a171.33,171.33,0,0,1-2.41-23.6c-.61-16.69-.56-33.41-1.1-50.1s-3-32.95-9.89-48.4A49.73,49.73,0,0,0,176,157.41a11.51,11.51,0,0,0-8.35-1.26c-8.94,2.11-18,3.6-26.59,7.16-5.41,2.25-11,4-16.46,6.19-2.76,1.1-5.59,2.24-7.23,5.05-5,8.57-7.51,17.77-6.67,27.69a86.43,86.43,0,0,0,6.47,26.08,140.54,140.54,0,0,0,12.1,23c9.46,14.41,19.12,28.68,28.67,43a145.9,145.9,0,0,1,13.25,23.8,73.53,73.53,0,0,1,4.79,40c-.21,1.44-.41,2.89-.61,4.34,2.62.23,3.11,0,3.44-2.3.5-3.49.86-7,1.12-10.52.64-8.86-.93-17.52-3.09-26A50.27,50.27,0,0,0,171.41,311Q163,296.61,154,282.58c-4.53-7-9.67-13.6-14.33-20.52-2.74-4.07-5.05-8.43-7.63-12.61a151.74,151.74,0,0,1-13.44-26.59c-2.19-5.91-4.24-11.92-4.7-18.31a56.12,56.12,0,0,1,3.82-25.48c1.31-3.23,3.2-5.54,6.39-6.74,4.61-1.73,9.2-3.53,13.89-5,7.77-2.43,15.6-4.65,23.44-6.87,2.46-.7,5-1.06,7.52-1.63a7.91,7.91,0,0,1,6.12,1.24c.82.5,1.67,1,2.49,1.47,6.28,3.86,11.69,8.57,15.53,15a91.23,91.23,0,0,1,8,18.52c3.25,9.92,4.43,20.26,4.87,30.64.42,9.93.87,19.86.63,29.83-.22,9.52.37,19.05.6,28.58A99.62,99.62,0,0,0,209,302.91a93.17,93.17,0,0,0,6.7,19.71,63.82,63.82,0,0,0,15.35,21.18C231.91,344.57,232.71,345.57,234.78,344.51Zm89.45,294.7-.13,0c-2-5-3.95-9.94-5.9-14.91-3.23-8.27-6.4-16.56-9.68-24.81-3.39-8.54-6.94-17-10.31-25.57-4.39-11.15-8.63-22.35-13-33.5s-9-22.41-13.46-33.64c-4.29-10.84-8.5-21.71-12.74-32.56a40.94,40.94,0,0,0-1.86-4.42c-.34-.63-1.24-1.47-1.75-1.39-1.28.21-1.07,1.37-.8,2.33a27.3,27.3,0,0,0,.92,2.74c.75,1.89,1.61,3.73,2.31,5.63q5.43,14.76,10.81,29.54l8.94,24.4q4.25,11.6,8.51,23.2c3.55,9.64,7.12,19.26,10.65,28.9q4.63,12.66,9.19,25.34c3.12,8.66,6.2,17.34,9.33,26,1.09,3,2.21,6,3.46,9,.92,2.16,2.56,2.9,4.3,2.2,2.37-1,3.17-2.75,2.31-5.12C324.9,641.47,324.58,640.33,324.23,639.21Zm-64-172.51c-1.36,1.39-.54,2.63-.1,3.74,2.3,5.75,4.75,11.45,7,17.21,5.16,13,10.24,26.08,15.36,39.12,2.78,7.06,5.61,14.1,8.38,21.16,3.24,8.27,6.43,16.56,9.67,24.82,2.54,6.46,5.17,12.89,7.71,19.36,2.74,7,5.4,14,8.14,20.92q4.63,11.79,9.35,23.55a44.82,44.82,0,0,0,2.7,5.8,3,3,0,0,0,3.83,1.53,3.9,3.9,0,0,0,2.49-3.77,11.24,11.24,0,0,0-.87-3.08q-7.71-18.33-15.47-36.64c-4.76-11.21-9.59-22.4-14.34-33.61Q293.19,541,282.3,515.1q-9.69-22.89-19.43-45.77C262.36,468.12,261.89,466.94,260.23,466.7Zm-20.56,6.09c-1.08,2.18-1.06,2.18-.27,4.9q4.86,16.66,9.71,33.32c3.51,12,7.05,24,10.53,36.09,2.85,9.87,5.6,19.77,8.45,29.65q5.16,17.91,10.4,35.79c2.65,9,5.37,18.08,8,27.12.18.61.25,1.26.44,1.87,1.3,4.31,2.55,8.64,4,12.91a3.35,3.35,0,0,0,3.68,2.47,3.71,3.71,0,0,0,2.61-3.66,14.74,14.74,0,0,0-.63-4.09c-2.17-6.84-4.49-13.63-6.65-20.48Q278.47,592.33,267.11,556c-3.68-11.77-7.28-23.57-11-35.33q-7-22.4-14.17-44.77C241.58,474.67,241.46,473.27,239.67,472.79Zm-4.26,1.54c-2,1-1.74,2.09-1.43,3.28,2.11,8.18,4.18,16.38,6.3,24.55q3,11.49,6.07,23c1.72,6.41,3.5,12.8,5.26,19.2.68,2.48,1.4,4.95,2,7.44,2.27,8.8,4.5,17.62,6.78,26.42,1.51,5.8,3.09,11.58,4.62,17.37q3.75,14.11,7.47,28.23,2.05,7.76,4.07,15.53c1.53,5.9,3,11.82,4.55,17.7a4.15,4.15,0,0,0,4.45,2.95c1.57-.27,2.63-1.75,2.64-3.9a8.91,8.91,0,0,0-.38-2.51q-5.21-17.9-10.46-35.8-3.29-11.26-6.56-22.52c-.51-1.74-1.11-3.46-1.6-5.2q-3-10.51-5.9-21c-1.18-4.21-2.33-8.42-3.53-12.62q-4.52-15.75-9.09-31.5c-1.73-6-3.46-11.94-5.23-17.9q-4.45-15-9-29.88C236.26,476.23,235.85,475.41,235.41,474.33Zm29.39-8.75a22,22,0,0,0,.75,3.53c.92,2.39,2,4.71,3,7.07q4.41,10.32,8.8,20.65c2.86,6.68,5.77,13.35,8.6,20,3.95,9.36,7.81,18.75,11.76,28.11,5,11.82,10,23.61,15.06,35.42,3.22,7.57,6.46,15.14,9.64,22.73,3.48,8.28,6.91,16.59,10.38,24.87,1.32,3.15,2.65,6.31,4.07,9.42a3.34,3.34,0,0,0,4.46,2c1.84-.62,2.58-1.82,2.16-4.07a20.91,20.91,0,0,0-1.41-4.57c-1.86-4.2-3.9-8.32-5.79-12.51-5.54-12.28-11-24.59-16.57-36.87q-9.64-21.34-19.36-42.65c-3.17-7-6.28-14-9.47-21-4-8.85-8.15-17.67-12.21-26.52-3.65-8-7.25-16-10.89-23.93C267.32,466.24,266.81,465.12,264.8,465.58ZM305.1,636l.2-.06c1.19,3.77,2.35,7.56,3.59,11.31a6.55,6.55,0,0,0,1.31,2.17c1.46,1.66,3.38,2.07,4.87,1.16s1.77-2.44,1-4.59c-2.48-6.72-5-13.43-7.47-20.15q-5.44-14.75-10.85-29.5c-3.26-8.94-6.4-17.93-9.68-26.86-4.68-12.74-9.45-25.46-14.17-38.19q-4.23-11.43-8.4-22.89-6.18-17-12.29-34.11a14.61,14.61,0,0,0-1.36-3.24c-.37-.55-1.31-.7-2-1a6.26,6.26,0,0,0-.48,2.29,22.51,22.51,0,0,0,1.2,2.94q5.44,15.92,10.83,31.86,6.71,19.94,13.34,39.91c1.7,5.08,3.38,10.16,5.12,15.22,3.14,9.1,6.35,18.18,9.46,27.29,3,8.82,5.94,17.66,8.88,26.5.67,2,1.21,4.09,1.92,6.1C301.72,626.78,303.42,631.4,305.1,636ZM353,630.2c-.31-.7-.56-1.3-.84-1.87q-11.45-23.5-22.9-47c-6-12.4-12-24.84-18-37.24q-12-24.66-24.06-49.28c-4.55-9.32-9.06-18.65-13.67-27.94-.56-1.13-.84-2.91-2.74-2.6-1.06.17-.88,1.47.27,3.94,2,4.36,4,8.76,6,13.13q10.36,22.58,20.73,45.15c4.22,9.24,8.34,18.52,12.53,27.77q8.13,18,16.29,35.89,9.35,20.59,18.71,41.18a9.79,9.79,0,0,0,1.52,2.43c1.51,1.7,2.57,1.8,4.51.63S353.6,632.08,353,630.2ZM251.55,486.43l-.16.05c-1.1-3.48-2.15-7-3.31-10.42a22.66,22.66,0,0,0-1.86-4.06,1.72,1.72,0,0,0-1.55-.63,1.87,1.87,0,0,0-.77,1.52,9.54,9.54,0,0,0,.63,2.48c2.45,7.66,4.95,15.3,7.37,23q9.55,30.22,19.05,60.45,14,44.65,28,89.31a17.67,17.67,0,0,0,2.31,4.54c1.19,1.75,2.71,2.17,4.14,1.52s2.14-2.23,1.47-4.42c-.72-2.35-1.7-4.61-2.49-6.94q-5.85-17.18-11.65-34.38-4.12-12.17-8.22-24.35-6.6-19.65-13.18-39.3c-1.8-5.36-3.55-10.73-5.37-16.08q-6.54-19.15-13.13-38.28C252.35,489.09,252,487.75,251.55,486.43Zm-19-4.49-.14,0c-.33-1.35-.62-2.71-1-4.05-.27-1-.81-2-2-1.5-.47.2-.84,1.47-.69,2.13,1.72,7.71,3.53,15.41,5.34,23.1,1.05,4.48,2.14,8.94,3.21,13.41,1.61,6.76,3.2,13.52,4.83,20.27,1.23,5.09,2.55,10.16,3.75,15.26,1.64,7,3.16,14,4.81,20.93s3.5,14.12,5.19,21.19c1.82,7.58,3.54,15.18,5.34,22.77,1.58,6.66,3.23,13.3,4.8,20,1.87,7.9,3.66,15.82,5.58,23.71a6,6,0,0,0,1.64,2.64,1.55,1.55,0,0,0,2.77-.64,9,9,0,0,0,.23-3.76,50.32,50.32,0,0,0-1.24-5c-1.29-5.19-2.63-10.37-3.83-15.58-1.5-6.56-2.76-13.18-4.35-19.72-2.12-8.72-4.5-17.37-6.69-26.08s-4.1-17.26-6.37-25.83-4.76-17.31-6.46-26.14c-.4-2.09-.94-4.17-1.49-6.23-1.61-6-3.31-12-4.87-18C238.07,503.9,235.31,492.92,232.51,481.94ZM361.85,625.37c-.59-1.2-1.09-2.27-1.63-3.32-2.63-5-5.31-10-7.91-15.06-7.07-13.68-14.06-27.4-21.16-41.06q-17.69-34-35.48-68-8.46-16.21-16.89-32.43c-.57-1.09-1.11-3-2.53-2.32-1.79.84-.33,2.45.2,3.57q4.1,8.7,8.38,17.31c4.29,8.61,8.68,17.18,13,25.78,3.54,7.06,7,14.17,10.57,21.21,4.5,8.85,9.13,17.63,13.62,26.47s9,18,13.49,26.93c2.94,5.82,6.06,11.54,9,17.38,2.81,5.64,5.41,11.39,8.18,17.06,1.46,3,3,5.88,4.66,8.76.6,1.07,1.55,1.84,2.92,1.06A3.38,3.38,0,0,0,361.85,625.37ZM224.22,478.18c-1.33,1-.72,2.26-.44,3.51,1.38,6.15,2.77,12.3,4.06,18.46,2.82,13.38,5.56,26.78,8.38,40.16,2,9.72,4.22,19.41,6.27,29.13q5.46,25.87,10.85,51.76c2.13,10.15,4.25,20.3,6.42,30.44.76,3.55,1.66,7.08,2.53,10.61.29,1.17,1.16,2.14,2.25,1.73a3.36,3.36,0,0,0,1.54-2.45,12.42,12.42,0,0,0-.5-3.78c-.69-3.35-1.42-6.69-2.15-10-.43-2-.89-4-1.34-5.92-1-4.26-2.08-8.5-3-12.78-.69-3.34-1-6.77-1.69-10.1-2.06-9.61-4.24-19.19-6.39-28.77-1.52-6.78-3.12-13.54-4.62-20.32-1-4.48-1.79-9-2.82-13.49-1.81-7.81-3.8-15.57-5.58-23.39-1.56-6.87-2.88-13.8-4.39-20.69q-3.47-15.81-7.07-31.58C226.3,479.45,226.06,478,224.22,478.18ZM220,479.79l-1.1.18a10.84,10.84,0,0,0-.35,2.62c.19,1.8.58,3.59.91,5.37q3.11,16.71,6.23,33.41,3.18,17.19,6.33,34.38c2,11,4.11,22.08,6.14,33.12,1.64,8.94,3.23,17.89,4.87,26.82,1.61,8.73,3.26,17.45,4.9,26.17,1.32,7,2.67,14.08,3.93,21.13a3.55,3.55,0,0,0,2.89,3.23,3.35,3.35,0,0,0,1.47-3.76c-.3-1.9-.7-3.78-1.07-5.67-1.32-6.71-2.71-13.41-4-20.13-1.69-9-3.24-18.09-4.93-27.12-1.34-7.14-2.86-14.25-4.21-21.39-2.41-12.7-4.73-25.42-7.14-38.13-2.38-12.48-4.77-25-7.26-37.43-2-10-4.15-19.88-6.29-29.8A16,16,0,0,0,220,479.79ZM168.4,380.47a32.77,32.77,0,0,0,.77,3.75c.37,1.09.91,2.2,2.6,1.72a7.18,7.18,0,0,0,.13-1.28,29.74,29.74,0,0,1-.34-3.5c.08-2,1.85-3.48,4.16-3.71,2.14-.21,1.94,1.48,2.28,2.77.3,1.11.54,2.33,2.59,2.37a22.88,22.88,0,0,0-.12-3c-.65-3.79-.28-4.41,3.49-5.43.5-.14,1-.16,1.89-.29a34.84,34.84,0,0,0,1.41,3.49c.3.58,1,1.35,1.46,1.35,1,0,1.32-.91,1.22-1.87a16.76,16.76,0,0,1-.32-3.18,2.19,2.19,0,0,1,1.11-1.66c.48-.13,1.37.43,1.74.94.48.67.48,1.68.94,2.36.35.53,1.11.78,1.68,1.16.31-.62.87-1.24.86-1.85a32.62,32.62,0,0,0-.48-4,11.38,11.38,0,0,1,1.41-.56,3,3,0,0,1,.87,0c.35,1.11.66,2.12,1,3.13s1,2.05,2.31,1.62,1.27-1.53.94-2.68a10.06,10.06,0,0,1-.58-2.77c0-.45.65-1,1.14-1.27.19-.1.88.46,1.12.85a7.67,7.67,0,0,1,.63,1.82c.35,1.19.83,2.23,2.23,2.27,2.76-1.67-1.08-4.82,1.48-6.57,2.22,1.17,1.18,4.8,4.14,5.27,1-1.79,1-1.79.39-4.81-.21-1-.58-1.94,1.09-2.16,1.32,2,1.22,5,4.12,6.14l2.28-3c1.71.45,3.17,1.34,4.15,1s1.69-2,2.6-3.14l1.38.9c2.12,1.4,2.81,1.24,4-1,.34-.62.7-1.23,1.16-2,.59.51,1,.87,1.36,1.19,1.81,1.43,2.65,1.26,3.74-.75.38-.69.78-1.38,1.29-2.27a8.45,8.45,0,0,1,1,.78c.88,1,2,2.22,3.19,1.21.79-.66,1.06-2.26,1.05-3.44a13.7,13.7,0,0,0-1.06-3.62c1.72-.8,2.38.14,2.86,1.25s.78,2.47,1.36,3.6a1.76,1.76,0,0,0,1.53.74,1.74,1.74,0,0,0,1-1.41c-.24-1.35-.8-2.63-1.17-4a11.67,11.67,0,0,1-.21-1.78c3.41.08,4.83,2,5.3,4.8.23,1.35.5,2.26,2.07,2,2.31-4.31,0-9-4.86-9.48a20.32,20.32,0,0,0-6.69.46c-10.29,2.48-20.58,5-30.79,7.79-6.19,1.71-12.23,3.94-18.3,6.06-6.36,2.22-12.71,4.49-19,6.92a90.15,90.15,0,0,0-9,4.21,7.34,7.34,0,0,0-4.17,7.38c.1,1.95.86,2.82,3.05,3.52C167.09,386.17,165.54,383.17,168.4,380.47Zm36.68,105.77c-1.57,1.45-1.64,1.45-1.54,2.8.15,2.13.4,4.26.62,6.38q3.78,36.71,7.56,73.42,4.18,40.55,8.37,81.09c.45,4.37.82,8.74,1.36,13.1.23,1.82,1.64,3.13,2.83,3s1.84-1.52,1.61-3.71q-1.28-12.12-2.61-24.23c-1-8.8-2-17.59-3-26.39-1.06-9.56-2.08-19.13-3.13-28.69-1-9-2-18.06-3-27.08-1-8.17-2-16.33-3-24.5-1.46-12.53-2.79-25.07-4.33-37.59C206.51,491.44,206.57,488.81,205.08,486.24Zm75.59-23.75a19.45,19.45,0,0,0,.94,2.9c2.12,4.09,4.24,8.17,6.47,12.19,4.75,8.61,9.59,17.17,14.36,25.78s9.53,17.19,14.22,25.82c6.85,12.58,13.71,25.16,20.42,37.81,5.76,10.85,11.28,21.82,17,32.7,3.17,6.06,6.48,12.06,9.76,18.07a12.34,12.34,0,0,0,2,2.88c1.16,1.15,2.39.77,3-.76a4.33,4.33,0,0,0-.54-3.95q-21.1-38.06-42.14-76.15-16.26-29.35-32.6-58.66-4.6-8.27-9.25-16.52C283.64,463.47,283.13,462,280.67,462.5Zm-145.51-290-1-.15a7.67,7.67,0,0,0-1.12,2.12,107.87,107.87,0,0,0-1.74,12.38,55.42,55.42,0,0,0,2.14,17.41,95,95,0,0,0,5.83,16.57c2.81,5.75,5.65,11.47,8.69,17.12,5,9.26,10.84,17.94,16.32,26.86,5,8.11,10.56,15.85,15.19,24.14,4.16,7.44,7.49,15.36,11,23.14a130.31,130.31,0,0,1,8.5,25.22c.94,4.16,1.42,8.42,2.14,12.63a6.47,6.47,0,0,0,.75,2.42,1.15,1.15,0,0,0,2.09,0,3.45,3.45,0,0,0,.38-2.1,155.13,155.13,0,0,0-7.14-29.88,162.14,162.14,0,0,0-9.06-21.57c-4.18-8.06-8.53-16-13.25-23.8-5.61-9.23-11.81-18.1-17.52-27.28-3.21-5.16-5.91-10.63-8.87-15.95-3.85-6.93-7.33-14-9.49-21.69a20.61,20.61,0,0,0-.73-2.13,64.9,64.9,0,0,1-4.06-18.71,57.09,57.09,0,0,1,.92-14.06A15.2,15.2,0,0,0,135.16,172.55Zm-6,2.56c-1.41-.93-2.07-.31-2.41.52a16.26,16.26,0,0,0-.94,3.4,87.45,87.45,0,0,0-1.12,23.63,59.93,59.93,0,0,0,3.66,15.5A129.52,129.52,0,0,0,136,234c3.36,6.07,7.08,11.94,10.71,17.86,3.52,5.74,7.07,11.47,10.7,17.15,5.82,9.09,12,17.95,17.5,27.26a160.91,160.91,0,0,1,11.18,22.69c3.41,8.76,5.84,17.91,6,27.48.05,2.88.34,5.76.64,8.62a1.27,1.27,0,0,0,2.49.42,5.83,5.83,0,0,0,.45-2.48,102.29,102.29,0,0,0-3.47-24.38,119.68,119.68,0,0,0-9.11-23.28,388.5,388.5,0,0,0-20.58-35.09c-4.32-6.63-8.85-13.13-13.11-19.79-2.7-4.22-5.21-8.57-7.57-13-3.17-5.92-6.1-12-9.16-18a51.43,51.43,0,0,1-5.38-19.59c-.48-6.08-.8-12.15.39-18.19C128.17,179.51,128.66,177.33,129.13,175.11Zm-6.35,1.77-.72-.27c-2.37,1.6-3.15,4.24-3.88,6.74-3.47,11.85-2.89,23.66.62,35.43a62.59,62.59,0,0,0,4.86,11.5c2.2,4.14,4,8.5,6.4,12.53,3.6,6.07,7.52,12,11.37,17.87q11.83,18.14,23.75,36.23c6,9.15,11.24,18.73,14.49,29.23a66.16,66.16,0,0,1,2.53,25.06c-.21,2.56-.63,5.09-.83,7.65,0,.52.48,1.09.74,1.63l.81,0a18.68,18.68,0,0,0,1.23-3.44c1.82-11.8,1.51-23.44-2.9-34.73-.66-1.69-1.24-3.42-2-5.07-1.82-4.08-3.47-8.26-5.64-12.15-3-5.31-6.22-10.46-9.55-15.55-6.69-10.21-13.55-20.3-20.27-30.48-2.77-4.19-5.45-8.45-8-12.78s-4.7-8.63-7.11-12.91a85.12,85.12,0,0,1-8.32-20.4,54.16,54.16,0,0,1,1.76-33.39A20.43,20.43,0,0,0,122.78,176.87Zm161.9,277c-1.63-2-2-2.29-3.2-2.26A17.83,17.83,0,0,0,278,452c-8,1.83-16.13,3.36-24,5.63-14.41,4.14-28.72,8.64-42.67,14.2-4.06,1.62-8,3.59-12,5.44a3.17,3.17,0,0,0-2.27,3.22c5.53-2.26,10.63-4.51,15.86-6.45s10.55-4.23,16.29-4.92a3.57,3.57,0,0,1-1.44,1c-5.64,2.31-11.33,4.49-16.91,6.95-3.22,1.42-6.25,3.26-9.33,5a2.79,2.79,0,0,0-1.74,3,344,344,0,0,1,84.93-26.73c-2.58-2.51-5.11-1.38-7.4-1.31s-4.72.54-7.08.84l-.22-1A63.6,63.6,0,0,1,284.68,453.89ZM210.3,484c-2.26.6-1.9,1.9-1.73,3.16,1.08,8,2.18,16.1,3.21,24.15,2.45,19,4.83,38,7.31,57,2.42,18.55,4.92,37.1,7.37,55.65q2.65,20,5.22,40.1c.15,1.19.11,2.36,1.61,2.82,1.51-1,1.1-2.49.95-3.78-.59-5.1-1.32-10.18-2-15.26-1.52-12-2.95-24-4.57-35.91-1.46-10.8-3.24-21.55-4.67-32.35-1.86-14.09-3.46-28.2-5.26-42.3-.84-6.57-2-13.1-2.79-19.67-1.21-9.55-2.25-19.11-3.44-28.66A39.34,39.34,0,0,0,210.3,484Zm33.57,183.2c1.21-1.58.73-3.19.48-4.74q-1.87-11.54-3.8-23.07c-1.28-7.58-2.6-15.16-3.89-22.74-.38-2.21-.79-4.41-1.1-6.63-1.18-8.47-2.2-17-3.51-25.41-1.44-9.29-3.2-18.54-4.71-27.82-1-6.43-1.83-12.9-2.86-19.33-1.47-9.18-3.14-18.33-4.57-27.51-1.25-8-2.26-16.08-3.4-24.11a13.34,13.34,0,0,0-.82-3.08,1.42,1.42,0,0,0-1.22-.66,1.54,1.54,0,0,0-.92,1.09,9,9,0,0,0,.1,2.55q3.18,20.11,6.41,40.22c1.67,10.45,3.37,20.9,5,31.36,1.87,11.94,3.64,23.9,5.52,35.83q4,25.51,8.12,51c1.1,6.87,2.24,13.72,3.29,20.6C242.14,665.84,242.2,666.84,243.87,667.17Zm-74.4-293.7c.95-.43,1.61-.71,2.26-1,2-1,3.93-2.2,6-3,4.45-1.81,8.94-3.53,13.47-5.12,5.75-2,11.51-4.08,17.36-5.78,7.9-2.3,15.92-4.22,23.85-6.41,3.83-1.06,7.65-2,11.67-1.82.44,0,.9-.33,2.08-.79-1.2-.69-1.85-1.36-2.49-1.37a27.54,27.54,0,0,0-6,.41c-5.64,1.24-11.26,2.56-16.83,4.07a364.6,364.6,0,0,0-42.34,14.11,51.77,51.77,0,0,0-6.88,3.42C170.59,370.7,169.17,371.31,169.47,373.47ZM295.28,661.78c-2,.7-2.75,2.41-2,4.67.61,1.74,2.36,2.39,4.52,1.68s2.94-2.07,2.27-4.15C299.38,661.73,297.68,661,295.28,661.78Zm-7.52,8.82c2.3-.7,3.33-2.38,2.68-4.34-.6-1.8-2.34-2.36-4.89-1.58a3.83,3.83,0,0,0-2.57,4.51C283.49,670.64,285.58,671.26,287.75,670.6Zm-11.93-3.67c-2,.63-3.28,2.46-2.84,4.05.51,1.82,2.46,2.6,4.77,1.9s3.16-2.39,2.42-4.42C279.61,666.89,277.87,666.28,275.82,666.92Zm40.08-5c2.14-.68,3.1-2.26,2.48-4.09a3.34,3.34,0,0,0-4.42-2,3.09,3.09,0,0,0-2.16,4.27C312.39,661.91,313.83,662.55,315.9,661.9Zm-6.47-.84c-.61-2-2.06-2.71-4.29-2.07s-2.82,1.88-2.15,4.17c.63,2.13,1.64,2.63,3.89,1.92S310,663,309.44,661.05ZM329,652.82a2.4,2.4,0,0,0,3.11,1.92c2.14-.5,4-2.69,3.59-4.22s-2.16-2.28-4.23-1.73S328.39,650.76,329,652.82Zm-8.4,3.81c.65,1.9,1.9,2.52,3.7,1.84,2.22-.84,3.14-2.39,2.44-4.14a3.38,3.38,0,0,0-4.31-1.73C320.46,653.24,319.85,654.57,320.56,656.63ZM248,676.87a3,3,0,0,0,2.2-4c-.56-1.57-2.48-2.16-4.7-1.46a2.42,2.42,0,0,0-1.85,3.19A3.45,3.45,0,0,0,248,676.87Zm9.79-1.47c2.23-.66,3.26-2.35,2.74-4s-2-2-4-1.33a4,4,0,0,0-1.65.89c-.51.57-1.22,1.49-1.06,2a4.42,4.42,0,0,0,1.85,2.27C256.35,675.65,257.35,675.39,257.82,675.4Zm10.11-.93c2-.6,2.75-2.18,2.09-4.27-.5-1.59-1.6-2-3.58-1.49s-3.09,2.26-2.46,4.06A3.06,3.06,0,0,0,267.93,674.47Zm72-30.43c-.63.65-1.89,1.35-2,2.25a4.27,4.27,0,0,0,1.23,3c1,1.06,2.16.27,3.18-.29a7.57,7.57,0,0,0,1.56-1.06,2.21,2.21,0,0,0-1-3.9A14.21,14.21,0,0,0,339.91,644Zm19.41-10.6c-.71.62-1.76,1.17-2.2,2a2.89,2.89,0,0,0,.18,2.57,3.31,3.31,0,0,0,2.46,1c1.35,0,3.1-2.13,3.37-3.54.21-1.14-.15-1.93-1.36-2.08A19.08,19.08,0,0,0,359.32,633.44Zm-8.89,5.41c-2.5.8-3.5,2.09-2.93,3.77.48,1.42,1.92,1.93,3.76,1.33,2-.66,2.83-2.1,2.18-3.91C352.89,638.51,352.27,638.26,350.43,638.84Zm-56.87,36.6c-.5-1.79-1.68-2.37-3.7-1.8-1.7.47-2.86,2.15-2.45,3.52s2.07,2,4,1.45S294,677.08,293.57,675.44ZM323,662.72c-2,.57-3.23,2.25-2.78,3.67a3.11,3.11,0,0,0,3.68,1.72c1.8-.5,2.82-2.06,2.31-3.57A2.59,2.59,0,0,0,323,662.72Zm-88.61,8.54c-1.34.45-2,1.6-1.45,2.67a5.34,5.34,0,0,0,4.82,2.48,2,2,0,0,0,1.54-3.1A4.56,4.56,0,0,0,234.44,671.26Zm81.77-.39c2.07-.61,2.86-1.62,2.41-3.08a3,3,0,0,0-3.92-1.8c-1.8.58-2.8,2.18-2.29,3.66S314.2,671.46,316.21,670.87ZM299.8,676.3c2.16-.62,2.91-1.67,2.53-3.09s-1.36-2.06-3.21-1.78a8.93,8.93,0,0,0-1.54.4c-1,.33-2,.87-1.64,2a4.56,4.56,0,0,0,1.81,2.33C298.36,676.53,299.38,676.28,299.8,676.3Zm10.47-5.62c-.65-1.9-1.8-2.48-3.66-1.82s-2.64,2-2,3.65,2.08,2,4,1.31C310.33,673.17,310.81,672.28,310.27,670.68Zm-27.13,9.65a2.88,2.88,0,0,0,1.9-3.84c-.44-1.15-1.7-1.5-3.3-.9s-2.77,2.17-2.43,3.36S281.51,680.9,283.13,680.33Zm-10.25-3.14c-1.59.47-3,2-2.85,3.06s2,1.81,3.84,1.56,2.92-1.41,2.53-2.89S274.61,676.69,272.88,677.19Zm65.84-16.87c2-.66,3.05-2.14,2.5-3.47a2.73,2.73,0,0,0-3.57-1.25c-1.85.64-2.78,2-2.32,3.28S337.09,660.87,338.72,660.33Zm-8.4-.46c-1.62.48-2.51,1.75-2.12,3a2.54,2.54,0,0,0,2.94,1.82c1.66-.4,2.87-2.22,2.38-3.56A2.45,2.45,0,0,0,330.31,659.86ZM262.53,678c-.48.58-1.5,1.27-1.66,2.11-.23,1.26,1.06,1.68,2.09,1.93a6,6,0,0,0,2.18.08,2,2,0,0,0,1.9-2.45c-.1-1.38-1.06-1.71-2.21-1.75C264.21,677.87,263.58,677.93,262.53,678Zm83.1-27.11c-1.67.59-2.75,2.24-2.31,3.42a2.14,2.14,0,0,0,2.88,1.18c1.69-.55,2.48-2,1.9-3.42A1.85,1.85,0,0,0,345.63,650.85Zm-93.72,29.52c1,1.89,2.68,1.94,4.34,1.57a2.25,2.25,0,0,0,1.45-1.61,2.31,2.31,0,0,0-1.48-1.65C254.55,678.33,252.87,678.47,251.91,680.37ZM355.26,647c-1.68-.86-2.94-.08-4,.76-.5.4-.85,1.88-.58,2.14a2.92,2.92,0,0,0,2.42.79A3.08,3.08,0,0,0,355.26,647Zm13.26-18.85a1.57,1.57,0,0,0-2.18-1.09A2.35,2.35,0,0,0,364.9,630a1.55,1.55,0,0,0,2.23,1.13A2.15,2.15,0,0,0,368.52,628.19ZM227.14,668.5c-.29,1.36-.7,2.14-.54,2.79a1.55,1.55,0,0,0,2.17,1.22c.57-.27,1.3-1.56,1.12-1.84C229.39,669.92,228.45,669.47,227.14,668.5Zm133.6-25.1c-.9-.49-1.55-1.1-1.87-1-.52.23-.82,1-1.22,1.47.46.35,1,1.06,1.37,1C359.57,644.78,360,644.1,360.73,643.41Z" transform="translate(-106.1 -151.42)"/><path class="cls-3" d="M243.49,371.31l-1.63,8.37a13.76,13.76,0,0,1-2.68-7C238.93,370.81,241,370.17,243.49,371.31Z" transform="translate(-106.1 -151.42)"/><path class="cls-3" d="M212.44,379.47c1.76-1.6,2.32-1.66,2.88-.2.49,1.29,1.38,2.63.45,4.67Z" transform="translate(-106.1 -151.42)"/><path class="cls-3" d="M236.15,373.28l-1.28,4.13c-1.52-1.49-2.2-2.71-1.38-4.26C234,372.16,234.88,372.37,236.15,373.28Z" transform="translate(-106.1 -151.42)"/><path class="cls-3" d="M229.26,374.59l-.68,3.89c-1.8-.75-2.71-2.14-2.37-3.26C226.45,374.45,227.08,374.29,229.26,374.59Z" transform="translate(-106.1 -151.42)"/><path class="cls-3" d="M220.91,380.58a12,12,0,0,1-1.63-2.51c-.16-.46.42-1.18.67-1.79.6.28,1.62.48,1.71.87a14.38,14.38,0,0,1,0,3.25Z" transform="translate(-106.1 -151.42)"/></g></g></g></svg>