<svg xmlns="http://www.w3.org/2000/svg" viewBox="0 0 269.7 536.16"><defs><style>.cls-1{fill:#a32519;}</style></defs><title>a_thing_1Ресурс 8</title><g id="Слой_2" data-name="Слой 2"><g id="Слой_1-2" data-name="Слой 1"><path class="cls-1" d="M191.35,277.61c-2.39,1.17-3.38,2.39-3.81,4.05q-3.42,13.47-6.79,26.95a11.51,11.51,0,0,0-.05,2.37c2.36-.34,2.91-2.06,3.45-3.61.6-1.74.95-3.58,1.4-5.38q2.44-9.84,4.86-19.68C190.73,281,191,279.61,191.35,277.61Z"/><path class="cls-1" d="M213.33,188.69a5.65,5.65,0,0,0-3.53,4.11c-2.2,8.75-4.43,17.49-6.6,26.25a18.48,18.48,0,0,0-.2,3,4.79,4.79,0,0,0,3.45-3.71c2.38-9.38,4.65-18.78,6.93-28.18A6.4,6.4,0,0,0,213.33,188.69Z"/><path class="cls-1" d="M168.68,366.95a5.59,5.59,0,0,0-3.56,4.14c-2.2,8.75-4.43,17.49-6.6,26.24a17.79,17.79,0,0,0-.16,3,5.15,5.15,0,0,0,3.43-3.82c2.34-9.27,4.6-18.56,6.86-27.86A8.67,8.67,0,0,0,168.68,366.95Z"/><path class="cls-1" d="M161.94,450.22c-1.19,3.73-.87,4,2.65,5.78,2.41,1.24,4.82,2.52,7.11,4a4.29,4.29,0,0,1,2.09,5q-3.44,13.8-6.82,27.61a4.54,4.54,0,0,1-3.77,3.6,17.67,17.67,0,0,1-3.88.47c-2.82-.06-5.65-.21-8.45-.48A3.4,3.4,0,0,0,147,498.3a72.59,72.59,0,0,1-9.54,14,67.29,67.29,0,0,1-29.34,20C91.49,538,75,537.35,58.69,530.72a68.54,68.54,0,0,1-33.62-28.79,67.4,67.4,0,0,1-9.89-35.73c0-2.67-.93-4.18-3.44-5.17a61.72,61.72,0,0,1-8.47-4.15C0,455-.5,453.45.38,449.83Q3.54,437,6.74,424.12c.88-3.54,1.68-4.39,5.29-4.59,2.92-.17,5.86.07,8.79.16,2.37.07,3.1-.5,3.48-2.78.81-4.9,1.63-5.84,6.4-6.81a3.45,3.45,0,0,0,3.1-2.88c.15-.75.37-1.48.55-2.22L111,99.29c.16-.63.27-1.29.48-1.9a2.58,2.58,0,0,0-1.32-3.54c-2.81-1.54-3.72-3.82-2.49-6.86a8.81,8.81,0,0,0,.33-1.26c.77-3.2.5-3.67-2.4-5.07-2.35-1.14-4.71-2.26-6.93-3.62-3.28-2-3.73-3.38-2.78-7.11q3.29-12.82,6.61-25.64c1-3.86,2.07-4.91,6.09-5a100,100,0,0,1,10.09.44c1.85.14,3.19-.36,4-2.1.32-.69.72-1.34,1.09-2A68.79,68.79,0,0,1,155.35,6.43,69.62,69.62,0,0,1,198,1.28a66,66,0,0,1,26.88,11.16c18.9,13.57,28.69,32.22,29.56,55.5.2,5.38.17,5.29,5.11,7.52a61,61,0,0,1,7.71,4.19,4.82,4.82,0,0,1,2.19,5.66q-3.58,13.76-7.1,27.54a4.62,4.62,0,0,1-4.62,3.86c-2.82.1-5.65.11-8.47,0-3.24-.13-3.84.24-4.39,3.3-.83,4.6-1.54,5.39-6.19,6.12a2.22,2.22,0,0,0-2.18,2c-.12.64-.32,1.27-.47,1.9L158.89,437.92l-.9,3.58C161.61,443.5,163.25,446.11,161.94,450.22Zm-50.88-212.9c-5.56,3.84-11.34,7.36-16.7,11.45-6.3,4.8-12.3,10-18.31,15.18a12.39,12.39,0,0,0-3.85,6.67c-5.58,22.64-11.25,45.26-16.88,67.9a23.78,23.78,0,0,0-.67,3.85c0,.52.41,1.08.78,2a8,8,0,0,0,1.35-1.68,36.5,36.5,0,0,0,1.1-3.76c2.33-9.19,4.71-18.37,6.94-27.58a18.64,18.64,0,0,1,6.66-10.48A187.64,187.64,0,0,1,93.84,285a108.47,108.47,0,0,1,9.87-4.67c.5,2-.76,2.49-1.62,3.11-2.83,2-5.66,4.08-8.63,5.91a12.63,12.63,0,0,0-6,8.48c-1.85,8.29-4,16.51-6,24.78a32.91,32.91,0,0,0-.42,3.85c4.56-1.56,8-4.26,13.05-4.75a16.53,16.53,0,0,1-2,2.17c-3.71,2.67-7.37,5.44-11.23,7.89a152,152,0,0,0-18.7,14.1c-2.69,2.36-5.5,4.57-8.18,6.93A13.48,13.48,0,0,0,49.78,360c-4,16.52-8.17,33-12.26,49.5a8.65,8.65,0,0,0-.44,2.55c0,.6.59,1.16,1.3,2.44a29.41,29.41,0,0,0,1.36-3.22c1-3.79,2-7.59,2.89-11.41a17.65,17.65,0,0,1,6.53-10.19,174.82,174.82,0,0,1,25.67-17.3c2-1.11,4.3-1.84,6.78-2.88,0,2-1.16,2.55-2.06,3.19-2.84,2-5.69,4-8.63,5.91a12.09,12.09,0,0,0-5.71,7.94c-1.87,8.29-4,16.52-6.06,24.77-.26,1-.52,2.08-.73,2.92,1.45,1.51,2.46.49,3.5,0,2.4-1,4.79-2.07,7.21-3a12.19,12.19,0,0,1,2.43-.32c-3.56,4.59-9.08,6.15-12.65,10.81,2.12.95,3.62,1.74,5.19,2.3,12.75,4.55,26,7.35,39.07,10.61a15.22,15.22,0,0,0,10.22-1c14.35-6.64,28.24-14.08,40.22-24.6,2.61-2.29,5.09-4.75,7.58-7.18a14,14,0,0,0,3.52-6.9q8.69-34.56,17.34-69.13a8.38,8.38,0,0,0,.29-2.57,1.53,1.53,0,0,0-.93-1.11,1.5,1.5,0,0,0-1.25.7,14,14,0,0,0-.92,2.78c-2.42,9.62-4.92,19.22-7.19,28.87A21,21,0,0,1,164.29,367a144.17,144.17,0,0,1-28.38,17.87c-12.54,5.79-25.28,11.15-38,16.63a13.17,13.17,0,0,1-5.46,1,6,6,0,0,1,1.18-1.17,94.93,94.93,0,0,1,9-4.68,7.79,7.79,0,0,0,5-5.91c2.13-8.9,4.37-17.78,6.56-26.67.34-1.38.72-2.74,1-4.13.46-2.38-.29-3-2.65-2.2s-4.68,1.77-7,2.61a26,26,0,0,1-2.75.61c.58-.87.78-1.52,1.2-1.75,3.45-1.84,6.88-3.73,10.42-5.36,11.37-5.21,22.94-10,34.13-15.56a128,128,0,0,0,33.39-23.73,19.53,19.53,0,0,0,5.43-9.46q7-28.24,14.12-56.45c1-4,2-8,3-12,.33-1.33.85-2.74-.75-3.83-1.68.69-1.71,2.23-2,3.53-2.33,9.19-4.61,18.39-6.92,27.59-.37,1.48-.77,3-1.17,4.42a16,16,0,0,1-5.5,8.27A146,146,0,0,1,155,297.33c-11.58,5.28-23.35,10.16-35.06,15.15a39.44,39.44,0,0,1-4.84,1.39l-.28-.61a9.92,9.92,0,0,1,1.56-1.29c3-1.6,5.9-3.28,9-4.64a6.9,6.9,0,0,0,4.34-4.88c2.58-10.48,5.2-20.94,7.74-31.43.61-2.54-.22-3.2-2.77-2.33-2,.67-3.86,1.48-5.81,2.17a7,7,0,0,1-3.6.47c.36-.44.63-1,1.09-1.3,3.15-1.71,6.27-3.5,9.52-5,11.67-5.33,23.56-10.22,35-15.92a125.93,125.93,0,0,0,34.51-24.93,15.74,15.74,0,0,0,4-7.37q8.68-34.56,17.34-69.12c.33-1.33.9-2.73-.47-3.91-1.81.27-1.84,1.76-2.14,2.94-1.94,7.6-3.84,15.22-5.75,22.83-.8,3.17-1.59,6.34-2.42,9.5a16.29,16.29,0,0,1-5.68,8.53c-12.72,10.66-27.17,18.38-42.27,25-8.27,3.62-16.65,7-25,10.45a16.57,16.57,0,0,1-5.82,1.28c.36-.4.64-.94,1.08-1.18,3.16-1.71,6.27-3.52,9.55-5a6.62,6.62,0,0,0,4.15-4.64q4-15.86,7.83-31.74c.58-2.38-.25-3.09-2.53-2.31-2.06.7-4.06,1.56-6.12,2.29a6.53,6.53,0,0,1-3.54.35c.39-.44.69-1,1.17-1.28,3.56-1.86,7.09-3.78,10.74-5.45,11.27-5.17,22.75-9.89,33.83-15.42a125.82,125.82,0,0,0,33.79-24.27c3.16-3.21,4.22-7.26,5.08-11.43A2.29,2.29,0,0,0,232,123c-.11-.26-.42-.43-.85-.86-2.29,3.34-1,8.41-5.73,11a20.61,20.61,0,0,1,.15-3.12c.51-2.34,1.16-4.65,1.71-7a6.31,6.31,0,0,0,.26-2.24,1.52,1.52,0,0,0-1.11-.92,1.6,1.6,0,0,0-1.25.71,8.67,8.67,0,0,0-.7,2.16c-1,4-2,8-3,12.06a6.81,6.81,0,0,1-3,4.52c-1.44-.93-.77-2.14-.51-3.2,1.24-5.08,2.57-10.14,3.77-15.23.29-1.22,1.47-3.06-.72-3.5-1.89-.38-1.67,1.66-2,2.79-1.79,7-3.51,13.95-5.22,20.94-.43,1.74-1.09,3.24-2.82,4.09-1.44-1.18-.77-2.47-.47-3.67q2.6-10.47,5.25-20.93a11.52,11.52,0,0,0,.57-2.54,3.27,3.27,0,0,0-.63-2.07c-1.64-1.83-5.28-2.25-7.57-1.18-9.15,4.3-18.28,8.65-27.52,12.77-5.26,2.35-10.68,4.33-16.05,6.41a13.06,13.06,0,0,1-4.93.9c.35-.4.63-.95,1.07-1.19,3.15-1.71,6.27-3.53,9.55-5a6.64,6.64,0,0,0,4.16-4.63c1.42-5.6,2.83-11.2,4.16-16.82.52-2.2.13-2.82-1.89-3.39a294.71,294.71,0,0,0-37.9-8.37c-2.66-.38-3.88.23-4.8,2.68a54.25,54.25,0,0,0-1.62,5.65,5.73,5.73,0,0,1-3.53,4.3c-.28-1.74.37-3.13.68-4.52.44-2,1-4,1.49-6,.26-1.07.58-2.29-.89-2.71-1.68-.48-2,.86-2.32,2-1.1,4.22-2.2,8.44-3.22,12.67a6.31,6.31,0,0,1-3.43,4.59c-.78-1.41-.1-2.66.17-3.83,1-4.25,2.12-8.46,3.09-12.71a17.38,17.38,0,0,0,.14-3.29c-2.16-.29-2.4,1-2.7,2.15-.73,2.74-1.39,5.49-2.09,8.24-1,3.91-2,7.81-3,11.72a6,6,0,0,1-3.92,4.4c.34-1.76.53-3.1.85-4.41,1.5-6.14,3.05-12.27,4.53-18.41a29,29,0,0,0,.42-3.32l-.78-.39a7.7,7.7,0,0,0-1.65,1.55,9.6,9.6,0,0,0-.77,2.48Q107.77,129,100.15,159.6a24.35,24.35,0,0,0-.68,3.85c0,.52.39,1.09.81,2.15a10.29,10.29,0,0,0,1.43-2.1c.64-2.08,1.18-4.19,1.72-6.31,2.07-8.13,4.19-16.25,6.14-24.41a19,19,0,0,1,7-11A177.24,177.24,0,0,1,142,104.69a51.28,51.28,0,0,1,5.72-2.39c.25-.1.58,0,1.59.13a26.68,26.68,0,0,1-2.71,2.65c-2.93,2.09-5.88,4.14-8.9,6.1a11.57,11.57,0,0,0-5.31,7.47c-1.93,8.39-4.08,16.73-6.15,25.08-.25,1-.51,2.06-.72,2.88,1.55,1.46,2.54.42,3.57,0,2.3-1,4.58-2,6.91-2.93a3.06,3.06,0,0,1,2.43.24c-.84.73-1.63,1.54-2.54,2.18-6.4,4.51-12.83,9-19.22,13.49a153,153,0,0,0-18.29,15.24,13.58,13.58,0,0,0-3.83,6.69q-8.34,33.81-16.81,67.58a20.69,20.69,0,0,0-.65,3.53,6.42,6.42,0,0,0,.56,2c1.91-.63,1.84-2.14,2.15-3.3,1.28-4.73,2.44-9.5,3.64-14.25,1.28-5.07,2.64-10.13,3.82-15.22a18.1,18.1,0,0,1,6.68-10.46,177.55,177.55,0,0,1,25.39-17.13c2.07-1.14,4.35-1.89,6.67-2.88.61,1.74-.58,2.23-1.35,2.78-2.92,2.1-5.83,4.22-8.88,6.12a12.65,12.65,0,0,0-6,8.5c-1.8,8.08-3.91,16.09-5.9,24.14-.28,1.13-.56,2.25-.8,3.18,1.62,1.41,2.59.36,3.63-.08,2.3-1,4.58-2,6.9-2.91a8.65,8.65,0,0,1,2.1-.28l.31.6C114.37,234.72,112.79,236.12,111.06,237.31ZM179,20.09c3.88-.51,7.77-.88,11.68-.07,3.07.64,6.22,1,9.26,1.73,4.46,1.12,8.37,3.51,12.16,6a30.69,30.69,0,0,1,6.55,5.34,94.42,94.42,0,0,1,7.83,10.77c4,6.29,5.53,13.4,6.39,20.7a7,7,0,0,0,.61,2.5,2,2,0,0,0,1.57.67c.24,0,.73-.83.68-1.24-1.05-9.35-2.87-18.39-7.92-26.66a55.17,55.17,0,0,0-14.7-15.51c-6.12-4.52-13.11-7.71-21-8.16-3.14-.18-6.29-.24-9.43-.49a27.29,27.29,0,0,0-10.57,1.64,56.35,56.35,0,0,0-17.89,9.25,49.43,49.43,0,0,0-12.95,15.79c-.88,1.65-.4,2.7,1.41,3.07,6.49,1.32,13,2.5,19.49,3.86,4.79,1,9.56,2.15,14.31,3.34,10.68,2.67,21.34,5.41,32,8.11,1.12.28,2.27.45,3.36.66,1.71-5.71-.92-16.79-8.82-23.76a13.88,13.88,0,0,1,2.34,1.19,25.8,25.8,0,0,1,9.42,13c.93,3,2.15,6,1.81,9.22a2,2,0,0,0,.42,1.52,3,3,0,0,0,1.89.75c.3,0,.86-1,.81-1.46-.49-5.19-.76-10.5-3.29-15.18-2.74-5.06-5.76-10-10.67-13.36a34.24,34.24,0,0,0-13.69-5.78,4.93,4.93,0,0,1-1.1-.62c.62-.27,1-.58,1.26-.52,8.69,1.57,16.33,5,22.12,12s9.9,15.05,10.19,24.52a3.35,3.35,0,0,0,.49,1.83,1.92,1.92,0,0,0,1.55.74c.38-.1.8-1,.78-1.5-.52-11.7-4.3-22-12.59-30.6-6.06-6.28-13.32-9.83-21.8-11.51-5.15-1-10.17-.46-15.25,0l-2.17.18-.21-.78A21.53,21.53,0,0,1,179,20.09ZM102.57,508.91a41.27,41.27,0,0,0,18-19.07c-2.08-1-3,0-3.71,1.28a34.45,34.45,0,0,1-11,11.78c-10.44,7-21.61,9.4-33.8,5.38a4.19,4.19,0,0,1-1.12-.6c-.13-.09-.12-.38-.23-.79,1.52.29,3,.47,4.37.84,4.64,1.23,9.3.89,13.91,0a23.49,23.49,0,0,0,6.68-2.45c3.34-1.79,6.92-3.37,9.45-6.28s4.92-6.33,7.27-9.58a1.73,1.73,0,0,0-.32-1.67,1.86,1.86,0,0,0-1.74,0,5.51,5.51,0,0,0-1.37,1.71c-4.57,6.87-10.55,11.77-18.81,13.44a15.41,15.41,0,0,1-4.31.11c9.16-2.26,15.64-7.52,19.64-16.5-1.54-.53-2.7-1-3.92-1.33-7.19-1.77-14.42-3.4-21.59-5.25-10.53-2.72-21-5.56-31.52-8.43-3.77-1-7.47-2.32-11.21-3.44-2.67-.8-3.47-.24-3.37,2.45.31,8.6,2.11,16.79,6.58,24.28a54.43,54.43,0,0,0,12.24,14.71,48.91,48.91,0,0,0,9.8,5.79,45,45,0,0,0,20.1,4.67,37.06,37.06,0,0,0,10.32-1.21c2.5-.74,5.13-1.09,7.57-2a50,50,0,0,0,23.53-17.35c1.43-1.92,2.79-3.89,4.23-5.79.69-.91,1-1.7-.19-2.5-1.59-.14-2.11,1.23-2.88,2.2-1.89,2.39-3.63,4.89-5.6,7.21-4.08,4.8-9.35,8-14.82,11-6.78,3.69-14,4.72-21.65,4.74A42.64,42.64,0,0,1,67.62,513a54.15,54.15,0,0,1-9.32-4.59c-1.66-1-3.26-2.13-4-4.35C69.53,515.51,85.59,518.1,102.57,508.91Zm43.8-20.5c-5.27-.67-10.5-1.6-15.73-2.56s-10.41-2-15.6-3.19-10.41-2.37-15.59-3.65-10.33-2.16-15.15-4.34l.2-.76c1.49.21,3,.36,4.46.66a2,2,0,0,0,2.64-1.66c1-4,2-8,3.08-12a3,3,0,0,0-1.52-3.59c-.42-.27-.81-.58-1.85-1.34a19,19,0,0,1,2.82.09c8.49,1.87,17,3.91,25.47,5.64q16.6,3.38,33.29,6.32c3.94.69,8,.74,12,1.07a3.2,3.2,0,0,0,1.61-.05,11.34,11.34,0,0,0,1.85-1.51c-.6-.48-1.15-1.31-1.8-1.39-3.12-.4-6.29-.46-9.41-.89-6.88-1-13.76-2-20.6-3.17-19.63-3.46-38.95-8.32-58.23-13.29C68.14,446.13,58,443.08,48,440c-8-2.43-15.94-5.08-23.85-7.8-3.28-1.12-6.41-2.68-9.62-4-1-.4-2-.66-3-1-1.05,1.81,0,2.57,1,3.14a69.83,69.83,0,0,0,6.63,3.49c10,4.41,20.37,7.62,30.82,10.68,2,.59,4,1.47,5.95,2.22l-.12.68-2.94,0c-.39,1.17-.84,2.36-1.19,3.59q-1.15,3.92-2.22,7.86c-1,3.73-1,3.73,2.33,6.3a10.06,10.06,0,0,1-2.32,0c-4.82-1.35-9.69-2.55-14.4-4.2-9.14-3.18-18.2-6.6-27.27-10-1.22-.45-2.24-1-3.11,1A11.09,11.09,0,0,0,7,453.83c4.56,2,9.08,4.19,13.77,5.84,8.09,2.84,16.29,5.39,24.48,8C64,473.53,83,478.16,102,482.56c8.67,2,17.39,3.87,26.14,5.46,9.61,1.74,19.2,3.71,29,4.06,1.61.06,3.44.59,5.14-1.62C156.73,489.46,151.53,489.07,146.37,488.41ZM261.46,81.32c-5.93-2.43-11.82-5-17.86-7.11-6.86-2.41-13.85-4.46-20.82-6.55-4-1.22-8.14-2.2-12.21-3.32-5-1.39-10-2.91-15.07-4.2-10.23-2.6-20.44-5.36-30.76-7.54-16.58-3.5-33.13-7.21-50.05-8.74-1.73-.16-3.47-.12-5.21-.1-1,0-2.16.09-2.27,1.36s1.13,1.39,2.08,1.49c2.92.32,5.87.44,8.76.91,9.34,1.52,18.66,3.15,28,4.75,1.93.33,3.86.64,5.76,1.09a9.87,9.87,0,0,1,3.07,1.49c-4-.29-4.46,2.48-5,5.21s-1.26,5.3-1.85,8c-.67,3-.65,3,2.09,4.95a23.93,23.93,0,0,1-3.23-.16c-7.07-1.28-14.09-2.86-21.2-3.87C119,68,112.25,67.56,105.53,67a17.86,17.86,0,0,0-4,.58c-.13,1.94.85,2.16,2,2.27,4.22.38,8.45.66,12.64,1.21,5.17.69,10.32,1.52,15.45,2.46,7.16,1.32,14.28,2.8,21.42,4.2.43.08.86.14,1.28.25,16.9,4.21,33.87,8.17,50.69,12.71,15.42,4.16,30.74,8.72,45.53,14.85,1.91.79,3.77,1.68,5.64,2.57.94.45,2,.88,2.59-.24s-.1-2.07-1.23-2.59c-2-.91-3.93-1.87-5.93-2.7A192.31,192.31,0,0,0,226,93.91c-6.09-1.57-12-3.83-18-5.58s-12.38-3.28-18.56-5A7.85,7.85,0,0,1,186,81.53c.62-.08,1.24-.2,1.87-.23a3,3,0,0,0,3-2.52c.92-3.81,1.93-7.6,2.77-11.43.52-2.36.22-2.69-2.19-3.48a10.8,10.8,0,0,1-3.14-1.46,15,15,0,0,1,6.86.51c9.78,2.64,19.52,5.41,29.28,8.13,3.45,1,6.92,1.88,10.35,2.93q4.2,1.29,8.31,2.86c6.27,2.39,12.5,4.88,18.76,7.3a15.59,15.59,0,0,0,2.5.48C264.09,82.4,262.72,81.84,261.46,81.32ZM129.23,40.39c3.52-6.75,8.63-12.25,14.21-17.25A61.64,61.64,0,0,1,161.93,11.8c9.36-3.71,19.12-5.41,29.06-4.17,6.51.81,13.15,1.89,19.09,5.18,3,1.68,6.21,3.14,9.14,5a57.24,57.24,0,0,1,17.4,16.85c7.08,10.71,9.87,22.54,10.72,35.06a25.79,25.79,0,0,0,.54,3c1.89.09,2-.76,2.07-2.06a60.9,60.9,0,0,0-2-17.11C241.88,31.23,228,15.79,206.31,8.05c-17.54-6.25-34.92-4.6-51.56,3.85a64.68,64.68,0,0,0-27.28,26.36A28.13,28.13,0,0,0,126,42C128.15,42.3,128.72,41.36,129.23,40.39ZM19.69,466.52a65.34,65.34,0,0,0,7.08,28.9A64.12,64.12,0,0,0,59,526c18.61,8.09,37.28,7.56,55.48-1.54a64,64,0,0,0,28.28-28c.53-1,1.11-1.93-.27-3.22a8.54,8.54,0,0,0-1.89,1.83,62.65,62.65,0,0,1-8.75,12.13A67.94,67.94,0,0,1,115.2,521c-9.19,5.31-19,7.29-29.36,7.42a51.43,51.43,0,0,1-18-2.52c-4.73-1.66-9.47-3.14-13.81-5.65a62.41,62.41,0,0,1-5.7-3.75,60.57,60.57,0,0,1-18.89-22.46c-4.2-8.64-7-17.72-7.21-27.45,0-1.23.27-2.67-1.26-3.37C19.15,463.8,19.67,465.32,19.69,466.52Zm50-30.89c-2.45,2.46-1.92,4.85,1.33,5.77s6.51,1.78,9.77,2.64c1.36.36,2.81.94,3.92-.47s.67-2.84-.42-4.13c-.1-.12,0-.37-.08-1,2.74.5,5.39.89,8,1.48,4.57,1,9.1,2.24,13.67,3.25,8,1.77,15.91,3.62,23.93,5.1,6.61,1.22,13.29,2.09,20,2.83,2.22.25,4.75.74,7.14-1.39-.84-.45-1.41-1-2-1-12.77-.59-25.19-3.31-37.59-6.11-12.85-2.9-25.74-5.7-38.44-9.17-14.14-3.86-28.32-7.72-41.95-13.25-1.81-.74-3.55-1.66-5.38-2.36a7.81,7.81,0,0,0-2.3-.15c-.16,2,1.1,2.52,2.11,3,4.48,1.94,8.93,4,13.55,5.57,8.12,2.75,16.36,5.17,24.55,7.74a7,7,0,0,1,1.22.72Zm79.19-346c-4.05-.8-8-1.92-12.12-2.55-7-1.08-13.88-2.79-21-2.43a18.25,18.25,0,0,0-3,.66c.51,2.27,2.07,1.85,3.24,2,5.06.64,10.19.95,15.2,1.85,9.3,1.68,18.58,3.51,27.79,5.63,12.3,2.84,24.58,5.81,36.77,9.1a333.21,333.21,0,0,1,39,12.64c1,.41,1.93,1,2.95,1.4a10.68,10.68,0,0,0,2.09.35c.42-1.87-.81-2.47-1.8-2.94a93.14,93.14,0,0,0-10.41-4.65c-8.13-2.74-16.33-5.26-24.57-7.67-7.94-2.32-16-4.34-23.92-6.56-2.67-.75-5.28-1.72-8.54-2.8a23.45,23.45,0,0,0,2.07-1.38c1.95-1.7,1.58-3.88-.87-4.77a36.68,36.68,0,0,0-4.74-1.24c-2.23-.48-4.47-.88-6.71-1.31-2.78-.53-4.39,1.09-3.84,3.89.12.6.36,1.18.64,2.07C154.25,90.46,151.57,90.13,148.93,89.61Zm-13-47.34a12.55,12.55,0,0,0,1.55-2.48,44,44,0,0,1,15.11-15.94,57.29,57.29,0,0,1,21.63-8.71,72.38,72.38,0,0,1,18.81-.73,36.73,36.73,0,0,1,5.77,1c7.85,2,15.38,4.86,21.62,10.19,5.45,4.66,10.44,9.74,13.9,16.21a55.76,55.76,0,0,1,6.58,24.32,26.88,26.88,0,0,0,.86,4.26l.77.08c.29-.58.83-1.17.81-1.75-.09-3-.21-6.06-.54-9.07a54.53,54.53,0,0,0-5.3-17.34c-3.75-7.94-9.63-14.1-16.27-19.68A47.46,47.46,0,0,0,202.1,12.57c-5.25-1.32-10.54-2.46-16-2.28a69.44,69.44,0,0,0-22,4,54.08,54.08,0,0,0-29.48,25.34c-.61,1.1-1.53,2.13-.71,4A9.4,9.4,0,0,0,135.95,42.27Zm-3.06,453.62a58.39,58.39,0,0,1-11.82,14.27c-5.66,4.93-12.28,8-19.43,10.3a51.22,51.22,0,0,1-33-.8c-10.88-3.82-20.5-10-27.48-19.55-2.49-3.42-5.38-6.52-7-10.55-2.57-6.28-4.81-12.59-4.84-19.49a16,16,0,0,0-.42-3.54,1.46,1.46,0,0,0-1.18-.82,1.55,1.55,0,0,0-1,1,12.83,12.83,0,0,0-.08,2.59A54.63,54.63,0,0,0,36.9,500.8a58.87,58.87,0,0,0,15.22,14.59,60.38,60.38,0,0,0,15,7.74c12.27,4.1,24.49,3.63,36.72-.5a54.39,54.39,0,0,0,14.79-7.42,51.87,51.87,0,0,0,12.85-12.78c1.69-2.51,3.23-5.12,4.75-7.74.28-.48.12-1.23.16-1.85l-1-.25A38,38,0,0,0,132.89,495.89ZM144,268.15c.24-1,1-2.32-.6-2.74-1.33-.35-1.84.82-2.15,1.92-.21.73-.41,1.47-.59,2.21q-3.63,14.73-7.24,29.46a10.21,10.21,0,0,0-.31,2.88c0,.35.63.81,1.07,1,.24.08.84-.3,1-.61a14.29,14.29,0,0,0,.8-2.47q2-7.75,3.89-15.5l.12,0C141.34,278.91,142.71,273.53,144,268.15Zm-32.71,119.1c-.13.53-.29,1.05-.39,1.59-.21,1.15-.84,2.73.7,3.09s1.59-1.44,1.86-2.48c2.75-10.65,5.46-21.32,8.17-32,.05-.21.11-.42.16-.63.2-1,.6-2.21-.76-2.34-.62-.06-1.7,1-2,1.7-.74,2-1.16,4.19-1.7,6.3q-1.32,5.23-2.62,10.46l.12,0ZM158,211.76q4.15-16.14,8.24-32.3c.29-1.15.78-2.36-.62-3.24-1.75,0-1.91,1.47-2.22,2.7-1,3.9-1.95,7.82-2.91,11.73q-2.43,9.84-4.84,19.67c-.35,1.45-.86,3,1.4,3.88A21.43,21.43,0,0,0,158,211.76ZM121.2,149.71c2.31-9.3,4.49-18.64,6.67-28a5.5,5.5,0,0,0-.18-1.65c-2,0-2.58,1.34-3,2.65-.56,1.76-.94,3.58-1.39,5.38-1.63,6.67-3.29,13.33-4.87,20a25.78,25.78,0,0,0-.35,3.69l1.12.47C119.89,151.43,121,150.67,121.2,149.71ZM79.78,301.77c-1,4.12-2,8.25-3,12.38s-2.05,8.24-3,12.38c-.29,1.22-.92,2.51.33,3.71,2.09-.16,2.45-1.79,2.82-3.38q2.81-11.76,5.59-23.52c.36-1.54.57-3.11.93-5.14C80.63,298.61,80.17,300.21,79.78,301.77ZM102,212.95c-1,3.9-1.92,7.83-2.87,11.74C98.1,229,97,233.36,96,237.7c-.3,1.23-.82,2.5.25,3.74,2.16-.15,2.53-1.78,2.91-3.36q2.78-11.6,5.52-23.21c.39-1.65.63-3.33,1-5.47C102.89,209.79,102.44,211.4,102,212.95Zm70.62-36a4.53,4.53,0,0,0,.34-1.58,5.88,5.88,0,0,0-.74-1.59,4.94,4.94,0,0,0-1.58.86,4.54,4.54,0,0,0-.7,1.8q-3.93,15.67-7.81,31.36c-.27,1.09-1,2.71.5,3.1,1.83.47,1.73-1.48,2-2.63,1.36-5.27,2.66-10.55,4-15.83l.09,0ZM140,296.11a9.55,9.55,0,0,0-.39,2.56,1.49,1.49,0,0,0,.92,1.1,1.6,1.6,0,0,0,1.25-.7,6.14,6.14,0,0,0,.61-1.84q4-15.66,7.94-31.32a3.92,3.92,0,0,0,.29-1.26,14.59,14.59,0,0,0-.5-2,6.93,6.93,0,0,0-2,1.25,5.86,5.86,0,0,0-.67,2.15q-1.87,7.44-3.73,14.88h0C142.55,286,141.27,291,140,296.11ZM126.1,352.53a9.79,9.79,0,0,0-.87,2.43q-3.81,15.19-7.57,30.39c-.3,1.21-1,2.5.36,3.71,1.57,0,1.71-1.26,2-2.4l6.64-26.25c.69-2.71,1.36-5.42,2-7.92C127.41,351.45,126.61,351.63,126.1,352.53Zm7.33-1.1c-2.61,10.12-5.15,20.26-7.7,30.39-.23.92-.73,1.89.42,2.72,1.72-.09,2.22-1.45,2.59-2.81.57-2.1,1-4.23,1.56-6.34,1.91-7.6,3.84-15.2,5.71-22.81.32-1.28,1.07-2.69-.9-4.46A18.62,18.62,0,0,0,133.43,351.42ZM178.09,173.1q-3.3,13-6.58,25.93c-.45,1.79-.94,3.58-1.31,5.39a16.28,16.28,0,0,0,.08,2.93,15,15,0,0,0,2.52-2.21,7.88,7.88,0,0,0,.83-2.46c2.32-9.28,4.65-18.57,6.93-27.86.31-1.28,1.15-2.68-.16-3.94C178.73,170.74,178.39,171.92,178.09,173.1ZM151.31,291.75Q154,281,156.67,270.22c.6-2.43,1.24-4.85,1.81-7.28a7.48,7.48,0,0,0,.27-2.25,1.06,1.06,0,0,0-1.88-.68,5.79,5.79,0,0,0-1.11,2.28q-3.88,15.17-7.67,30.37a20.22,20.22,0,0,0-.25,3C150.62,295,150.92,293.32,151.31,291.75Zm-14.5,86.93a9.3,9.3,0,0,0,1-2.72q3.65-14.06,7.22-28.14a15.49,15.49,0,0,0,.12-3.1c-2.37.28-2.49,1.79-2.82,3.11q-3.09,12.18-6.16,24.37-.86,3.42-1.72,6.84l.64.49C135.71,379.26,136.52,379.14,136.81,378.69Zm23.15-91c1-3.55,1.95-7.13,2.86-10.71q2.35-9.16,4.62-18.33c.24-1,1-2.33-.59-2.72s-1.7,1-2,2.06q-3.82,15-7.58,30a13.62,13.62,0,0,0-.13,2.38C159.51,290.35,159.63,288.83,160,287.67Zm21.44-86.88a10.56,10.56,0,0,0,1-2.72q3.64-14,7.23-28.09a3.28,3.28,0,0,0,.27-1.26,8.09,8.09,0,0,0-.68-1.64,7.36,7.36,0,0,0-1.74,1,3.51,3.51,0,0,0-.51,1.52q-3.6,14.22-7.19,28.44c-.26,1-.41,2.06-.61,3.1l.72.47C180.44,201.37,181.15,201.22,181.4,200.79ZM58.46,388.57a13.66,13.66,0,0,0-1.2,3Q54.58,402.31,52,413.08c-.28,1.18-1.11,2.83.6,3.35S54.71,415.28,55,414q2.92-12.19,5.75-24.41a6.88,6.88,0,0,0,0-1.73A1.45,1.45,0,0,0,58.46,388.57Zm92.7-45.08a28.5,28.5,0,0,0-.92,3.46l-5.82,23a9.46,9.46,0,0,0-.51,2.21,7.26,7.26,0,0,0,.56,2,9.65,9.65,0,0,0,1.94-1.23c.33-.33.32-1,.45-1.54q3.43-13.41,6.84-26.82c.28-1.1.41-2.24.66-3.65C151.91,340.93,151.61,342.36,151.16,343.5ZM196.58,164a13.44,13.44,0,0,0-1.3,3.3c-2.16,8.42-4.27,16.85-6.39,25.27a5.57,5.57,0,0,0-.41,1.89,6,6,0,0,0,.87,1.78,5.62,5.62,0,0,0,1.53-.92,3.8,3.8,0,0,0,.51-1.52q3.55-13.89,7.09-27.78c.21-.81.26-1.67.38-2.5l-.65-.55C197.65,163.31,196.86,163.52,196.58,164Zm-22.24,88.78a13.25,13.25,0,0,0-1.31,3.29c-2.16,8.42-4.27,16.85-6.39,25.27a5.7,5.7,0,0,0-.41,1.89,6.21,6.21,0,0,0,.84,1.8,10.53,10.53,0,0,0,1.68-1.18c.27-.27.26-.81.37-1.23q3.55-13.89,7.09-27.78c.21-.82.26-1.67.39-2.5l-.63-.57C175.41,252.11,174.62,252.31,174.34,252.79ZM160.69,338.2c-1.07,4.44-2.1,8.89-3.16,13.33-.89,3.7-1.81,7.39-2.69,11.09a7.2,7.2,0,0,0-.33,2.23,1.52,1.52,0,0,0,1,1.06,1.56,1.56,0,0,0,1.33-.58,7.7,7.7,0,0,0,.71-2.15c2-8.12,4-16.25,6-24.39a28.66,28.66,0,0,0,.38-3.71C161.38,335.44,161,336.83,160.69,338.2Zm47.61-178c.24-1,.86-2.38-.68-2.73-1.3-.3-1.79,1-2.12,2s-.5,1.89-.73,2.85q-2.62,11-5.23,21.93a10.36,10.36,0,0,0-.41,2.56,1.5,1.5,0,0,0,.93,1.08,1.53,1.53,0,0,0,1.34-.52,7.58,7.58,0,0,0,.73-2.15q1.57-6.18,3.1-12.36l-.08,0C206.2,168.66,207.28,164.43,208.31,160.2Zm-24.78,87.4a11.87,11.87,0,0,0-.67,2.18c-1.91,7.94-3.82,15.89-5.69,23.84-.25,1.07-1.14,2.61.52,3.08,2,.55,1.84-1.39,2.13-2.52q3.12-12.36,6.12-24.75a19.93,19.93,0,0,0,.29-2.94C184.58,245.92,184,246.66,183.52,247.6Zm9.66-5.48q-2.91,12-5.78,24c-.05.21-.17.46-.1.63.26.64.59,1.25.9,1.88a6.27,6.27,0,0,0,1.7-1.12,4.91,4.91,0,0,0,.57-1.84c1.77-7.38,3.57-14.76,5.28-22.15a22,22,0,0,0,.24-3.62C193.92,239.8,193.47,240.92,193.18,242.12Zm22.3-89q-2.88,11.88-5.71,23.76a3.2,3.2,0,0,0-.09,1.59,1.71,1.71,0,0,0,1,1.09,1.63,1.63,0,0,0,1.32-.67,7.12,7.12,0,0,0,.76-2.12c1.81-7.5,3.62-15,5.37-22.5a23.34,23.34,0,0,0,.26-3.57A2.63,2.63,0,0,0,215.49,153.13ZM170.81,331.39q-2.87,11.88-5.71,23.76c-.05.21-.18.47-.11.63.31.72.67,1.41,1,2.11a9.22,9.22,0,0,0,1.62-1.33,4.09,4.09,0,0,0,.47-1.54c1.8-7.5,3.62-15,5.37-22.5a23.27,23.27,0,0,0,.25-3.59A2.71,2.71,0,0,0,170.81,331.39Zm-100-23.55Q67.52,321,64.37,334.1a6.21,6.21,0,0,0,.23,2.07c2,.09,2.34-1.22,2.65-2.51,1-4.22,2-8.44,3.08-12.66.93-3.8,1.9-7.58,2.82-11.38.3-1.23.82-2.58-1.14-3.44C71.61,306.71,71,307.22,70.81,307.84Zm18.94-64c1.36-5.48,2.68-11,4-16.46.57-2.32,1.16-4.64,1.72-7a5.34,5.34,0,0,0,.32-1.91A5.13,5.13,0,0,0,95,217c-.55.38-1.27.66-1.61,1.18a7.11,7.11,0,0,0-.66,2.17c-1.86,7.59-3.73,15.19-5.55,22.79a33.87,33.87,0,0,0-.45,3.64C89.29,246.77,89.42,245.21,89.75,243.87Zm25.79-114.58q-3.21,12.8-6.28,25.63a8.9,8.9,0,0,0,.08,2.39c2.34,0,2.49-1.51,2.82-2.86,1.25-5.06,2.47-10.13,3.71-15.19.72-3,1.49-5.9,2.19-8.86.36-1.55.3-1.56-1.26-3.26A9.2,9.2,0,0,0,115.54,129.29ZM159.28,416.1a8.38,8.38,0,0,0,.44-2.23,4.78,4.78,0,0,0-.73-1.62,4.82,4.82,0,0,0-1.48.93,5.25,5.25,0,0,0-.64,1.83q-3,11.73-5.88,23.47c-.3,1.2-1.11,3,.48,3.42,1.76.52,1.74-1.49,2-2.63,1.07-4,2-8,3-12l-.06,0Q157.89,421.65,159.28,416.1ZM148.58,57.23a2,2,0,0,0-1.39-2.58A2,2,0,0,0,144.61,56a44,44,0,0,0-1.32,4.36c-.6,2.21-1.25,4.4-1.7,6.64a2.34,2.34,0,0,0,1.93,2.91c1.5.28,2.23-.59,2.57-1.88.48-1.79.91-3.59,1.36-5.38l-.19,0C147.7,60.83,148.19,59,148.58,57.23ZM43.25,458.67c-.32,1.73.34,3,1.54,3.12a2.29,2.29,0,0,0,2.62-1.94c1-3.56,2-7.14,2.86-10.73a2,2,0,0,0-1.77-2.61,2.12,2.12,0,0,0-2.73,1.67c-.49,1.79-.91,3.59-1.36,5.38l.09,0C44.07,455.29,43.56,457,43.25,458.67Zm-6.13-1.61c-.27,1.22-.28,2.49,1.16,3a2.13,2.13,0,0,0,2.81-1.55q1.6-5.61,2.82-11.32a2.1,2.1,0,0,0-1.78-2.65c-1.31-.2-1.92.72-2.21,1.89-.47,1.89-.94,3.77-1.42,5.66l-.13,0C37.95,453.71,37.49,455.38,37.12,457.07Zm111.17-35.81q-2.21,9.05-4.36,18.12a3.42,3.42,0,0,0,0,1.59,1.16,1.16,0,0,0,2,.43,7.37,7.37,0,0,0,1-2.38c1.36-5.5,2.71-11,4-16.53a19.07,19.07,0,0,0,.17-3.39C149.08,419,148.58,420.05,148.29,421.26ZM96.63,461.5c-1,3.58-1.83,7.18-2.7,10.78a3.24,3.24,0,0,0-.1,1.91c.32.7,1,1.59,1.61,1.69s1.56-.74,1.75-1.36c.88-2.8,1.54-5.68,2.27-8.52.48-1.88.95-3.77,1.47-5.86C97.56,459,97.28,459.09,96.63,461.5ZM197,78.61c.83-3.38,1.68-6.75,2.45-10.13.25-1.09.31-2.32-1.12-2.63a2,2,0,0,0-2.45,1.64c-1.12,4.2-2.21,8.4-3.18,12.64-.36,1.59-.1,1.71,3.33,2.33C196.36,81.08,196.67,79.84,197,78.61Zm-94.55,384c-1,3.77-1.87,7.56-2.76,11.36a3.46,3.46,0,0,0-.07,1.9,2.29,2.29,0,0,0,1.35,1.17c.39.11,1-.31,1.41-.55a.9.9,0,0,0,.32-.55c1.21-4.8,2.41-9.6,3.6-14.32C103.34,460.3,103,460.36,102.43,462.59ZM135.6,65.94c-.34,1.25,0,2.23,1.2,2.61a2.06,2.06,0,0,0,2.62-1.36,13.21,13.21,0,0,0,.59-1.86c.68-2.63,1.35-5.27,2-7.91a4.35,4.35,0,0,0,.28-2.22,3.75,3.75,0,0,0-1.68-2c-1.08-.48-1.86.36-2.15,1.4-.56,2-1,4-1.52,6h0C136.51,62.36,136.09,64.16,135.6,65.94ZM135.47,55c.4-1.91,0-2.8-1.35-3.09-1.68-.36-2,.87-2.29,2.06q-1.15,4.55-2.27,9.12a7.28,7.28,0,0,0-.22,1.28c-.08,1.29.24,2.51,1.66,2.73s1.81-.87,2.07-2c.4-1.68.83-3.35,1.25-5l-.11,0C134.65,58.38,135.12,56.71,135.47,55ZM37.31,445.17a2.34,2.34,0,0,0-.93-2c-.6-.19-1.54.38-2.19.82a2.6,2.6,0,0,0-.71,1.42c-.9,3.34-1.79,6.68-2.63,10-.28,1.12-.23,2.22,1.18,2.58s2.16-.54,2.48-1.84q.66-2.67,1.34-5.35l.11,0C36.44,449,37,447.08,37.31,445.17Zm7.08-31.88a5.94,5.94,0,0,0-.21,2.23,1.55,1.55,0,0,0,1.06,1c.38,0,1-.39,1.23-.78a4.6,4.6,0,0,0,.49-1.53q1.93-7.72,3.85-15.45a3.58,3.58,0,0,0,.3-1.57A10.46,10.46,0,0,0,50,395.14c-.5.48-1.29.88-1.46,1.46-.87,3-1.58,6.08-2.34,9.12h0C45.64,408.25,45,410.76,44.39,413.29ZM204.79,69.81c.26-1.07.11-2-1.14-2.26s-1.82.43-2.09,1.48c-1.09,4.19-2.14,8.38-3.23,12.57a1.61,1.61,0,0,0,1.23,2.23c1.24.35,1.79-.36,2.06-1.44l1.58-6.29h0C203.74,74,204.28,71.91,204.79,69.81Zm-24.34,52.47c1.08-4.1,2.11-8.21,3.15-12.32a4,4,0,0,0,.29-1.59c-.1-.55-.48-1.38-.85-1.45s-1.07.46-1.58.79c-.15.1-.2.38-.25.59-1.15,4.64-2.32,9.28-3.41,13.93-.27,1.16.13,2.14,1.73,2.43A23.21,23.21,0,0,0,180.46,122.28ZM116.18,465.76c.26-1,.28-2-1-2.39s-1.86.36-2.13,1.41c-1,4.1-2,8.22-3.05,12.33-.26,1.06-.07,2.08,1.12,2.33s1.71-.64,2-1.69c.52-2.11,1.05-4.21,1.58-6.32h0ZM214.94,72.28c.11-.59-.43-1.3-.67-2a6.46,6.46,0,0,0-2.08,1,5.07,5.07,0,0,0-.76,2.12q-1.19,4.58-2.33,9.17a5.05,5.05,0,0,0-.32,2.22,2.27,2.27,0,0,0,1.34,1.51,2,2,0,0,0,1.59-1.12c.69-2.17,1.17-4.41,1.72-6.62h0C213.93,76.51,214.54,74.41,214.94,72.28ZM203.76,82.79c-.24,1-.2,2,1,2.4s1.73-.54,2-1.55q1.56-6,3.09-12a1.8,1.8,0,0,0,.1-1c-.21-.56-.53-1.5-.85-1.52a2.26,2.26,0,0,0-1.85.76A19.75,19.75,0,0,0,206,73.61c-.3,1-.54,2.11-.8,3.16h0C204.76,78.78,204.24,80.78,203.76,82.79ZM111.14,464a1.45,1.45,0,0,0-1.12-2c-1.09-.25-1.64.31-1.88,1.26-1.06,4.2-2.15,8.39-3.08,12.62A2.38,2.38,0,0,0,106,478c1.11.58,1.82-.34,2.1-1.34.61-2.19,1.12-4.4,1.68-6.61l-.08,0C110.16,468,110.69,466,111.14,464Zm103-378.12c-.21.89-.17,1.9,1,2a2,2,0,0,0,1.66-1c1.23-4.36,2.34-8.76,3.38-13.17a1.7,1.7,0,0,0-.79-1.48,1.9,1.9,0,0,0-1.62.6,5.56,5.56,0,0,0-.85,2.06c-.46,1.67-.85,3.35-1.27,5h0C215.16,81.9,214.63,83.88,214.17,85.88ZM121.37,467c.21-.95.49-2-.84-2.44s-1.83.52-2.08,1.5c-1,3.91-1.91,7.83-2.83,11.75a2,2,0,0,0,0,1.28c.28.52.74,1.22,1.2,1.28a1.76,1.76,0,0,0,1.35-1c.66-2.19,1.16-4.42,1.72-6.64h0C120.43,470.79,120.93,468.9,121.37,467Zm37.22,17.69c.91-3.34,1.73-6.71,2.57-10.07a3.39,3.39,0,0,0,.24-1.58,7.71,7.71,0,0,0-1-1.76c-.56.38-1.4.64-1.63,1.16a25,25,0,0,0-1,3.75c-.64,2.52-1.24,5-1.92,7.55-.4,1.49-.47,2.77,1.65,3.5A16.92,16.92,0,0,0,158.59,484.68Zm-18-14.1c.24-1,.19-2-1.06-2.33s-1.7.58-1.94,1.61c-.86,3.68-1.73,7.36-2.58,11a3.28,3.28,0,0,0-.09,1.59,6.43,6.43,0,0,0,1,1.51c.56-.39,1.45-.68,1.62-1.19.69-2.16,1.16-4.38,1.71-6.58h0C139.62,474.35,140.12,472.47,140.56,470.57Zm-10.19,10.78c1.12-4.09,2.11-8.21,3.13-12.33a1.42,1.42,0,0,0,0-1c-.26-.42-.64-.95-1.05-1a1.76,1.76,0,0,0-1.41.46,3.29,3.29,0,0,0-.61,1.48c-.9,3.48-1.77,7-2.64,10.44-.33,1.31-.46,2.56,1.16,3.55C129.46,482.4,130.2,482,130.37,481.36ZM226,76a2.15,2.15,0,0,0-.8-1.82c-.95-.53-1.72.2-2,1.09q-1.63,6.12-3.1,12.28a1.44,1.44,0,0,0,1.16,2c1.19.2,1.46-.71,1.68-1.55.53-2,1-4,1.51-6h.05C225.06,80,225.64,78,226,76Zm17.09,5.77c-1.08,4.1-2.12,8.21-3,12.34-.11.5.58,1.17.9,1.77.59-.35,1.18-.7,1.77-1.07.07,0,.08-.19.11-.3,1-3.79,2-7.56,2.89-11.37.18-.79-.35-1.74-.56-2.62l-.88-.08C243.87,80.86,243.22,81.23,243.08,81.75Zm14.76,19c-.1.66.54,1.43.85,2.15.63-.49,1.64-.86,1.82-1.48,1.11-3.75,2-7.56,3-11.36a1.37,1.37,0,0,0,0-1,4.2,4.2,0,0,0-1.39-1.49c-.21-.11-1.14.62-1.29,1.11-.64,2.08-1.1,4.21-1.63,6.32h0C258.73,97,258.14,98.83,257.84,100.76ZM27,441.89c-1.06,3.66-2.07,7.33-3.09,11-.28,1-.37,2.16.89,2.34.54.08,1.59-.78,1.78-1.41,1.14-3.74,2.12-7.54,3.11-11.33.28-1.08-.13-1.88-1.62-2.4A9.08,9.08,0,0,0,27,441.89Zm111.3-14c-1,3.45-1.72,7-2.52,10.44a3,3,0,0,0-.06,1.59,1.73,1.73,0,0,0,1.08,1,1.83,1.83,0,0,0,1.28-.65,2.75,2.75,0,0,0,.43-1.21c.92-3.69,1.86-7.36,2.7-11.07a10.89,10.89,0,0,0,0-2.61l-1.15-.32A12,12,0,0,0,138.26,427.89Zm114.41-343c.11-.49-.37-1.12-.57-1.68-.61.3-1.64.48-1.77.93q-1.84,6.22-3.38,12.52c-.27,1.12.47,1.81,2.38,1.74C250.46,93.86,251.61,89.37,252.67,84.86Zm3,1.92c-1,4-2,8-2.94,12.06-.12.55.46,1.26.72,1.9.59-.32,1.56-.52,1.71-1,1.54-4.63,2.52-9.39,3.6-14.05C256.88,84.71,256.06,85.43,255.71,86.78Zm-23.94-9c.11-.6-.38-1.32-.59-2-.67.39-1.73.65-1.94,1.21a59.27,59.27,0,0,0-1.65,5.94c-.49,1.89-1,3.78-1.4,5.68-.24,1-.78,2.29.71,2.74s1.75-.87,2-1.91c.5-1.88,1-3.78,1.43-5.67h0C230.82,81.78,231.41,79.79,231.77,77.77ZM121.69,479.08c-.25,1-.15,2.16,1.1,2.22.53,0,1.44-.9,1.61-1.55,1.08-4,2-8,2.91-12a2.07,2.07,0,0,0-.71-1.82c-.92-.44-1.65.2-1.9,1.16-.55,2.09-1.06,4.19-1.59,6.29C122.63,475.3,122.14,477.19,121.69,479.08Zm23.41,3.83c1-3.66,1.87-7.38,2.76-11.07.25-1,.26-2.07-1.05-2.29-1.14-.19-1.39.78-1.61,1.65-1,3.79-2,7.58-2.87,11.38a7.89,7.89,0,0,0,.07,2.12l.89.46C143.91,484.42,144.86,483.76,145.1,482.91ZM232.84,91.59a2.11,2.11,0,0,0,.82,1.77c.91.52,1.67,0,1.93-1,1.1-4.18,2.2-8.37,3.18-12.58.12-.51-.51-1.2-.8-1.81-.59.37-1.55.63-1.72,1.14-.7,2.15-1.17,4.38-1.72,6.58l-.26-.06C233.78,87.59,233.19,89.57,232.84,91.59Zm-77.6,379.48c-1.49-.79-2.4-.37-2.73.91-1,4-2,8-2.94,12-.29,1.2.38,1.77,1.86,2.28Zm6,14.14c-.1.57.46,1.25.72,1.88.61-.34,1.52-.54,1.78-1.06a16.81,16.81,0,0,0,1-3.42q.92-3.64,1.8-7.28a4.47,4.47,0,0,0,.32-1.9,5.86,5.86,0,0,0-1.15-1.7c-.47.38-1.17.68-1.36,1.17a40.63,40.63,0,0,0-1.13,4.08c-.19.74-.37,1.48-.56,2.21h0C162.16,481.19,161.57,483.18,161.21,485.21ZM122,64.06c-.1.56.52,1.25.81,1.87.57-.39,1.51-.68,1.64-1.18,1.08-4.09,2-8.21,2.92-12.35.09-.41-.66-1.43-.91-1.39a2.22,2.22,0,0,0-1.63,1c-.65,2-1.06,4-1.56,6l.18,0C123,60.05,122.39,62,122,64.06Zm-4.68-.65c1-3.75,2-7.52,2.86-11.31a2.37,2.37,0,0,0-.71-2.09c-1-.45-1.5.45-1.74,1.36-1,3.77-2,7.53-2.82,11.32-.15.67.33,1.49.51,2.23h.85A5.56,5.56,0,0,0,117.36,63.42ZM20.22,439.5q-1.53,5.66-2.79,11.4c-.13.57.41,1.29.63,1.94.58-.37,1.55-.64,1.68-1.13,1.08-4.09,2-8.22,2.95-12.35.09-.41-.32-.92-.72-2C21.16,438.34,20.39,438.84,20.22,439.5Zm-6.41-2.59c-1,3.66-1.93,7.33-2.77,11-.13.59.16,1.74.55,1.9,1.08.45,1.46-.51,1.67-1.4q1.28-5.2,2.54-10.41c.23-1,.37-1.94-1-2.58A5.44,5.44,0,0,0,13.81,436.91ZM186.88,109.36c-.94,3.33-1.72,6.69-2.55,10.05a1.6,1.6,0,0,0,0,1c.21.44.51,1,.89,1.14a1.64,1.64,0,0,0,1.27-.63,4,4,0,0,0,.56-1.5c.71-2.72,1.45-5.43,2.08-8.16a19.08,19.08,0,0,0,.21-3.06l-.92-.49C187.86,108.23,187.06,108.71,186.88,109.36ZM107,48.75a9,9,0,0,0-1.33,1.8c-1.8,4.86-3,11.34-2.36,13.35C105.25,61.64,107.78,51.47,107,48.75ZM110.31,62c1-3.46,1.81-7,2.68-10.44.25-1,.45-2-1.06-2.1-1.52,2.39-3.78,11.6-2.86,14.56A8.42,8.42,0,0,0,110.31,62ZM9.28,433.73q-1.61,6.58-3,13.21c0,.2.51.53,1.08,1.09L11,433.43l-.54-.44C10,433.23,9.36,433.41,9.28,433.73Zm118.27,3.74c-.18,1.27,0,2.15,1.84,2.24,1.59-2.49,1.72-5.46,2.56-8.75C129,431.78,128.12,433.34,127.56,437.46Zm67.88-322.3a21.84,21.84,0,0,0,1-4.74c0-.32-.6-.94-1-1a1.68,1.68,0,0,0-1.34.56c-.85,1-1.52,5.56-.94,7.92C194.18,116.7,195.12,116,195.44,115.17ZM86.65,443a2.42,2.42,0,0,0,1.88,2.89,2.34,2.34,0,0,0,2.49-2c.19-1.3-.45-2-2.09-2.35A1.64,1.64,0,0,0,86.65,443Zm93-351.14A2.42,2.42,0,0,0,178,89.12a2.55,2.55,0,0,0-2.85,2c-.26,1.21.19,1.74,1.77,2.12S179.34,93.16,179.64,91.87Zm-87,352.6c-.27,1.45.33,2.61,1.5,2.8a2.39,2.39,0,0,0,2.58-2c.18-1.31-.5-2-2.32-2.47C93.67,442.64,92.9,443.11,92.65,444.47ZM185.32,93.34a2.39,2.39,0,0,0-1.74-2.73c-1.49-.3-2.13.61-2.36,3.55C184,95.13,185,94.89,185.32,93.34Zm-83.07,353.1a1.56,1.56,0,0,0-1.44-2,1.84,1.84,0,0,0-2.41,1.81,7.85,7.85,0,0,0,1.07,2.4A2.45,2.45,0,0,0,102.26,446.44ZM154.47,87a2.29,2.29,0,0,0-.81-3.42c-1.85.31-2.6,1.47-2.47,3.6C152.45,87.72,153.65,88.38,154.47,87Zm43.23,9.82A1.59,1.59,0,0,0,199,99c1.28.33,2-.18,2.2-1.65.17-1,.09-2-1.21-2.33C198.68,94.89,198,95.68,197.69,96.82Zm-5.32-1.39A1.71,1.71,0,0,0,194,97.66c1.15.13,2-.47,2-1.52,0-.88-.6-1.76-1.21-3.35C193.62,94,192.74,94.61,192.37,95.43Zm-2.62-3.12A2.14,2.14,0,0,0,187,93.84c-.43,1.47.2,2.05,2.88,2.54C191,93.77,191,92.79,189.76,92.31ZM155.36,456c.4-.79.34-1.91-.76-2.06a2.61,2.61,0,0,0-2.08,1c-.73,1.07-.51,2.24,1,3.42A14,14,0,0,0,155.36,456ZM203.27,98.86c-.1,1.14.67,1.52,1.56,1.7,1.19.24,2-.37,1.95-1.52a6,6,0,0,0-.85-2.08A2.14,2.14,0,0,0,203.27,98.86ZM57.72,434.7c-.4,1.28.4,3,1.37,2.86,2-.25,1.59-2,2-3.57C59.48,433.24,58.29,432.83,57.72,434.7Zm51.53,13.66c-.28,1.17,0,2.21,1.28,2.56,1.45.39,1.87-.66,2.14-1.78a1.55,1.55,0,0,0-1.29-2.16A1.61,1.61,0,0,0,109.24,448.35Zm-3.93,1.31a1.82,1.82,0,0,0,2.14-1.52c.35-1.17-.34-2.45-1.45-2.38a5.53,5.53,0,0,0-2,.91C103.55,448.4,104.19,449.49,105.31,449.66ZM62.95,436.84c0,1.13.31,2.4,1.66,2.25.67-.08,1.45-1.13,1.77-1.92.47-1.13-.32-1.8-1.42-2-.4-.08-.83-.08-1.58-.14A8.49,8.49,0,0,0,62.95,436.84ZM149,85.11c.24-1,.58-2.08-.74-2.4s-2,.55-2.39,1.66c-.48,1.37.19,2,1.5,2.22a7.49,7.49,0,0,0,1.17,0C148.73,85.92,148.89,85.52,149,85.11Zm-35-5.22a2.25,2.25,0,0,0,.64,2.09,1.56,1.56,0,0,0,2.27-1.1,9.21,9.21,0,0,0-.2-2.65l-.93-.35C115.17,78.53,114.29,79.1,114,79.89Zm1,369.64a1.84,1.84,0,0,0,1.28,2.54,1.87,1.87,0,0,0,2.06-1.66c.29-1.12-.23-1.84-2-2.17C116.1,448.5,115.32,448.9,115.06,449.53Zm33.49,7.93c.65-.61,1.51-1.1,1.88-1.85a1.23,1.23,0,0,0-1.07-1.86c-.77,0-1.52.67-2.77,1.29Zm91.58-344.23c1.14.5,1.76-.39,1.92-1.46s0-2.37-1.26-2.49c-.64-.06-1.39.92-2.48,1.71C239.07,112,239.45,112.93,240.12,113.23Zm-4.3-2.18c.31.13,1.34-.8,1.61-1.44.39-.93.18-2.13-1-2.19-.71,0-1.46.77-2.67,1.48C234.63,109.9,235.11,110.76,235.83,111ZM27.56,423.31a2,2,0,0,0,.82,2.82c1,.51,1.6-.35,1.94-1.19.5-1.2,0-2.32-1.5-2.79C28.51,422.43,27.81,422.77,27.56,423.31ZM54.31,432a2,2,0,0,0-1.55,1.1c-.37,1.06-.2,2.33,1.1,2.6.5.1,1.21-.82,1.39-1C55.78,433,55.64,432.06,54.31,432ZM214.56,101.49c.19-.93,0-1.8-1.05-2-1.21-.28-1.78.56-2,1.57s.24,1.64,1,1.73C213.86,103.05,214.37,102.43,214.56,101.49ZM123.44,451.07a1.64,1.64,0,0,0,.86,2.4,1.51,1.51,0,0,0,2-1.41c.08-.63-.48-1.35-.94-2.5C124.42,450.29,123.67,450.56,123.44,451.07ZM120.56,78.53c-.55.52-1.3.95-1.6,1.58s-.46,1.9.74,2c.61,0,1.28-.74,2.23-1.36Zm102.06,25.68a1.58,1.58,0,0,0-.91-2.33c-1.17-.36-1.87.5-2,1.48-.1.67.37,1.42.77,2.79C221.55,105.21,222.34,104.82,222.62,104.21Zm-82-20.34a1.74,1.74,0,0,0,.84,1.43,1.77,1.77,0,0,0,1.65-.4c.58-1,1-2.2-.16-3.23A2.25,2.25,0,0,0,140.63,83.86ZM32.78,428.13c.55-.55,1.43-1,1.54-1.66s-.59-1.35-.94-2l-2.13,1.67Zm6.72,2.69c.55-.55,1.46-1,1.55-1.66s-.55-1.45-1.09-1.93c-.17-.15-1.08.56-2,1.06Zm95.24,22.69c.31-.91-.27-1.62-1.3-1.78s-1.78.3-1.75,1.31a14.06,14.06,0,0,0,1,3.15C133.74,454.88,134.48,454.28,134.74,453.51ZM228.44,108c.58-.5,1.53-.92,1.64-1.51s-.59-1.36-.93-2.05l-2.35,1.38ZM46.52,433.32c.54-.43,1.3-.76,1.58-1.32.48-1,.22-2-1-2.2-.54-.07-1.17.56-2.17,1.1Zm94.15,23.19c.62-.48,1.57-.87,1.75-1.48s-.56-1.33-.88-2l-2.42,1.23ZM133.35,81.92a1.28,1.28,0,0,0,.92,2,1.34,1.34,0,0,0,1.8-1.32,14.7,14.7,0,0,0-.7-3.06A14.33,14.33,0,0,0,133.35,81.92ZM122.61,437.21c.17-.66-.29-1.48-.47-2.23-.63.43-1.5.72-1.82,1.31s0,1.42,0,2.16l.81.32C121.64,438.25,122.46,437.81,122.61,437.21ZM127,82.72a2.89,2.89,0,0,0,1.6-1.53c.15-.43-.52-1.14-.82-1.73l-2.51,1.77C126,82,126.69,82.83,127,82.72Zm74.86,30.65c.41.15,1.39-.45,1.69-1a1.2,1.2,0,0,0-1-1.88c-.59-.08-1.25.34-2.47.72C200.86,112.29,201.22,113.15,201.83,113.38Z"/><path class="cls-1" d="M78.64,265.7c-2.06,1.08-3,2.28-3.35,3.76-2.41,9.6-4.74,19.22-7.09,28.84a4.53,4.53,0,0,0,.13,1.21,4.86,4.86,0,0,0,3.39-3.6q3.54-13.75,6.94-27.53A12.59,12.59,0,0,0,78.64,265.7Z"/><path class="cls-1" d="M153.23,379.64a4.15,4.15,0,0,0-3.21,3.27c-2.24,8.87-4.5,17.74-6.7,26.62a15.2,15.2,0,0,0-.13,2.93,3.21,3.21,0,0,0,3.17-2.72c2.42-9.61,4.75-19.25,7.09-28.88C153.53,380.59,153.35,380.26,153.23,379.64Z"/><path class="cls-1" d="M198,201.43a3.92,3.92,0,0,0-3.25,3.17c-2.28,9-4.56,17.95-6.77,26.94a11.72,11.72,0,0,0,.09,2.93,4.3,4.3,0,0,0,3.1-3.21q3.53-14.27,7-28.57A4.73,4.73,0,0,0,198,201.43Z"/><path class="cls-1" d="M46,388.41a5.79,5.79,0,0,0,3.59-4.21c2.19-8.76,4.43-17.5,6.6-26.27a16.88,16.88,0,0,0,.13-3,5.36,5.36,0,0,0-3.47,3.86c-2.33,9.28-4.6,18.58-6.86,27.88A8.26,8.26,0,0,0,46,388.41Z"/><path class="cls-1" d="M168.32,295.15a4.2,4.2,0,0,0-3.19,3.28c-2.27,9-4.54,17.94-6.76,26.93a11.53,11.53,0,0,0,0,2.6,3.09,3.09,0,0,0,3.12-2.67c2.42-9.61,4.74-19.24,7.07-28.86A4.29,4.29,0,0,0,168.32,295.15Z"/><path class="cls-1" d="M75.78,293.11c2.34-1.33,3.39-2.57,3.84-4.37,2.22-8.86,4.47-17.71,6.68-26.58a14.89,14.89,0,0,0,.12-2.73c-2.51.89-3.25,2.61-3.72,4.52q-2.18,8.7-4.34,17.41c-.63,2.53-1.29,5.06-1.88,7.6C76.22,290.08,76.09,291.24,75.78,293.11Z"/><path class="cls-1" d="M90.71,210.16A5.78,5.78,0,0,0,94.3,206c2.19-8.76,4.43-17.5,6.6-26.27a16.7,16.7,0,0,0,.13-3,5.39,5.39,0,0,0-3.47,3.87q-3.49,13.93-6.86,27.88A8.06,8.06,0,0,0,90.71,210.16Z"/><path class="cls-1" d="M161.32,373.16c-2.43,1.27-3.43,2.55-3.88,4.34-2.22,8.85-4.47,17.68-6.67,26.54a15.08,15.08,0,0,0-.13,2.72c2.52-.84,3.25-2.57,3.73-4.48,1.3-5.16,2.57-10.32,3.86-15.49.76-3.06,1.55-6.1,2.27-9.17C160.79,376.41,161,375.15,161.32,373.16Z"/><path class="cls-1" d="M136,417.49c2.12-.92,2.92-2,3.27-3.43q3.4-13.75,6.76-27.51a11.65,11.65,0,0,0,.07-2.29,4.22,4.22,0,0,0-3.35,3.44c-2.22,8.84-4.47,17.68-6.66,26.53A17.36,17.36,0,0,0,136,417.49Z"/><path class="cls-1" d="M190.76,205.93a4.67,4.67,0,0,0-3.37,3.66c-2.19,8.74-4.42,17.47-6.58,26.22a16.5,16.5,0,0,0-.08,3.31,4.13,4.13,0,0,0,3.15-3.12q3.54-14.22,7-28.46A6.69,6.69,0,0,0,190.76,205.93Z"/><path class="cls-1" d="M195.43,228.63a5.23,5.23,0,0,0,3.38-3.8q3.46-13.74,6.78-27.51a10.22,10.22,0,0,0,0-2,5.07,5.07,0,0,0-3.47,3.82q-3.41,13.41-6.76,26.85A12.07,12.07,0,0,0,195.43,228.63Z"/><path class="cls-1" d="M108.9,169.94c-2.35,1.28-3.27,2.55-3.67,4.17q-3.42,13.77-6.78,27.56a17.49,17.49,0,0,0-.19,2.14,6.24,6.24,0,0,0,3.75-4.43c2.17-8.65,4.37-17.29,6.52-25.95A29.21,29.21,0,0,0,108.9,169.94Z"/><path class="cls-1" d="M53.76,381.91a5.75,5.75,0,0,0,3.56-4.21c2.2-8.75,4.43-17.5,6.6-26.27a16.67,16.67,0,0,0,.1-3.1,5.81,5.81,0,0,0-3.44,4q-3.44,13.77-6.78,27.56A10,10,0,0,0,53.76,381.91Z"/><path class="cls-1" d="M166.65,323.56c.71-1,1.78-1.94,2.07-3.07,2.45-9.57,4.75-19.17,7.08-28.77a3.71,3.71,0,0,0-.2-1.16,3.84,3.84,0,0,0-3.22,3.14q-3.41,13.41-6.75,26.84a11.56,11.56,0,0,0,0,2.7Z"/><path class="cls-1" d="M174.16,317.69c.77-1.23,1.92-2.37,2.27-3.72,2.4-9.26,4.63-18.57,6.9-27.87a8.94,8.94,0,0,0,0-1.8,5.53,5.53,0,0,0-3.58,4.12c-2.21,8.75-4.43,17.5-6.6,26.26a14.18,14.18,0,0,0-.16,2.66Z"/><path class="cls-1" d="M203.05,150.11a5.14,5.14,0,0,0,3.34-3.8c2.12-8.53,4.26-17.06,6.33-25.6a15.89,15.89,0,0,0,.12-3.1,2.79,2.79,0,0,0-3,2.49q-3.41,13.41-6.75,26.84A15.62,15.62,0,0,0,203.05,150.11Z"/><path class="cls-1" d="M155.91,318.46c-3.09,3.44-5.38,10.93-4.47,13.59a2.66,2.66,0,0,0,2.35-2.29C154.54,326.24,155.13,322.68,155.91,318.46Z"/><path class="cls-1" d="M196.34,154.3c4-4,2.75-9,4.3-13.65-1.89,1.35-2.14,1.82-3.7,6.37S195.37,151.71,196.34,154.3Z"/><path class="cls-1" d="M94.61,253.55c-3.6,1.43-4.71,4.77-4.8,13.3A40.38,40.38,0,0,0,94.61,253.55Z"/><path class="cls-1" d="M71.44,342.22c-4.31,4-3.29,9.1-4.54,13.9C69.48,353.73,72.15,345.78,71.44,342.22Z"/><path class="cls-1" d="M116.18,164c-4.4,4-3.33,9.08-4.59,13.81C114.06,175.67,116.78,167.74,116.18,164Z"/><path class="cls-1" d="M173.83,242.78c2.62-1.38,3.77-5.12,3.73-12.86a33.67,33.67,0,0,0-4.14,10.23C173.18,241.07,172.75,242.06,173.83,242.78Z"/><path class="cls-1" d="M133,407.6a40,40,0,0,0-4.4,11.53,6,6,0,0,0,.35,2.09C131.75,419.55,133.16,414.76,133,407.6Z"/><path class="cls-1" d="M183.41,210.26c-3.29,1.33-4.64,5.69-3.74,11.21A25.23,25.23,0,0,0,183.41,210.26Z"/><path class="cls-1" d="M109.49,186l-3.62,11.29C109.6,196.3,111.23,191.44,109.49,186Z"/><path class="cls-1" d="M87.7,274.34c-1.81,4.33-3.35,8-3.77,12.13C87.39,284.9,88.65,281,87.7,274.34Z"/><path class="cls-1" d="M61.4,375.8c3.69-2,5-6.3,3.9-11.89A44.06,44.06,0,0,0,61.4,375.8Z"/><path class="cls-1" d="M135.15,399.8a30.91,30.91,0,0,0,3.6-11.21C135.45,389.72,134.2,393.59,135.15,399.8Z"/><path class="cls-1" d="M205.23,121c-.75.62-1.87,1.08-2.19,1.87a17.89,17.89,0,0,0-1,9.63C203.91,129,205.36,125.4,205.23,121Z"/><path class="cls-1" d="M161.09,299.52c-3.3,1.09-4.54,4.95-3.83,11.09C159,308.39,160.45,304.37,161.09,299.52Z"/></g></g></svg>