<svg xmlns="http://www.w3.org/2000/svg" viewBox="0 0 121 40"><defs><style>.cls-1{isolation:isolate;}.cls-2{fill:#fff;}</style></defs><title>Ресурс 1</title><g id="Слой_2" data-name="Слой 2"><g id="Слой_1-2" data-name="Слой 1"><g class="cls-1"><path class="cls-2" d="M116,.8A4.2,4.2,0,0,1,120.2,5V35a4.2,4.2,0,0,1-4.2,4.2H5A4.2,4.2,0,0,1,.8,35V5A4.2,4.2,0,0,1,5,.8H116m0-.8H5A5,5,0,0,0,0,5V35a5,5,0,0,0,5,5H116a5,5,0,0,0,5-5V5a5,5,0,0,0-5-5Z"/></g><g id="_Group_2" data-name=" Group 2"><g id="_Group_3" data-name=" Group 3"><path id="_Path_" data-name=" Path " class="cls-2" d="M26,18.89a5.15,5.15,0,0,1,2.45-4.32,5.27,5.27,0,0,0-4.15-2.24c-1.75-.18-3.44,1-4.33,1s-2.28-1-3.75-1a5.53,5.53,0,0,0-4.65,2.84c-2,3.48-.51,8.6,1.42,11.41,1,1.38,2.09,2.92,3.56,2.86s2-.92,3.72-.92,2.23.92,3.73.89,2.52-1.38,3.45-2.78A11.4,11.4,0,0,0,29,23.46,5,5,0,0,1,26,18.89Z"/><path id="_Path_2" data-name=" Path 2" class="cls-2" d="M23.16,10.48a5.07,5.07,0,0,0,1.16-3.63A5.16,5.16,0,0,0,21,8.57a4.82,4.82,0,0,0-1.19,3.5A4.26,4.26,0,0,0,23.16,10.48Z"/></g></g><path class="cls-2" d="M43.3,22.14H38.57L37.43,25.5h-2l4.48-12.42H42L46.48,25.5h-2Zm-4.24-1.55h3.75L41,15.14h-.05Z"/><path class="cls-2" d="M56.16,21c0,2.81-1.51,4.62-3.78,4.62A3.07,3.07,0,0,1,49.53,24h0v4.48H47.63v-12h1.8v1.51h0a3.21,3.21,0,0,1,2.88-1.6C54.64,16.35,56.16,18.16,56.16,21Zm-1.91,0c0-1.83-.95-3-2.39-3s-2.37,1.23-2.37,3,1,3,2.38,3,2.39-1.2,2.39-3Z"/><path class="cls-2" d="M66.12,21c0,2.81-1.51,4.62-3.78,4.62A3.07,3.07,0,0,1,59.5,24h0v4.48H57.6v-12h1.8v1.51h0a3.21,3.21,0,0,1,2.88-1.6C64.61,16.35,66.12,18.16,66.12,21Zm-1.91,0c0-1.83-.95-3-2.39-3s-2.37,1.23-2.37,3,1,3,2.38,3S64.21,22.82,64.21,21Z"/><path class="cls-2" d="M72.71,22c.14,1.23,1.33,2,3,2s2.69-.81,2.69-1.92-.68-1.54-2.29-1.94l-1.61-.39c-2.28-.55-3.34-1.62-3.34-3.35,0-2.14,1.87-3.61,4.52-3.61s4.42,1.47,4.48,3.61H78.26c-.11-1.24-1.14-2-2.63-2s-2.52.76-2.52,1.86c0,.88.65,1.39,2.25,1.79l1.37.34c2.55.6,3.61,1.63,3.61,3.44,0,2.32-1.85,3.78-4.79,3.78-2.75,0-4.61-1.42-4.73-3.67Z"/><path class="cls-2" d="M84.35,14.3v2.14h1.72v1.47H84.35v5c0,.78.34,1.14,1.1,1.14a5.81,5.81,0,0,0,.61,0v1.46a5.1,5.1,0,0,1-1,.09c-1.83,0-2.55-.69-2.55-2.44V17.91H81.16V16.44h1.32V14.3Z"/><path class="cls-2" d="M87.06,21c0-2.85,1.68-4.64,4.29-4.64s4.29,1.79,4.29,4.64S94,25.61,91.36,25.61,87.06,23.83,87.06,21Zm6.7,0c0-2-.9-3.11-2.4-3.11S89,19,89,21s.9,3.11,2.4,3.11,2.4-1.14,2.4-3.11Z"/><path class="cls-2" d="M97.18,16.44H99V18h0a2.16,2.16,0,0,1,2.18-1.64,2.87,2.87,0,0,1,.64.07v1.74A2.6,2.6,0,0,0,101,18,1.87,1.87,0,0,0,99,20.13V25.5H97.18Z"/><path class="cls-2" d="M110.38,22.84c-.25,1.64-1.85,2.77-3.9,2.77-2.63,0-4.27-1.76-4.27-4.6s1.64-4.68,4.19-4.68,4.08,1.72,4.08,4.47v.64h-6.39v.11a2.36,2.36,0,0,0,2.14,2.56h.29a2,2,0,0,0,2.09-1.27Zm-6.28-2.7h4.53a2.18,2.18,0,0,0-2.05-2.29h-.17a2.29,2.29,0,0,0-2.31,2.28S104.1,20.13,104.1,20.13Z"/></g></g></svg>