<svg xmlns="http://www.w3.org/2000/svg" viewBox="0 0 89.11 71.89"><defs><style>.cls-1{opacity:0.5;}.cls-2{fill:#fff;}</style></defs><title>adРесурс 4</title><g id="Слой_2" data-name="Слой 2"><g id="Слой_1-2" data-name="Слой 1"><g class="cls-1"><path class="cls-2" d="M25.36,0,8.49,48.18c-.49,1.3-.81,2.36-.89,2.6A38.3,38.3,0,0,1,4.75,57a11.56,11.56,0,0,1-4.54,4.7v.57H17.65v-.57c-3.16-.81-4.7-3.24-4.7-7.62a52.36,52.36,0,0,1,1.7-11.92H30.71l2.19,7.55c.08.32.24.81.4,1.29a22,22,0,0,1,1.22,6.17c0,2.67-1.38,4.06-4.46,4.54v.57H66.39c5.76,0,9.82-1.38,13.38-4.54,5.84-5.11,9.33-14.6,9.33-25.23,0-7.87-1.95-15.17-5.43-20.28-3.08-4.54-6.33-6.9-11.36-8.19a50.49,50.49,0,0,0-11.52-1.3H44.41v.57C48.79,4.54,50,6.25,50,11.52V47.29c0,7.48-.62,11.07-2.68,12.91a22.37,22.37,0,0,1-3-5.61c-.89-1.95-2.19-5.28-2.51-6.33ZM59,5.19c10.38.49,15.66,4.22,18.57,13.39,1.05,3.4,1.54,7.62,1.54,14.36,0,10.54-1,15.41-4.22,20.12-3.41,5.11-7.38,6.9-15.9,7.06ZM19.28,24.25l.81-2.76.81-2.68.89-2.68c0-.16.24-.89.49-1.78L29.9,39.58H15.22c1.13-4.79,2.84-11.27,4.06-15.33M87.62,66.71a.46.46,0,0,1-.41.19h-3a.41.41,0,0,1-.41-.19h-.14l-.1,1.43h.27c.2-.87.34-.9,1.12-.9h.26v3.39c0,.82-.06.87-.62.91v.24h2.22v-.24c-.56,0-.62-.1-.62-.91V67.24h.3c.79,0,.94.09,1.09.9l.27,0-.08-1.41Zm-46.8,0a.46.46,0,0,1-.41.19h-3a.41.41,0,0,1-.41-.19h-.14l-.09,1.43H37c.2-.87.34-.9,1.13-.9h.27v3.39c0,.82-.06.87-.62.91v.24H40v-.24c-.56,0-.62-.1-.62-.91V67.24h.3c.79,0,.94.09,1.09.9l.27,0L41,66.71Zm-13.72,0a.47.47,0,0,1-.41.19h-3a.41.41,0,0,1-.41-.19h-.14L23,68.14h.27c.2-.87.34-.9,1.13-.9h.27v3.39c0,.82-.06.87-.62.91v.24h2.22v-.24c-.56,0-.62-.1-.62-.91V67.24H26c.78,0,.94.09,1.09.9l.27,0-.08-1.41Zm26.75.19-1.52,3.86c-.26.68-.36.73-.82.78v.23h1.7v-.23l-.19,0c-.22,0-.3-.06-.3-.19a1,1,0,0,1,.06-.3c.08-.28.19-.64.28-.88H54.4l.36.92a.75.75,0,0,1,.06.26c0,.13-.06.15-.25.18l-.2,0v.23h2.06v-.23c-.4,0-.53-.1-.79-.81l-1.43-4Zm-.15,1.31h0l.55,1.54h-1.1ZM2.33,66.9.81,70.76c-.26.68-.36.73-.81.78v.23H1.7v-.23l-.19,0c-.22,0-.3-.06-.3-.19a1,1,0,0,1,.06-.3c.08-.28.19-.64.29-.88H2.88l.35.92a.74.74,0,0,1,.07.26c0,.13-.07.15-.25.18l-.2,0v.23H4.91v-.23c-.41,0-.53-.1-.79-.81l-1.43-4Zm-.15,1.31h0l.55,1.54H1.66Zm77.93,0c0,.81.68,1.22,1.32,1.49s.85.5.85,1a.75.75,0,0,1-.77.8c-.74,0-1.17-.8-1.3-1.21l-.26.09c.08.45.17,1,.23,1.16a3.07,3.07,0,0,0,1.21.29,1.61,1.61,0,0,0,1.77-1.56A1.56,1.56,0,0,0,82,68.87c-.7-.29-1.06-.54-1.06-1a.71.71,0,0,1,.73-.75c.64,0,.86.54,1,1L83,68,82.8,67a3,3,0,0,0-1-.2,1.51,1.51,0,0,0-1.67,1.47m-9.6,1.13a2.51,2.51,0,0,0,2.82,2.5,5.54,5.54,0,0,0,1.64-.3,3.58,3.58,0,0,1,0-.68v-.51c0-.53,0-.55.41-.61v-.27h-2.2v.27c.79.06.82.11.82.62v.68c0,.42-.25.48-.57.48-1.28,0-1.76-1.13-1.76-2.3,0-1.34.68-2.13,1.64-2.13a1.29,1.29,0,0,1,1.41,1.13l.26,0L74.83,67a5.89,5.89,0,0,0-1.44-.2,2.62,2.62,0,0,0-2.88,2.6m-38.58,0a2.48,2.48,0,0,0,2.8,2.49,6.55,6.55,0,0,0,1.41-.21,11.12,11.12,0,0,0,.38-1.28l-.27-.05c-.39.8-.77,1.22-1.52,1.22-1,0-1.68-.93-1.68-2.32,0-1.08.54-2.11,1.69-2.11a1.26,1.26,0,0,1,1.35,1.12l.27,0L36.22,67a5.35,5.35,0,0,0-1.35-.2,2.68,2.68,0,0,0-2.94,2.62m-22.09,0a2.48,2.48,0,0,0,2.8,2.49A6.55,6.55,0,0,0,14,71.68a11.09,11.09,0,0,0,.38-1.28l-.27-.05c-.39.8-.77,1.22-1.53,1.22-1,0-1.68-.93-1.68-2.32,0-1.08.54-2.11,1.69-2.11.64,0,1.1.24,1.35,1.12l.27,0L14.13,67a5.29,5.29,0,0,0-1.34-.2,2.68,2.68,0,0,0-2.94,2.62m65.87-2.5v.24c.56,0,.62.1.62.91v2.58c0,.82-.06.87-.62.91v.24h3.66c.07-.2.21-1,.25-1.26l-.26-.05c-.29.77-.37,1-1.23,1s-.82,0-.82-.81V69.42h.54c.64,0,.66,0,.74.63h.27V68.41H78.6c-.08.59-.1.62-.74.62h-.54V67.46c0-.21,0-.22.25-.22h.34c.75,0,.91,0,1.09.86l.27,0-.08-1.18Zm-7.93,0v.24c.56,0,.62.1.62.91v2.58c0,.82-.06.87-.62.91v.24H70v-.24c-.56,0-.62-.1-.62-.91V68c0-.82.06-.87.62-.91V66.9Zm-5.57,0v.24c.56,0,.62.1.62.91v2.58c0,.82-.06.87-.62.91v.24h1.87c1.76,0,3.19-.8,3.19-2.65,0-.62-.28-2.22-2.78-2.22Zm1.59,3.68V67.65c0-.41,0-.43.48-.43,1.28,0,1.88.74,1.88,2.12s-.67,2.1-1.75,2.1c-.6,0-.61-.26-.61-.85M56.49,66.9v.24c.56,0,.62.1.62.91v2.58c0,.82-.06.87-.62.92v.23h3.65a12.18,12.18,0,0,0,.26-1.26l-.26-.05c-.29.77-.37,1-1.23,1s-.82,0-.82-.81V68c0-.82.06-.87.62-.91V66.9Zm-9.7,0v.24c.56,0,.62.1.62.91v2.58c0,.82-.06.87-.62.91v.24H49v-.24c-.56,0-.62-.1-.62-.91v-1h.18A.42.42,0,0,1,49,70c.74,1.49.87,1.81,2.1,1.87h.27v-.22a.83.83,0,0,1-.44-.31,13.2,13.2,0,0,1-1.2-1.92,1.32,1.32,0,0,0,1-1.27c0-1.07-1-1.22-1.72-1.22Zm1.59.64c0-.15,0-.23.05-.28a.66.66,0,0,1,.33,0,.93.93,0,0,1,.94,1,1,1,0,0,1-1,1.15h-.28Zm-3.71-.64v.24c.29,0,.68,0,.72.39A10.94,10.94,0,0,1,45.47,69v.49c0,.93-.21,2-1.3,2S43,70.47,43,69.6V68c0-.82.06-.87.62-.91V66.9H41.38v.24c.56,0,.62.1.62.91v1.7c0,.79.06,2.14,1.94,2.14,1.05,0,1.93-.6,1.93-2.27V69a10.93,10.93,0,0,1,.07-1.43c0-.27.22-.37.6-.38V66.9Zm-17,0v.24c.56,0,.62.1.62.91v2.58c0,.82-.06.87-.62.91v.24h3.65c.07-.2.21-1,.26-1.26l-.26-.05c-.29.77-.38,1-1.23,1s-.82,0-.82-.81V69.42h.54c.64,0,.66,0,.74.63h.27V68.41h-.27c-.08.59-.1.62-.74.62h-.54V67.46c0-.21,0-.22.26-.22h.34c.75,0,.91,0,1.09.86l.27,0-.08-1.18Zm-7.24,0v.24c.56,0,.61.1.61.91v2.58c0,.82-.06.87-.61.91v.24h2.21v-.24c-.56,0-.62-.1-.62-.91V68c0-.82.06-.87.62-.91V66.9Zm-2.66,0v.24c.56,0,.62.1.62.91v1H16.33V68c0-.82.06-.87.61-.91V66.9H14.73v.24c.56,0,.62.1.62.91v2.58c0,.82-.06.87-.62.91v.24h2.21v-.24c-.56,0-.61-.1-.61-.91V69.4H18.4v1.23c0,.82-.06.87-.62.91v.24H20v-.24c-.56,0-.62-.1-.62-.91V68c0-.82.06-.87.62-.91V66.9ZM5,66.9v.24c.56,0,.62.1.62.91v2.58c0,.82-.06.87-.62.91v.24H7.19v-.24c-.56,0-.62-.1-.62-.91v-1h.18c.23,0,.33.06.45.3.74,1.49.88,1.81,2.1,1.87h.27v-.22a.81.81,0,0,1-.44-.31,13,13,0,0,1-1.2-1.92,1.32,1.32,0,0,0,1-1.27c0-1.07-1-1.22-1.72-1.22Zm1.6.64c0-.15,0-.23.05-.28a.65.65,0,0,1,.32,0,.93.93,0,0,1,.94,1,1,1,0,0,1-1,1.15H6.57Z"/></g></g></g></svg>