<svg xmlns="http://www.w3.org/2000/svg" viewBox="0 0 106.59 55.24"><defs><style>.cls-1{fill:#666;}</style></defs><title>bc-liteРесурс 11</title><g id="Слой_2" data-name="Слой 2"><g id="Layer_1" data-name="Layer 1"><path class="cls-1" d="M10.33,13.34a4.42,4.42,0,0,0,2.34-4V6c0-3.08-2-5.6-5.88-5.6H0V1.68l1.56.68V24.9L0,25.58v1.28H7.31c3.88,0,5.88-2.52,5.88-5.6V17.59A4.47,4.47,0,0,0,10.33,13.34ZM4.84,3.08H6.71A2.6,2.6,0,0,1,9.39,5.84V9.51a2.62,2.62,0,0,1-2.68,2.76H4.84ZM9.91,21.42a2.6,2.6,0,0,1-2.68,2.76H4.84V14.67h2.4a2.62,2.62,0,0,1,2.68,2.76Z"/><path class="cls-1" d="M22.54,2.36c-3.88,0-5.88,2.52-5.88,5.6V21.66c0,3.08,2,5.6,5.88,5.6s5.88-2.52,5.88-5.6V8C28.42,4.88,26.42,2.36,22.54,2.36Zm2.68,19.46a2.68,2.68,0,1,1-5.36,0v-14a2.68,2.68,0,1,1,5.36,0Z"/><polygon class="cls-1" points="39.37 2.76 39.37 4.04 40.76 4.73 37.97 14.36 35.47 4.69 36.77 4.04 36.77 2.76 30.66 2.76 30.66 4.04 32.21 4.72 32.22 4.72 36.17 17.59 36.17 24.9 34.17 25.58 34.17 26.86 41.37 26.86 41.37 25.58 39.37 24.9 39.37 17.59 43.32 4.72 43.32 4.72 44.88 4.04 44.88 2.76 39.37 2.76"/><polygon class="cls-1" points="106.19 2.76 93.96 2.76 93.56 10.51 94.84 10.51 96.36 5.04 98.48 5.04 98.48 24.9 96.48 25.58 96.48 26.86 103.67 26.86 103.67 25.58 101.67 24.9 101.67 5.04 103.79 5.04 105.31 10.51 106.59 10.51 106.19 2.76"/><path class="cls-1" d="M86.09,4l1.16.68V21.82a2.68,2.68,0,1,1-5.36,0V4.72L83.25,4V2.76H77.13V4l1.56.68V21.66c0,3.08,2,5.6,5.88,5.6,3.52,0,5.36-2.52,5.36-5.6V4.72L91.52,4V2.76H86.09Z"/><path class="cls-1" d="M74.86,0h-3.2V.87A4.27,4.27,0,0,0,69,0c-3.88,0-5.88,2.52-5.88,5.6V21.66c0,3.08,2,5.6,5.88,5.6,3.44,0,5.52-2.12,5.52-5.44v-5H71.66v5A2.52,2.52,0,0,1,69,24.58a2.6,2.6,0,0,1-2.68-2.76V5.44a2.68,2.68,0,1,1,5.36,0V8.75h2.4Z"/><circle class="cls-1" cx="52.48" cy="14.82" r="3.21"/><path class="cls-1" d="M78.14,41.3,78,41.17V36.12H28.57v4.77l-.13.13a6.43,6.43,0,0,0,0,9l.13.13v5.05H78V50.48l.13-.13a6.43,6.43,0,0,0,0-9ZM44.49,50.64h-8l.89-1.2v-8l-.89-1.2h4.72l-.89,1.2v7.35h2.74L44.49,47Zm6.12,0H45.79l.89-1.2v-8l-.89-1.22h4.82l-.88,1.22v8Zm10.14-7-1.31-1.53H57.83v7.34l.89,1.22H54l.91-1.22V42.09H53.27L52,43.61V40.27h8.8Zm9.14-.29-1.12-1.25H65.83v2.45h1.69l1.1-.47v2.56l-1.1-.47H65.83v2.68h2.94l1.12-1.25v3.07H62l.89-1.2v-8L62,40.27h7.87Z"/></g></g></svg>