<svg xmlns="http://www.w3.org/2000/svg" viewBox="0 0 225.53 215.14"><defs><style>.cls-1{opacity:0.2;}.cls-2{fill:#333a40;}</style></defs><title>cutРесурс 2</title><g id="Слой_2" data-name="Слой 2"><g id="Слой_1-2" data-name="Слой 1"><g class="cls-1"><path class="cls-2" d="M82.6,96.49a7.06,7.06,0,0,0,0-.77c-.36-5.85,1-11.54,1.66-17.29,1-8.55,2.21-17.09,3.31-25.63Q89.05,41.42,90.46,30,92.24,15.9,94,1.77c.21-1.69.91-2.09,2.51-1.53a5.63,5.63,0,0,1,4,5.33c.14,2.06.14,4.13.18,6.2q.21,11.27.4,22.55.16,9.63.31,19.25.19,11.41.39,22.81.21,12.13.41,24.26a78.8,78.8,0,0,1-.4,12.24,1.69,1.69,0,0,0,.76,1.7c2.75,2.12,5.45,4.31,8.29,6.31,2,1.44,4.23,2.67,6.41,3.91A28,28,0,0,0,128,128.23a32.13,32.13,0,0,1,3.5.64,5.56,5.56,0,0,1,3.34,2.2c1,1.42,2,2.9,3.1,4.26a21.15,21.15,0,0,0,17.76,8.18,29.55,29.55,0,0,0,6.26-.8,24.16,24.16,0,0,1,15,1,22.66,22.66,0,0,1,11.5,9.65,18.42,18.42,0,0,1,2.63,11.5c-.1,1-.11,1.93-.14,2.9a5.66,5.66,0,0,0,2.7,5,14.12,14.12,0,0,0,6.8,2.3,33.55,33.55,0,0,0,10.6-.79A67.35,67.35,0,0,0,221.26,171c1.38-.53,1.67-.42,2.51.8A24.45,24.45,0,0,1,225.2,174c.56,1,.46,1.53-.6,2a42.77,42.77,0,0,1-4.87,2,121.24,121.24,0,0,1-24.81,5.3,96.17,96.17,0,0,1-15.79.53A52.51,52.51,0,0,1,163,180.78a27.69,27.69,0,0,1-8.33-4.71,23.83,23.83,0,0,1-6-7.91c-1.51-3.18-2.91-6.41-4.46-9.57a67.77,67.77,0,0,0-6.46-10.84,39.6,39.6,0,0,0-10.66-9.52,49.73,49.73,0,0,0-14.68-6.09c-4.6-1.17-9.24-2.19-13.86-3.27-1.11-.26-1.22-.24-1.61.93-1,3.08-2.07,6.17-3,9.28A97.25,97.25,0,0,0,90,158.56a48.08,48.08,0,0,0,1.64,18.79,49,49,0,0,0,2.08,5.4,36.38,36.38,0,0,1,2.48,7.49,11.11,11.11,0,0,0,1.11,2.94,4.42,4.42,0,0,0,3,2.18c.38.09.78.12,1.17.18a4.47,4.47,0,0,1,3.9,5,5,5,0,0,1-4.14,4.8,3.36,3.36,0,0,1-2.42-.42c-2.06-1.36-4-.86-5.72.49A28.15,28.15,0,0,0,90,208.18a22.18,22.18,0,0,1-7.27,5.15,19.06,19.06,0,0,1-12.1,1.35,16.35,16.35,0,0,1-11.1-8.41c-2.79-5.22-2.88-10.67-1-16.21a24.93,24.93,0,0,1,6.9-10.3c2.61-2.42,5.27-4.79,7.76-7.32a30,30,0,0,0,7.51-13.73,89.62,89.62,0,0,0,2.42-13,109.53,109.53,0,0,0,.6-15.27c-.06-2.24-.22-4.48-.28-6.72a1.81,1.81,0,0,0-.86-1.63c-5.21-3.43-9.59-7.83-14.22-12-3.12-2.78-6.2-5.59-9.32-8.37-4-3.54-8-7.06-11.92-10.6Q33.53,79.07,20,66.92,11.25,59.08,2.57,51.17A12.09,12.09,0,0,1,.81,49.06a5.67,5.67,0,0,1,0-5.89,1.4,1.4,0,0,1,2.07-.38C4,43.49,5.11,44.23,6.21,45L41.84,68.79l26,17.35C71.24,88.41,74.65,90.66,78,93a33.19,33.19,0,0,1,2.61,2.2l1.58,1.33Zm65.11,64.23a1.78,1.78,0,0,0-.18-1.84,84.89,84.89,0,0,0-5.38-9.8,43.89,43.89,0,0,0-8.15-9.43,55.81,55.81,0,0,0-14.17-8.26c-4-1.63-8.17-2.42-12.29-3.48-4.75-1.23-9.61-2-14.24-3.74a45.23,45.23,0,0,1-6.48-2.89,50,50,0,0,1-8.67-6.17c-2.43-2.16-4.83-4.36-7.24-6.53-1.57-1.42-3.14-2.82-4.69-4.25a11.37,11.37,0,0,1-.9-1.12l1.61.08c.57,0,1.14.08,1.7,0a8.14,8.14,0,0,0,5.95-3.23c.68-.8,1.43-1.55,2.18-2.29.13-.13.43-.1.9-.2a9,9,0,0,1-.6,1.1,2,2,0,0,0-.08,2.45c.2.34.43.67.6,1a5.26,5.26,0,0,1,.2,1c-.88-.53-1.49-.94-2.14-1.27a2.72,2.72,0,0,0-.95-.09c0,.32,0,.72.13.94.53.7,1.16,1.32,1.72,2,.23.28.65.53.24,1.11a5.17,5.17,0,0,1-.89-.38c-.77-.51-1.51-1.05-2.27-1.58-.32-.22-.67-.59-1-.16s.06.71.33,1l.45.48c.87.88,1.75,1.73,2.59,2.63a2.42,2.42,0,0,1,.89,1.54,9.64,9.64,0,0,1-2.66-1.57c-1-.82-2-1.66-3.07-2.49-.34-.27-.69-.55-1.15-.21.57,1.66,11.8,11.47,13.59,11.9.36-.34.16-.66-.09-.91-.43-.43-.92-.82-1.36-1.24q-1.47-1.42-2.92-2.86a2.78,2.78,0,0,1-.36-.61,2.29,2.29,0,0,1,1.26.4c.8.54,1.56,1.14,2.37,1.67.44.28.9.78,1.57.26-.37-1.53-2.4-2-2.58-4,.64.39,1,.65,1.45.88a13.8,13.8,0,0,0,1.62.89,2.4,2.4,0,0,0,.93,0,3.91,3.91,0,0,0-.23-.8c-.29-.55-.89-.93-1-1.81A22.32,22.32,0,0,0,87,109.92c.88.22,1.84-.23,3,.14a9.36,9.36,0,0,0-3.5,2.83,5.51,5.51,0,0,0-.79,5.25c.16.49.38.87.94.84.09-.13.18-.2.17-.27,0-.34-.09-.69-.15-1a4.85,4.85,0,0,1,1.65-4.87,5,5,0,0,1,4.94-1,5.21,5.21,0,0,1,.54,9.65c-.36.18-.71.4-1.13.65a1.68,1.68,0,0,0,2.29.05A6.6,6.6,0,0,0,98,117.65a1.91,1.91,0,0,1,.34-.58c.3,2.05,2.18,2.34,3.62,3.27-1.19.79-2.41-.27-3.44.43.23.91,1,.95,1.65,1.16,2.29.77,4.59,1.49,6.88,2.25a4.07,4.07,0,0,1,.78.47c-.26.21-.43.26-.59.23-1.64-.3-3.28-.6-4.92-.93s-3.18-.66-4.77-1c-.36-.08-.72-.15-.78.57a15.82,15.82,0,0,0,1.51.54c5.49,1.38,11,2.59,16.42,4.34a56.52,56.52,0,0,1,9.45,3.63c1.74.93,3.47,1.89,5.2,2.83a32.24,32.24,0,0,1,9.08,7.11,63.94,63.94,0,0,1,4.31,5.32c1.73,2.48,3.27,5.09,4.88,7.65.21.34.38.79.88.5s.32-.68.13-1.05c-.08-.16-.2-.29-.29-.44-1-1.68-2.07-3.36-3.08-5.05a12.36,12.36,0,0,1-.58-1.24,2.35,2.35,0,0,1,1.12.69c1,1,1.93,2,2.9,3.06a3.67,3.67,0,0,0,.76.72.79.79,0,0,0,.68-.09.6.6,0,0,0,0-.58,12.43,12.43,0,0,0-.87-1,7,7,0,0,1-1.66-2.32,6.93,6.93,0,0,1,.85.27c.71.34,1.41.72,2.12,1.06.9.44,1.12.36,1.86-.31,1.07-1,2.18-1.89,3.27-2.85a3.8,3.8,0,0,0,.45-.58c-.18-.13-.27-.26-.38-.28a8.59,8.59,0,0,0-.91,0,23.58,23.58,0,0,1-12.51-3.6,25.49,25.49,0,0,1-7.81-8.1c-1-1.56-2.13-2.92-4.08-3.27-.87-.15-1.73-.33-2.6-.42a31,31,0,0,1-10.67-3.19,66.27,66.27,0,0,1-12.85-8.49c-6.34-5.3-12.53-10.77-18.76-16.2-2.22-1.93-4.36-4-6.53-5.94-1.12-1-1.67-1-2.64.11s-1.83,2.14-2.8,3.15a7.73,7.73,0,0,1-8,2.31,13.43,13.43,0,0,1-5.43-3.13c-3.69-3.25-7.34-6.55-11-9.83l-.3-.26-13.62-12c-1.87-1.66-3.73-3.34-5.62-5-2.42-2.11-4.88-4.16-7.28-6.28-1.77-1.57-3.47-3.23-5.22-4.82-1-.91-2.1-1.74-3.12-2.65-3.6-3.23-7.17-6.47-10.77-9.7a2.41,2.41,0,0,0-.71-.28,1.77,1.77,0,0,0,.85,1.64q7.13,6.47,14.27,12.93Q27,70.71,36.28,79L50.9,92.12q9.87,8.84,19.76,17.67c3.32,2.95,6.61,5.94,10.06,8.73A40.67,40.67,0,0,0,96,126.28c5.06,1.33,10.17,2.43,15.26,3.66a55.26,55.26,0,0,1,15.56,6,46.05,46.05,0,0,1,8.71,6.58,45.21,45.21,0,0,1,7.9,10.81c1.18,2.16,2.25,4.37,3.38,6.55C147,160.24,147.06,160.77,147.71,160.72ZM55,84.43a2.48,2.48,0,0,1,.42-2,18.29,18.29,0,0,0,.82-1.81c-1.7-.11-1.92,1.78-3.29,1.95a3.37,3.37,0,0,1,.1-.81c.2-.49.46-.95.68-1.43s.48-.83,0-1.17-.71.14-1,.4-.65.72-1,1a4,4,0,0,1-1,.37L52,77.71c-1.71-.27-1.93,1.59-3.35,1.85l1-3.22c-.45-.41-.78-.52-1.13-.12s-.64.73-1,1.06a2.1,2.1,0,0,1-1.43.88l1.16-3.52c-1.62-.07-1.85,1.86-3.28,2-.17-1.3,1.23-2.21.79-3.51-1.28.08-1.42,1.72-2.82,1.85l1-3.18c-1.35-.13-1.57,1.4-2.75,1.43L41,70.6c-1.52-.56-1.74,1.32-2.95,1.28a3.89,3.89,0,0,1,.07-.78c.15-.5.4-1,.51-1.49a.83.83,0,0,0-.29-.62c-.07-.06-.4.06-.54.19-.36.32-.65.73-1,1a1.85,1.85,0,0,1-.69.22c-.49-1,.86-1.74.25-2.7-1-.1-1.17,1.34-2.34,1.16l.59-2.38c-1.24-.33-1.56,1.21-2.65,1.05-.09-.93.79-1.68.32-2.58-1-.26-1.28,1.23-2.45.94a10.62,10.62,0,0,0,.41-1.5,2.84,2.84,0,0,0-.2-.93,5,5,0,0,0-.79.3c-.42.24-.7.86-1.36.47L28.27,62,28,61.82c-.38.23-.75.47-1.14.67-.21.11-.61.27-.66.2a1.33,1.33,0,0,1-.27-.79,5,5,0,0,1,.21-1c-.87-1-1.48.36-2.29.06a2.79,2.79,0,0,1,0-.51c.1-.45.5-1-.08-1.29-.23-.13-.7.13-1,.26-.63.24-.94.05-.94-.6,0-.13.11-.27.08-.38a1.78,1.78,0,0,0-.37-.86c-.14-.11-.58,0-.79.18s-.66.62-1.21.17c0-.25.07-.54.11-.84.12-.89-.15-1.11-1-.84-.35.11-.7.18-1.08.27a4.24,4.24,0,0,1-.1-.56c0-1.37,0-1.37-1.33-.92-.48.17-.72,0-.82-.52C15,53,14.95,53,13.5,53.31a1,1,0,0,1-.23,0,3.77,3.77,0,0,1-.4-.73c-.39-1.28-.38-1.28-1.69-1a2,2,0,0,1-.43,0A3.91,3.91,0,0,1,10.5,51c-.29-1.07-.29-1.09-1.47-1.15A.84.84,0,0,1,8.15,49a.89.89,0,0,0-.88-.84c-.87,0-1.14-.52-1.6-1.08s-1.18-.62-1.75-1c-.2-.12-.26-.45-.44-.65-.32-.36-.64-.74-1.23-.52-.26.52,0,.83.39,1.12s.78.57,1.14.89c3.89,3.43,7.75,6.89,11.66,10.29q11.49,10,23,19.93c7.68,6.64,15.38,13.26,23,19.93a17.29,17.29,0,0,0,4.33,2.71,5.56,5.56,0,0,0,5.85-1.2q1.64-1.8,3.21-3.66a11.4,11.4,0,0,0,.82-1.26c-.51-.49-.83-.45-1.22,0-.91,1-1.85,1.88-2.78,2.8-.26.26-.56.48-.84.72l-.26-.2c.37-1.82,2-3.05,2.49-4.82-.76-.42-1,.26-1.31.58-.68.68-1.28,1.45-1.95,2.14a4.49,4.49,0,0,1-.89.57c.1-1.9,1.59-3.11,1.84-4.88a1.72,1.72,0,0,0-.89.45c-.76.79-1.48,1.62-2.23,2.42-.31.33-.59.78-1.3.4.62-1.59,1.87-2.82,2.46-4.67a2.91,2.91,0,0,0-1.33.93l-1.79,1.93c-.24.26-.5.52-1,.09L66.92,88l-.28-.22c-1.53.62-2.11,2.51-3.76,3a16.25,16.25,0,0,1,1-2.12c.37-.69,1.14-1.23.83-2.33a4.75,4.75,0,0,0-.81.49c-.73.69-1.43,1.43-2.17,2.11a2.55,2.55,0,0,1-.7.33,1.32,1.32,0,0,1,.16-.87c.46-.9,1-1.78,1.38-2.7.1-.22,0-.55-.08-.83-.27.07-.62.07-.79.24-.65.65-1.23,1.37-1.87,2a2.73,2.73,0,0,1-.68.39L59,87.35l1.69-3.56c-.57-.61-1-.32-1.33,0-.53.53-1,1.11-1.53,1.64a5.59,5.59,0,0,1-1,.57c.23-.63.32-1,.47-1.24.31-.63.7-1.22,1-1.87a1.07,1.07,0,0,0-.05-.93c-.33-.36-.73-.11-1,.19s-.74.75-1.1,1.13Zm32.22,1V85a5.88,5.88,0,0,1,.73-.14c1.36-.1,2.71-.2,4.07-.27s2.72-.09,4.08-.13c.38,0,.81,0,.94-.65a3.75,3.75,0,0,0-.91-.3c-2.5-.16-5-.28-7.49-.42-.35,0-.7-.09-1.14-.14.38-.86,1-.62,1.46-.65,2.41-.17,4.82-.29,7.23-.44.33,0,.72,0,.82-.56a3.29,3.29,0,0,0-.7-.23c-2.23-.2-4.47-.35-6.69-.58-.5-.05-1.16.18-1.62-.64.47-.06.84-.14,1.2-.16l6.85-.25c.39,0,.83,0,.87-.75-.42-.08-.87-.21-1.33-.25-2.1-.2-4.2-.38-6.3-.59-.34,0-.82.09-1-.56.36-.05.68-.12,1-.14,2.19-.11,4.39-.21,6.58-.33.4,0,.89,0,1.09-.7a10.85,10.85,0,0,0-1.29-.24c-1.8-.11-3.6-.18-5.4-.29a1.88,1.88,0,0,1-1.7-.61c.58-.09,1-.19,1.4-.22,2-.13,4-.25,6-.37.38,0,.69-.14.65-.79-1.27-.13-2.56-.34-3.86-.36-2.49-.05-3.15-.13-4-.83L92,72.21c1.44-.11,2.89-.2,4.33-.35.19,0,.35-.28.53-.43-.15-.14-.27-.33-.44-.4a2.22,2.22,0,0,0-.65-.09c-1.62-.16-3.24-.31-4.85-.5a14.81,14.81,0,0,1-1.58-.36l0-.34c.36,0,.73-.12,1.09-.14l5.39-.35c.37,0,.82.06,1-.63a5.19,5.19,0,0,0-1.12-.42c-1.65-.22-3.32-.39-5-.6-.4-.05-.9.09-1.22-.62.48-.06.89-.11,1.29-.15l5.26-.4c.38,0,.7-.12.62-.76a12.83,12.83,0,0,0-1.57-.37c-1.31-.15-2.62-.23-3.93-.35-.43,0-1,.12-1.27-.48a5.32,5.32,0,0,1,2.48-.41c1.18-.08,2.37-.14,3.55-.2.41,0,.81,0,.77-.75-1-.23-2.07-.53-3.14-.7a7.52,7.52,0,0,1-3.06-.66,2.17,2.17,0,0,1,1-.27c1.49-.09,3-.18,4.48-.26.52,0,.88-.14.69-.88l-2.91-.62c-1-.21-2,0-3.19-.81.61-.1.94-.17,1.26-.19l3.82-.19c.44,0,.9,0,.94-.75-1.75-.78-3.75-.66-5.58-1.3a1.21,1.21,0,0,1,.69-.31c1.31-.1,2.63-.18,3.94-.26.18,0,.38,0,.52,0a3.07,3.07,0,0,0,.55-.45,2.71,2.71,0,0,0-.51-.51,1.94,1.94,0,0,0-.64-.13l-3.77-.63a3.51,3.51,0,0,1-.6-.22c1-.3,1.94-.33,2.87-.52s1.95.25,2.77-.85a6,6,0,0,0-1-.41c-1.12-.23-2.25-.41-3.37-.63a7.47,7.47,0,0,1-.86-.27,1.47,1.47,0,0,1,.93-.36l3.16-.18c.45,0,.9-.05.93-.77-1.45-.77-3.16-.58-4.72-1.1a2.43,2.43,0,0,1,.94-.34c1-.15,2.09-.28,3.13-.43.4-.06.81-.12.73-.76a4.73,4.73,0,0,0-2.21-.61c-.76-.13-1.6.13-2.44-.58l2.51-.4a7.47,7.47,0,0,0,1.42-.27,1,1,0,0,0,.48-.66c0-.12-.31-.41-.52-.46-.51-.11-1-.1-1.57-.18s-1.32-.24-2-.37v-.28a6.53,6.53,0,0,1,.68-.19c.91-.16,1.83-.27,2.73-.46a1,1,0,0,0,.64-.52c.14-.46-.27-.59-.63-.65-.73-.13-1.48-.21-2.21-.34a8.8,8.8,0,0,1-.91-.26,1.44,1.44,0,0,1,.85-.47c.73-.14,1.47-.28,2.2-.39.38-.05.79-.16.72-.57,0-.24-.43-.53-.71-.61-.55-.15-1.13-.14-1.69-.24-.35-.06-.69-.18-1-.27l0-.36c.72-.1,1.43-.19,2.15-.31.5-.08,1.24,0,1.29-.64s-.76-.69-1.27-.84-1.21-.29-1.82-.43l0-.33c.62-.15,1.24-.32,1.87-.44.47-.09,1.08,0,1.14-.64s-.59-.64-1-.77l-1.67-.5c.23-.38.43-.55.65-.6.47-.11,1-.11,1.43-.24a2.48,2.48,0,0,0,.68-.5c-.19-.25-.34-.59-.59-.73a7.08,7.08,0,0,0-1.14-.3,4.69,4.69,0,0,1-.72-.38,8.77,8.77,0,0,1,1.9-.71.94.94,0,0,0,.57-.6c0-.21-.26-.51-.49-.66a4,4,0,0,0-.88-.26c-.3-.1-.59-.23-.93-.37.53-1,2.08-.29,2.37-1.89l-2.17-.54c.52-.86,1.93-.46,2.09-1.74l-1.82-.72c.16-.74.75-.69,1.22-.89a1.21,1.21,0,0,0,.61-.73c0-.14-.34-.43-.57-.58A11.14,11.14,0,0,0,95,20.31L95,20a3.18,3.18,0,0,0,1-.37,2.23,2.23,0,0,0,.71-1c.13-.46-.28-.67-.68-.83a7,7,0,0,1-.78-.43c2.2-1.66,1.51-1.56.46-2.77.18-.29.36-.63.58-.94.39-.56.57-1.07-.07-1.61-.42-.35-.31-.78,0-1.16a.89.89,0,0,0,.12-1.29,1,1,0,0,1,.07-1.34,1.25,1.25,0,0,0,.08-1.48,1.9,1.9,0,0,1,0-1.5,9.55,9.55,0,0,0,.2-2.46c0-.16-.32-.32-.6-.58a5.23,5.23,0,0,0-.42,1.07q-5.49,43.21-11,86.55a11.58,11.58,0,0,0,1.55.21q2.31,0,4.61-.13a20.45,20.45,0,0,0,2.22-.23c.47-.07.95-.22,1-1a7.68,7.68,0,0,0-1-.18c-1.62-.07-3.24-.11-4.87-.18-.52,0-1.11.09-1.58-.58a5.54,5.54,0,0,1,.73-.16c2.63-.18,5.26-.34,7.89-.53.43,0,1.16.24,1.18-.45s-.71-.63-1.23-.67l-.4,0c-1.93-.08-3.86-.15-5.79-.25C88.38,85.63,87.8,85.51,87.21,85.42ZM187.73,156a17.58,17.58,0,0,0-.83-1.79,19.75,19.75,0,0,0-7.81-7.46c-7.47-3.93-14.94-4.18-22.29.29a15.52,15.52,0,0,0-7.23,9.83,16.44,16.44,0,0,0,2.68,13.88,20.52,20.52,0,0,0,11.37,8.09c6.39,1.86,12.52,1.38,18.19-2.3A15.48,15.48,0,0,0,189,166.36,15.09,15.09,0,0,0,187.73,156ZM82.16,211.57a13.1,13.1,0,0,0,1.44-.67,21.52,21.52,0,0,0,9.93-12.32,17.41,17.41,0,0,0-1.09-13.78,14.75,14.75,0,0,0-10.33-7.7,17,17,0,0,0-12.42,2.13,20.46,20.46,0,0,0-9.27,10.93c-1.9,5.15-1.91,10.35.77,15.31a14.21,14.21,0,0,0,8,6.88A17.13,17.13,0,0,0,82.16,211.57Zm107.2-36.45c-1,.61-1.91.34-2.7.49s-1.68-.35-2.28.63c.64.8,1.53.63,2.32.66,1.84.08,3.69.08,5.53.13a4.85,4.85,0,0,1,.87.18l0,.3a7.43,7.43,0,0,1-1.12.25c-2.14.15-4.29.3-6.44.4-1.14.05-2.29,0-3.43,0-.43,0-1-.06-1.07.83a5.17,5.17,0,0,0,1.05.27c1.76.08,3.52.24,5.27.16,4.43-.2,8.85-.52,13.27-.79.49,0,1,0,1.48,0l0,.29a7.54,7.54,0,0,1-1,.29c-1.26.2-2.52.39-3.78.54-3,.34-5.94.72-8.91,1a96.33,96.33,0,0,1-12.77-.14,5.2,5.2,0,0,0-1.31,0c-.22,0-.4.32-.6.5.16.18.21.29.28.31a8.56,8.56,0,0,0,1,.21,85.61,85.61,0,0,0,17.77.08,117.4,117.4,0,0,0,12.51-1.82,121.25,121.25,0,0,0,13.39-3.41c1.09-.34,2.16-.74,3.22-1.15a1.23,1.23,0,1,0-.76-2.33,2.55,2.55,0,0,0-.37.13,61.62,61.62,0,0,1-10.08,3,30.67,30.67,0,0,1-12.3.38c-2.84-.57-5.52-1.53-7.44-3.88-.39-.47-.67-1-1-1.52-.5-.71-1.05-.73-1.56,0s-.83,1.24-1.22,1.88c-.21.35-.38.72-.64,1.21Zm-99.16,4.56a8.07,8.07,0,0,0-.09-1c-.49-2.09-1.1-4.16-1.49-6.26a57.33,57.33,0,0,1,.12-18.63,112.43,112.43,0,0,1,2.77-13,5.1,5.1,0,0,0,.07-2.06A1.35,1.35,0,0,0,90,137.57c-1,0-1.56.59-1.73,1.8-.51,3.61-1,7.22-1.48,10.82-.26,1.78-.55,3.56-1,5.3-.71,2.85-1.5,5.68-2.34,8.49-.52,1.72-1.14,3.42-1.82,5.09-.74,1.82-1.59,3.6-2.4,5.4a.82.82,0,0,0-.12.37c0,.2.06.52.17.56a.79.79,0,0,0,.68-.08,4.66,4.66,0,0,0,.78-1.2c.75-1.73,1.45-3.48,2.2-5.21.25-.57.6-1.1.91-1.65l.28.09c-.16,1-.29,2-.49,3-.31,1.64-.68,3.26-1,4.9a.87.87,0,0,0,.32.73c.38.21.67,0,.78-.44.21-.72.38-1.44.61-2.16.16-.52.38-1,.57-1.52l.34,0c0,.45.1.91.14,1.36.08,1,.15,2,.21,3a1.32,1.32,0,0,0,.76,1.14c1,.58,1.93,1.22,2.9,1.82A8.93,8.93,0,0,0,90.19,179.68ZM98.05,4a5,5,0,0,0-.2.87Q97.93,15,98,25.17c0,3.38.13,6.76.18,10.14s.06,7,.13,10.54c.05,2.72.19,5.44.23,8.17.09,5.36.13,10.72.19,16.07,0,3.73.13,7.47.15,11.2a24.65,24.65,0,0,1-.21,4.19,7.49,7.49,0,0,1-6.09,6.11,14.34,14.34,0,0,1-2.22.24c-1.58,0-3.16,0-4.74.06-.59,0-1.2,0-1.13,1.08a9.48,9.48,0,0,0,1.44.2q4,0,8-.09c1.1,0,2.2-.1,3.29-.17.4,0,.82-.07.79-.73l-1.23-.62a1.46,1.46,0,0,1,1.47-1c.58.06.62.65.63,1.15.12,4,.28,7.9.34,11.86,0,2.46,0,4.91-.1,7.37,0,.56.13.84.83.74a9.91,9.91,0,0,0,.19-1.13c.09-1.53.23-3.07.21-4.6q-.1-10.22-.28-20.43-.25-15.29-.52-30.58-.19-11.07-.36-22.14Q99.09,23,98.9,13.28c0-2.33-.07-4.66-.14-7A2.94,2.94,0,0,0,98.05,4ZM85.67,124.37c-.14.25-.25.36-.26.47a17.16,17.16,0,0,0,1.13,7.87,6.35,6.35,0,0,0,2.4,3.06c1.58,1,2,1,3.3-.37,1.56-1.56,2.09-3.62,2.68-5.63.36-1.21.19-1.41-1-1.89l-5.47-2.28C87.57,125.22,86.66,124.81,85.67,124.37ZM86,134.9c-.63.46-.45,1.09-.46,1.62a99.74,99.74,0,0,1-2.64,20.89,38.88,38.88,0,0,1-3.85,10.2A37.16,37.16,0,0,1,73,175.35c-.32.32-.83.55-.61,1.35.44-.17,1-.21,1.26-.5q2-2,4-4.21a22.57,22.57,0,0,0,3.91-6.67A60.71,60.71,0,0,0,84.06,158a83.51,83.51,0,0,0,2.07-12.2,71.71,71.71,0,0,0,.57-9.33C86.68,135.88,86.73,135.3,86,134.9Zm7.44,67.79c.19,0,.29.08.36.06a6.19,6.19,0,0,1,5.68.4c1.48.88,2.89.27,3.66-1.4s.47-3.21-.93-4a4.21,4.21,0,0,0-1.64-.42,6.59,6.59,0,0,1-4-2.05c-.23-.23-.51-.42-1-.81-.26,1.75-.7,3.22-.84,4.82l1.23,0a4.89,4.89,0,0,1,2.84.9c1.08.74,1.45.7,2.56-.15.09-.07.24,0,.42-.07a1.5,1.5,0,0,1-.41,1.89,1.46,1.46,0,0,1-1.84,0c-1.72-1.15-3.53-.81-5.33-.32C93.69,201.64,93.2,201.91,93.47,202.68ZM84.59,94.91a1.73,1.73,0,0,0,1.57.46c3.64-.06,7.28-.13,10.92-.2.47,0,.88-.1.92-.77a2.94,2.94,0,0,0-2-.32c-2.46,0-4.91.09-7.37.13-1,0-2,0-3,0C85.16,94.2,84.58,94.15,84.59,94.91ZM84.67,97c.22.64.65.66,1.11.65l10.79-.27a4.41,4.41,0,0,0,1-.1.66.66,0,0,0,.33-.46c0-.1-.17-.3-.31-.35a2.16,2.16,0,0,0-.64,0c-1.62,0-3.25,0-4.87,0-1.84,0-3.69,0-5.53.09A2.58,2.58,0,0,0,84.67,97Zm4.92,20.63c1.12-.89,2.37-1.85,3.57-2.86a.59.59,0,0,0-.25-1.1,5.71,5.71,0,0,0-2.18-.16,3.35,3.35,0,0,0-2.39,3.59C88.51,117.8,88.86,118,89.59,117.62Zm3.35,2.18a3.41,3.41,0,0,0,2-3.53c-.15-.72-.55-1-1.1-.56-1.24.91-2.45,1.86-3.61,2.86-.52.45-.37.9.29,1.2A3.39,3.39,0,0,0,92.94,119.8ZM85.73,98.92l-.12.34c.22.16.42.42.66.46a9.15,9.15,0,0,0,1.83.16q4.33-.11,8.66-.29c.49,0,1.3.13,1.29-.53,0-.85-.85-.5-1.36-.5q-3.8,0-7.6.13C88,98.73,86.84,98.84,85.73,98.92Zm2.35,2.49v.38c.23.1.45.29.68.28q4.33-.1,8.67-.27c.18,0,.35-.19.73-.41a4.38,4.38,0,0,0-1-.32A65.09,65.09,0,0,0,88.07,101.41Zm10,2.32-.07-.34a2.66,2.66,0,0,0-.74-.19q-3.21.11-6.42.27c-.13,0-.25.18-.39.29.61.58.61.57,1.37.55,1.14,0,2.28-.05,3.41-.1.7,0,1.4-.07,2.1-.15A2.75,2.75,0,0,0,98.07,103.73ZM93,106a10.66,10.66,0,0,0,4.45.2c.23,0,.42-.31.67-.52A7.75,7.75,0,0,0,93,106Zm2.8,2.44a2.14,2.14,0,0,0,1.94.42c.13,0,.29-.29.32-.46s-.17-.32-.3-.35A2.14,2.14,0,0,0,95.76,108.48Z"/><path class="cls-2" d="M184.87,157.11c2.17,5.13,1.7,10-2,14.27a15.31,15.31,0,0,1-9,5.05,18.76,18.76,0,0,1-9.75-.6,17,17,0,0,1-10-8.09,13.34,13.34,0,0,1-.5-12.63,12.82,12.82,0,0,1,4.55-5.21c5.17-3.47,10.75-3.87,16.51-1.88a17.35,17.35,0,0,1,9,7C184.15,155.66,184.47,156.38,184.87,157.11ZM177,173.59l.48-.22a11.76,11.76,0,0,0,4.34-18,16,16,0,0,0-8.41-5.84c-5.1-1.49-10-1.11-14.44,2.12a11.55,11.55,0,0,0-3.2,15.41C159.84,174.11,169.43,177,177,173.59Z"/><path class="cls-2" d="M156.26,149.19c-1,1.28-1.91,2.41-2.72,3.64a14.05,14.05,0,0,0-2.43,7.28,15.52,15.52,0,0,0,6,13,19.73,19.73,0,0,0,18,4.15,16.1,16.1,0,0,0,9.08-5.48,13.8,13.8,0,0,0,3.06-9.44A17.28,17.28,0,0,0,183.17,152a2.6,2.6,0,0,1-.57-1,1.27,1.27,0,0,1,.4.18c3.8,3.78,5.7,8.34,5,13.69a14.17,14.17,0,0,1-6.91,10.67A20.11,20.11,0,0,1,171,178.77a21.1,21.1,0,0,1-10.9-2.54,19,19,0,0,1-7.49-7,15.34,15.34,0,0,1-1.86-12,14.73,14.73,0,0,1,4.57-7.52,4.22,4.22,0,0,1,.65-.44C156,149.17,156.09,149.2,156.26,149.19Z"/><path class="cls-2" d="M81,208.66a13.64,13.64,0,0,1-10.1.73,12,12,0,0,1-8.16-9.24,15.67,15.67,0,0,1,2.6-12.67,16.29,16.29,0,0,1,11.28-7.3,12.4,12.4,0,0,1,14.05,9c1.4,5.19.17,9.83-2.93,14A16.71,16.71,0,0,1,81,208.66Zm.06-2A15.3,15.3,0,0,0,89.36,192a10.59,10.59,0,0,0-7.43-9.61,11.85,11.85,0,0,0-9.1.85,15.26,15.26,0,0,0-8.13,9.88A12.23,12.23,0,0,0,66,203.47a9.81,9.81,0,0,0,7.33,4.63A13.56,13.56,0,0,0,81,206.67Z"/><path class="cls-2" d="M89.34,203.9a14,14,0,0,1-5,5.21,30.4,30.4,0,0,1-4.4,2.07,14.28,14.28,0,0,1-8,.71,13.08,13.08,0,0,1-7.26-3.74,12.72,12.72,0,0,1-2.25-3.06,14.52,14.52,0,0,1-2.06-5.93,17.25,17.25,0,0,1,.25-5.62,22.86,22.86,0,0,1,1.6-4.71,18.84,18.84,0,0,1,5.57-6.88,22.12,22.12,0,0,1,3.85-2.49,19.94,19.94,0,0,1,4.78-1.38,21.56,21.56,0,0,1,4.33-.13,8.85,8.85,0,0,1,5.3,2.34,2.43,2.43,0,0,1-1.76-.28,15.25,15.25,0,0,0-8.41-.85,15,15,0,0,0-6.68,2.93,19.06,19.06,0,0,0-4.67,4.79,18.17,18.17,0,0,0-3,13,12.55,12.55,0,0,0,4,7.54A13.24,13.24,0,0,0,76.56,211a21.24,21.24,0,0,0,5-1.2,15.38,15.38,0,0,0,4.68-3.14c.85-.75,1.61-1.61,2.41-2.42l.53-.51Z"/><path class="cls-2" d="M86.62,127.15a8.36,8.36,0,0,1,.44.85,17.81,17.81,0,0,0,1.18,3.06c1.74,2.79,2.66,2.48,4.33.25.25-.34.45-.72.74-1.19a7.77,7.77,0,0,1-1.65,4,1.7,1.7,0,0,1-2.91-.19A16.06,16.06,0,0,1,87,130.37a21.36,21.36,0,0,1-.69-3.11Z"/></g></g></g></svg>