<svg xmlns="http://www.w3.org/2000/svg" viewBox="0 0 135 40"><defs><style>.cls-1{isolation:isolate;}.cls-2{fill:#fff;}</style></defs><title>Ресурс 2</title><g id="Слой_2" data-name="Слой 2"><g id="Слой_1-2" data-name="Слой 1"><g class="cls-1"><path class="cls-2" d="M130,.8A4.2,4.2,0,0,1,134.2,5V35a4.2,4.2,0,0,1-4.2,4.2H5A4.2,4.2,0,0,1,.8,35V5A4.2,4.2,0,0,1,5,.8H130m0-.8H5A5,5,0,0,0,0,5V35a5,5,0,0,0,5,5H130a5,5,0,0,0,5-5V5a5,5,0,0,0-5-5Z"/></g><path class="cls-2" d="M68.14,17.75A4.25,4.25,0,1,0,72.41,22,4.19,4.19,0,0,0,68.14,17.75Zm0,6.83A2.46,2.46,0,0,1,65.74,22a2.41,2.41,0,1,1,4.8,0A2.46,2.46,0,0,1,68.14,24.58Zm-9.31-6.83A4.25,4.25,0,1,0,63.09,22,4.19,4.19,0,0,0,58.82,17.75Zm0,6.83A2.46,2.46,0,0,1,56.42,22a2.41,2.41,0,1,1,4.8,0A2.46,2.46,0,0,1,58.82,24.58ZM47.74,19.06v1.8h4.32a3.77,3.77,0,0,1-1,2.27,4.42,4.42,0,0,1-3.33,1.32,4.8,4.8,0,0,1,0-9.6A4.6,4.6,0,0,1,51,16.14l1.27-1.27A6.29,6.29,0,0,0,47.74,13a6.61,6.61,0,1,0,0,13.21,6,6,0,0,0,4.61-1.85,6,6,0,0,0,1.56-4.22,5.87,5.87,0,0,0-.1-1.13Zm45.31,1.4a4,4,0,0,0-3.64-2.71,4,4,0,0,0-4,4.25,4.16,4.16,0,0,0,4.22,4.25,4.23,4.23,0,0,0,3.54-1.88l-1.45-1a2.43,2.43,0,0,1-2.09,1.18,2.16,2.16,0,0,1-2.06-1.29l5.69-2.35Zm-5.8,1.42a2.33,2.33,0,0,1,2.22-2.48,1.65,1.65,0,0,1,1.58.9ZM82.63,26H84.5V13.5H82.63Zm-3.06-7.3H79.5a3,3,0,0,0-2.24-1,4.26,4.26,0,0,0,0,8.51,2.9,2.9,0,0,0,2.24-1h.06v.61c0,1.63-.87,2.5-2.27,2.5a2.35,2.35,0,0,1-2.14-1.51l-1.63.68a4.05,4.05,0,0,0,3.77,2.51c2.19,0,4-1.29,4-4.43V18H79.57Zm-2.14,5.88A2.44,2.44,0,0,1,75.06,22a2.46,2.46,0,0,1,2.37-2.59A2.4,2.4,0,0,1,79.7,22,2.38,2.38,0,0,1,77.42,24.58ZM101.81,13.5H97.33V26H99.2V21.26h2.61a3.89,3.89,0,1,0,0-7.76Zm0,6H99.2V15.24h2.65a2.14,2.14,0,1,1,0,4.29Zm11.53-1.8a3.5,3.5,0,0,0-3.33,1.91l1.66.69a1.77,1.77,0,0,1,1.7-.92,1.8,1.8,0,0,1,2,1.61v.13a4.13,4.13,0,0,0-1.95-.48c-1.79,0-3.6,1-3.6,2.81a2.89,2.89,0,0,0,3.1,2.75A2.63,2.63,0,0,0,115.32,25h.06v1h1.8V21.19C117.18,19,115.52,17.73,113.39,17.73Zm-.23,6.85c-.61,0-1.46-.31-1.46-1.06,0-1,1.06-1.33,2-1.33a3.32,3.32,0,0,1,1.7.42A2.26,2.26,0,0,1,113.16,24.58ZM123.74,18l-2.14,5.42h-.06L119.32,18h-2l3.33,7.58-1.9,4.21h1.95L125.82,18Zm-16.81,8h1.87V13.5h-1.87Z"/><path class="cls-2" d="M10.47,8.94V31.06a2.1,2.1,0,0,0,.08.58L22.19,20,10.55,8.36A2.1,2.1,0,0,0,10.47,8.94Z"/><path class="cls-2" d="M27.21,23.6,31.77,21c.51-.29.79-.66.79-1s-.29-.72-.79-1L27.21,16.4,23.61,20Z"/><path class="cls-2" d="M11.25,32.35a1.66,1.66,0,0,0,1-.26l14-8L22.9,20.71Z"/><path class="cls-2" d="M22.9,19.29l3.41-3.41-14-8a1.64,1.64,0,0,0-1-.26Z"/></g></g></svg>