<svg xmlns="http://www.w3.org/2000/svg" viewBox="0 0 17.7 17.7"><defs><style>.cls-1{fill:#fff;}</style></defs><title>instРесурс 10</title><g id="Слой_2" data-name="Слой 2"><g id="Слой_1-2" data-name="Слой 1"><circle class="cls-1" cx="8.85" cy="8.85" r="2.95"/><path class="cls-1" d="M17.65,5.2a5.26,5.26,0,0,0-1.43-3.71A5.26,5.26,0,0,0,12.51.06C11.28,0,10.07,0,8.85,0S6.42,0,5.2.06A5.26,5.26,0,0,0,1.49,1.49,5.26,5.26,0,0,0,.06,5.2C0,6.42,0,7.63,0,8.85s0,2.43.06,3.65a5.26,5.26,0,0,0,1.43,3.71A5.26,5.26,0,0,0,5.2,17.65c1.22.07,2.43.06,3.65.06s2.43,0,3.65-.06a5.26,5.26,0,0,0,3.71-1.43,5.26,5.26,0,0,0,1.43-3.71c.07-1.22.06-2.43.06-3.65S17.71,6.42,17.65,5.2ZM8.85,13.85a5,5,0,1,1,5-5A5,5,0,0,1,8.85,13.85ZM14.73,4A1.06,1.06,0,1,1,15.79,3,1.06,1.06,0,0,1,14.73,4Z"/></g></g></svg>