<svg xmlns="http://www.w3.org/2000/svg" viewBox="0 0 116.39 29.76"><defs><style>.cls-1{fill:#fff;}</style></defs><title>logo_whiteРесурс 14</title><g id="Слой_2" data-name="Слой 2"><g id="Layer_1" data-name="Layer 1"><path class="cls-1" d="M11.28,14.57a4.83,4.83,0,0,0,2.56-4.36V6.55c0-3.36-2.18-6.11-6.42-6.11H0v1.4l1.7.74V27.19L0,27.93v1.4H8c4.23,0,6.42-2.75,6.42-6.11v-4A4.88,4.88,0,0,0,11.28,14.57Zm-6-11.21H7.33a2.84,2.84,0,0,1,2.92,3v4a2.86,2.86,0,0,1-2.92,3H5.28Zm5.54,20a2.84,2.84,0,0,1-2.92,3H5.28V16H7.9a2.86,2.86,0,0,1,2.92,3Z"/><path class="cls-1" d="M24.61,2.57c-4.23,0-6.42,2.75-6.42,6.11v15c0,3.36,2.18,6.11,6.42,6.11S31,27,31,23.65v-15C31,5.32,28.85,2.57,24.61,2.57Zm2.92,21.25a2.93,2.93,0,1,1-5.85,0V8.51a2.93,2.93,0,1,1,5.85,0Z"/><polygon class="cls-1" points="42.99 3.01 42.99 4.41 44.5 5.17 41.46 15.68 38.73 5.12 40.15 4.41 40.15 3.01 33.47 3.01 33.47 4.41 35.18 5.15 35.18 5.15 39.5 19.21 39.5 27.19 37.31 27.93 37.31 29.33 45.17 29.33 45.17 27.93 42.99 27.19 42.99 19.21 47.31 5.15 47.31 5.15 49.01 4.41 49.01 3.01 42.99 3.01"/><polygon class="cls-1" points="115.96 3.01 102.6 3.01 102.17 11.48 103.56 11.48 105.22 5.5 107.53 5.5 107.53 27.19 105.35 27.93 105.35 29.33 113.21 29.33 113.21 27.93 111.03 27.19 111.03 5.5 113.34 5.5 115 11.48 116.39 11.48 115.96 3.01"/><path class="cls-1" d="M94,4.41l1.27.74V23.83a2.93,2.93,0,1,1-5.85,0V5.15l1.48-.74V3H84.23v1.4l1.7.74v18.5c0,3.36,2.18,6.11,6.42,6.11,3.84,0,5.85-2.75,5.85-6.11V5.15l1.75-.74V3H94Z"/><path class="cls-1" d="M81.74,0H78.25V1a4.67,4.67,0,0,0-2.92-1c-4.23,0-6.42,2.75-6.42,6.11V23.65c0,3.36,2.18,6.11,6.42,6.11,3.75,0,6-2.31,6-5.94v-5.5h-3.1v5.5a2.75,2.75,0,0,1-2.92,3,2.84,2.84,0,0,1-2.92-3V5.94a2.93,2.93,0,1,1,5.85,0V9.56h2.62Z"/><circle class="cls-1" cx="57.3" cy="16.19" r="3.51"/></g></g></svg>