<svg xmlns="http://www.w3.org/2000/svg" xmlns:xlink="http://www.w3.org/1999/xlink" viewBox="0 0 3038.71 2974.6"><defs><style>.cls-1{fill:none;}.cls-2{clip-path:url(#clip-path);}.cls-3{fill:#ee3624;stroke:red;stroke-miterlimit:10;}</style><clipPath id="clip-path"><path class="cls-1" d="M1312.77,710.55c-288.34,60.35-691.83,512.61-691.83,807.2s516.84,607.09,811.43,607.09,682.52-15.59,906.91-206.46C3057,1307.87,1874.39,593,1312.77,710.55Zm268.39,983.09c-102.12,0-184.9-82.78-184.9-184.9s82.78-184.9,184.9-184.9,184.9,82.78,184.9,184.9S1683.28,1693.64,1581.16,1693.64Z"/></clipPath></defs><title>Ресурс 5</title><g id="Слой_2" data-name="Слой 2"><g id="Слой_1-2" data-name="Слой 1"><g class="cls-2"><line class="cls-3" x1="0.35" y1="1689.03" x2="1753.15" y2="0.36"/><line class="cls-3" x1="10.16" y1="1698.84" x2="1762.96" y2="10.17"/><line class="cls-3" x1="19.97" y1="1708.65" x2="1772.77" y2="19.98"/><line class="cls-3" x1="29.78" y1="1718.47" x2="1782.58" y2="29.79"/><line class="cls-3" x1="39.59" y1="1728.28" x2="1792.39" y2="39.6"/><line class="cls-3" x1="49.4" y1="1738.09" x2="1802.2" y2="49.41"/><line class="cls-3" x1="59.21" y1="1747.9" x2="1812.02" y2="59.22"/><line class="cls-3" x1="69.02" y1="1757.71" x2="1821.83" y2="69.04"/><line class="cls-3" x1="78.83" y1="1767.52" x2="1831.64" y2="78.85"/><line class="cls-3" x1="88.64" y1="1777.33" x2="1841.45" y2="88.66"/><line class="cls-3" x1="98.45" y1="1787.14" x2="1851.26" y2="98.47"/><line class="cls-3" x1="108.27" y1="1796.95" x2="1861.07" y2="108.28"/><line class="cls-3" x1="118.08" y1="1806.76" x2="1870.88" y2="118.09"/><line class="cls-3" x1="127.89" y1="1816.57" x2="1880.69" y2="127.9"/><line class="cls-3" x1="137.7" y1="1826.38" x2="1890.5" y2="137.71"/><line class="cls-3" x1="147.51" y1="1836.19" x2="1900.31" y2="147.52"/><line class="cls-3" x1="157.32" y1="1846.01" x2="1910.12" y2="157.33"/><line class="cls-3" x1="167.13" y1="1855.82" x2="1919.93" y2="167.14"/><line class="cls-3" x1="176.94" y1="1865.63" x2="1929.74" y2="176.95"/><line class="cls-3" x1="186.75" y1="1875.44" x2="1939.56" y2="186.76"/><line class="cls-3" x1="196.56" y1="1885.25" x2="1949.37" y2="196.58"/><line class="cls-3" x1="206.37" y1="1895.06" x2="1959.18" y2="206.39"/><line class="cls-3" x1="216.18" y1="1904.87" x2="1968.99" y2="216.2"/><line class="cls-3" x1="225.99" y1="1914.68" x2="1978.8" y2="226.01"/><line class="cls-3" x1="235.81" y1="1924.49" x2="1988.61" y2="235.82"/><line class="cls-3" x1="245.62" y1="1934.3" x2="1998.42" y2="245.63"/><line class="cls-3" x1="255.43" y1="1944.11" x2="2008.23" y2="255.44"/><line class="cls-3" x1="265.24" y1="1953.92" x2="2018.04" y2="265.25"/><line class="cls-3" x1="275.05" y1="1963.73" x2="2027.85" y2="275.06"/><line class="cls-3" x1="284.86" y1="1973.55" x2="2037.66" y2="284.87"/><line class="cls-3" x1="294.67" y1="1983.36" x2="2047.47" y2="294.68"/><line class="cls-3" x1="304.48" y1="1993.17" x2="2057.28" y2="304.49"/><line class="cls-3" x1="314.29" y1="2002.98" x2="2067.1" y2="314.3"/><line class="cls-3" x1="324.1" y1="2012.79" x2="2076.91" y2="324.12"/><line class="cls-3" x1="333.91" y1="2022.6" x2="2086.72" y2="333.93"/><line class="cls-3" x1="343.72" y1="2032.41" x2="2096.53" y2="343.74"/><line class="cls-3" x1="353.53" y1="2042.22" x2="2106.34" y2="353.55"/><line class="cls-3" x1="363.35" y1="2052.03" x2="2116.15" y2="363.36"/><line class="cls-3" x1="373.16" y1="2061.84" x2="2125.96" y2="373.17"/><line class="cls-3" x1="382.97" y1="2071.65" x2="2135.77" y2="382.98"/><line class="cls-3" x1="392.78" y1="2081.46" x2="2145.58" y2="392.79"/><line class="cls-3" x1="402.59" y1="2091.27" x2="2155.39" y2="402.6"/><line class="cls-3" x1="412.4" y1="2101.08" x2="2165.2" y2="412.41"/><line class="cls-3" x1="422.21" y1="2110.9" x2="2175.01" y2="422.22"/><line class="cls-3" x1="432.02" y1="2120.71" x2="2184.82" y2="432.03"/><line class="cls-3" x1="441.83" y1="2130.52" x2="2194.63" y2="441.84"/><line class="cls-3" x1="451.64" y1="2140.33" x2="2204.45" y2="451.66"/><line class="cls-3" x1="461.45" y1="2150.14" x2="2214.26" y2="461.47"/><line class="cls-3" x1="471.26" y1="2159.95" x2="2224.07" y2="471.28"/><line class="cls-3" x1="481.07" y1="2169.76" x2="2233.88" y2="481.09"/><line class="cls-3" x1="490.89" y1="2179.57" x2="2243.69" y2="490.9"/><line class="cls-3" x1="500.7" y1="2189.38" x2="2253.5" y2="500.71"/><line class="cls-3" x1="510.51" y1="2199.19" x2="2263.31" y2="510.52"/><line class="cls-3" x1="520.32" y1="2209" x2="2273.12" y2="520.33"/><line class="cls-3" x1="530.13" y1="2218.81" x2="2282.93" y2="530.14"/><line class="cls-3" x1="539.94" y1="2228.62" x2="2292.74" y2="539.95"/><line class="cls-3" x1="549.75" y1="2238.44" x2="2302.55" y2="549.76"/><line class="cls-3" x1="559.56" y1="2248.25" x2="2312.36" y2="559.57"/><line class="cls-3" x1="569.37" y1="2258.06" x2="2322.17" y2="569.38"/><line class="cls-3" x1="579.18" y1="2267.87" x2="2331.99" y2="579.2"/><line class="cls-3" x1="588.99" y1="2277.68" x2="2341.8" y2="589.01"/><line class="cls-3" x1="598.8" y1="2287.49" x2="2351.61" y2="598.82"/><line class="cls-3" x1="608.61" y1="2297.3" x2="2361.42" y2="608.63"/><line class="cls-3" x1="618.42" y1="2307.11" x2="2371.23" y2="618.44"/><line class="cls-3" x1="628.24" y1="2316.92" x2="2381.04" y2="628.25"/><line class="cls-3" x1="638.05" y1="2326.73" x2="2390.85" y2="638.06"/><line class="cls-3" x1="647.86" y1="2336.54" x2="2400.66" y2="647.87"/><line class="cls-3" x1="657.67" y1="2346.35" x2="2410.47" y2="657.68"/><line class="cls-3" x1="667.48" y1="2356.16" x2="2420.28" y2="667.49"/><line class="cls-3" x1="677.29" y1="2365.98" x2="2430.09" y2="677.3"/><line class="cls-3" x1="687.1" y1="2375.79" x2="2439.9" y2="687.11"/><line class="cls-3" x1="696.91" y1="2385.6" x2="2449.71" y2="696.92"/><line class="cls-3" x1="706.72" y1="2395.41" x2="2459.53" y2="706.73"/><line class="cls-3" x1="716.53" y1="2405.22" x2="2469.34" y2="716.55"/><line class="cls-3" x1="726.34" y1="2415.03" x2="2479.15" y2="726.36"/><line class="cls-3" x1="736.15" y1="2424.84" x2="2488.96" y2="736.17"/><line class="cls-3" x1="745.96" y1="2434.65" x2="2498.77" y2="745.98"/><line class="cls-3" x1="755.78" y1="2444.46" x2="2508.58" y2="755.79"/><line class="cls-3" x1="765.59" y1="2454.27" x2="2518.39" y2="765.6"/><line class="cls-3" x1="775.4" y1="2464.08" x2="2528.2" y2="775.41"/><line class="cls-3" x1="785.21" y1="2473.89" x2="2538.01" y2="785.22"/><line class="cls-3" x1="795.02" y1="2483.7" x2="2547.82" y2="795.03"/><line class="cls-3" x1="804.83" y1="2493.52" x2="2557.63" y2="804.84"/><line class="cls-3" x1="814.64" y1="2503.33" x2="2567.44" y2="814.65"/><line class="cls-3" x1="824.45" y1="2513.14" x2="2577.25" y2="824.46"/><line class="cls-3" x1="834.26" y1="2522.95" x2="2587.07" y2="834.27"/><line class="cls-3" x1="844.07" y1="2532.76" x2="2596.88" y2="844.09"/><line class="cls-3" x1="853.88" y1="2542.57" x2="2606.69" y2="853.9"/><line class="cls-3" x1="863.69" y1="2552.38" x2="2616.5" y2="863.71"/><line class="cls-3" x1="873.5" y1="2562.19" x2="2626.31" y2="873.52"/><line class="cls-3" x1="883.32" y1="2572" x2="2636.12" y2="883.33"/><line class="cls-3" x1="893.13" y1="2581.81" x2="2645.93" y2="893.14"/><line class="cls-3" x1="902.94" y1="2591.62" x2="2655.74" y2="902.95"/><line class="cls-3" x1="912.75" y1="2601.43" x2="2665.55" y2="912.76"/><line class="cls-3" x1="922.56" y1="2611.24" x2="2675.36" y2="922.57"/><line class="cls-3" x1="932.37" y1="2621.06" x2="2685.17" y2="932.38"/><line class="cls-3" x1="942.18" y1="2630.87" x2="2694.98" y2="942.19"/><line class="cls-3" x1="951.99" y1="2640.68" x2="2704.79" y2="952"/><line class="cls-3" x1="961.8" y1="2650.49" x2="2714.61" y2="961.81"/><line class="cls-3" x1="971.61" y1="2660.3" x2="2724.42" y2="971.63"/><line class="cls-3" x1="981.42" y1="2670.11" x2="2734.23" y2="981.44"/><line class="cls-3" x1="991.23" y1="2679.92" x2="2744.04" y2="991.25"/><line class="cls-3" x1="1001.04" y1="2689.73" x2="2753.85" y2="1001.06"/><line class="cls-3" x1="1010.86" y1="2699.54" x2="2763.66" y2="1010.87"/><line class="cls-3" x1="1020.67" y1="2709.35" x2="2773.47" y2="1020.68"/><line class="cls-3" x1="1030.48" y1="2719.16" x2="2783.28" y2="1030.49"/><line class="cls-3" x1="1040.29" y1="2728.97" x2="2793.09" y2="1040.3"/><line class="cls-3" x1="1050.1" y1="2738.78" x2="2802.9" y2="1050.11"/><line class="cls-3" x1="1059.91" y1="2748.6" x2="2812.71" y2="1059.92"/><line class="cls-3" x1="1069.72" y1="2758.41" x2="2822.52" y2="1069.73"/><line class="cls-3" x1="1079.53" y1="2768.22" x2="2832.33" y2="1079.54"/><line class="cls-3" x1="1089.34" y1="2778.03" x2="2842.15" y2="1089.35"/><line class="cls-3" x1="1099.15" y1="2787.84" x2="2851.96" y2="1099.17"/><line class="cls-3" x1="1108.96" y1="2797.65" x2="2861.77" y2="1108.98"/><line class="cls-3" x1="1118.77" y1="2807.46" x2="2871.58" y2="1118.79"/><line class="cls-3" x1="1128.58" y1="2817.27" x2="2881.39" y2="1128.6"/><line class="cls-3" x1="1138.4" y1="2827.08" x2="2891.2" y2="1138.41"/><line class="cls-3" x1="1148.21" y1="2836.89" x2="2901.01" y2="1148.22"/><line class="cls-3" x1="1158.02" y1="2846.7" x2="2910.82" y2="1158.03"/><line class="cls-3" x1="1167.83" y1="2856.51" x2="2920.63" y2="1167.84"/><line class="cls-3" x1="1177.64" y1="2866.32" x2="2930.44" y2="1177.65"/><line class="cls-3" x1="1187.45" y1="2876.14" x2="2940.25" y2="1187.46"/><line class="cls-3" x1="1197.26" y1="2885.95" x2="2950.06" y2="1197.27"/><line class="cls-3" x1="1207.07" y1="2895.76" x2="2959.87" y2="1207.08"/><line class="cls-3" x1="1216.88" y1="2905.57" x2="2969.69" y2="1216.89"/><line class="cls-3" x1="1226.69" y1="2915.38" x2="2979.5" y2="1226.71"/><line class="cls-3" x1="1236.5" y1="2925.19" x2="2989.31" y2="1236.52"/><line class="cls-3" x1="1246.31" y1="2935" x2="2999.12" y2="1246.33"/><line class="cls-3" x1="1256.12" y1="2944.81" x2="3008.93" y2="1256.14"/><line class="cls-3" x1="1265.94" y1="2954.62" x2="3018.74" y2="1265.95"/><line class="cls-3" x1="1275.75" y1="2964.43" x2="3028.55" y2="1275.76"/><line class="cls-3" x1="1285.56" y1="2974.24" x2="3038.36" y2="1285.57"/></g></g></g></svg>