<svg xmlns="http://www.w3.org/2000/svg" viewBox="0 0 51.06 40.67"><defs><style>.cls-1{fill:none;}.cls-1,.cls-2{stroke:#ee3624;stroke-miterlimit:10;stroke-width:4px;}.cls-2{fill:#fff;}.cls-3{fill:#ee3624;}</style></defs><title>Ресурс 4</title><g id="Слой_2" data-name="Слой 2"><g id="Layer_1" data-name="Layer 1"><circle class="cls-1" cx="30.73" cy="20.33" r="18.33"/><circle class="cls-2" cx="20.33" cy="20.33" r="18.33"/><path class="cls-3" d="M22.13,21.76a6.72,6.72,0,0,0,2-.27,4.44,4.44,0,0,0,1.56-.88,4.28,4.28,0,0,0,1.5-3.47,4.18,4.18,0,0,0-1.5-3.47,5.13,5.13,0,0,0-1.56-.88,6.72,6.72,0,0,0-2-.27h-6v7.07H13.44v2.24h2.72V23.6H13.44v2.17h2.72v2.38h3.74V25.77h6.46V23.53H19.89V21.76ZM20,15.51h1.22a1.69,1.69,0,0,1,.61.07,2.59,2.59,0,0,1,.68.2,1.9,1.9,0,0,1,.88,1.77,1.9,1.9,0,0,1-.88,1.77,2.59,2.59,0,0,1-1.29.27H20Z"/></g></g></svg>