<svg xmlns="http://www.w3.org/2000/svg" viewBox="0 0 119.87 32.6"><defs><style>.cls-1{opacity:0.5;}.cls-2{fill:#fff;}</style></defs><title>rbkРесурс 5</title><g id="Слой_2" data-name="Слой 2"><g id="Слой_1-2" data-name="Слой 1"><g class="cls-1"><polygon class="cls-2" points="29.89 0 0 0 0 29.87 29.89 0"/><polygon class="cls-2" points="2.67 32.6 32.55 32.6 32.55 2.74 2.67 32.6"/><path class="cls-2" d="M49.92,0H39.34V32.6h6.53V20.44h4.18c7.63,0,12-3.66,12-10v-.18C62.06,3.75,57.64,0,49.92,0ZM55.67,10.4c0,3.38-2,5.17-5.74,5.17h-4V5.24h4c3.92,0,5.74,1.58,5.74,5Z"/><path class="cls-2" d="M78,12.83H72.64V5.33H86.82V0H66.16V32.6h11.7c7.46,0,11.74-3.61,11.74-9.91v-.18C89.59,16.27,85.47,12.83,78,12.83Zm-5.34,4.88h4.81c3.93,0,5.83,1.56,5.83,4.76v.18c0,3.19-1.89,4.81-5.61,4.81h-5Z"/><polygon class="cls-2" points="105.72 15.59 119.22 0 112.05 0 100.22 14.03 100.22 0.04 93.69 0.04 93.69 32.6 100.22 32.6 100.22 18.19 112.09 32.6 119.87 32.6 105.72 15.59"/></g></g></g></svg>