<svg xmlns="http://www.w3.org/2000/svg" viewBox="0 0 113.49 51.94"><defs><style>.cls-1{opacity:0.5;}.cls-2{fill:#fefefe;fill-rule:evenodd;}</style></defs><title>starHitРесурс 6</title><g id="Слой_2" data-name="Слой 2"><g id="Слой_1-2" data-name="Слой 1"><g class="cls-1"><path class="cls-2" d="M81.7,25,78.31,42h-4.9l-2,10h36.69l5.37-27Zm13.77,5.09A2.49,2.49,0,0,1,98.17,28a2.26,2.26,0,0,1,1.66,2.84,2.49,2.49,0,0,1-2.75,2.08C95.69,32.75,95.16,31.41,95.47,30.05ZM86.08,49.41l1.77-9.2C88.47,37,85.9,36.77,85,41.33l-1.56,8.08H79l4.06-21h4.43L86,36.28c1.37-1.59,2.53-2.14,4.13-2.05,1.8.09,2.95,2.06,2.36,5.13L90.51,49.41Zm10.08,0H91.73l2.88-14.93H99Zm9.2-11.79-1.13,5.75c-.21,1.08-.55,3.15,2.22,2.57l-.61,3.4c-6.35,1.27-6.69-2.49-6.18-5.12l1.27-6.59H99.21l.61-3.14h1.73l.51-2.66,4.72-1.42-.8,4.08h2.85l-.61,3.14Z"/><path class="cls-2" d="M57.31,40.29l8.18-.05a82.18,82.18,0,0,1,1.3-13.32L70.21,9.53a28.61,28.61,0,0,0-8.84-1.46A16.62,16.62,0,0,0,50,11.63a21.77,21.77,0,0,0-7.52,13.8c-.27,1.84-.92,5.9-.09,9.23a9.57,9.57,0,0,0,2.13,4.22,6.06,6.06,0,0,0,2.72,1.66c3,.84,7.54-.44,10.28-5.75l-.23,5.5ZM24.38,8.84a9,9,0,0,0-7.66-.43,4.33,4.33,0,0,0-2.37,3.68,4.29,4.29,0,0,0,.94,2.66c1.1,1.5,3.17,2.78,4.91,4.41a12.22,12.22,0,0,1,3.18,4.69,13,13,0,0,1-.06,7.83,12.34,12.34,0,0,1-3.17,5.13,13.15,13.15,0,0,1-7.05,3.62,26.66,26.66,0,0,1-4.84.41A23.44,23.44,0,0,1,0,39.46l2.39-7.71c2.92,1.43,8.51,2.12,10.66,0a4,4,0,0,0,.42-5.11C12,24.44,9.88,23.25,8,21.16A14.42,14.42,0,0,1,5.6,17.47a10.06,10.06,0,0,1-.91-4.8A12.77,12.77,0,0,1,7.51,5.09a13.31,13.31,0,0,1,4.22-3.3A19.16,19.16,0,0,1,19.82,0,17.42,17.42,0,0,1,27,1.24L24.38,8.84Zm15,31.44c-7.83,1.57-11.47-.43-12.85-3.5-1-2.23-.76-5-.31-7.39l2.71-14H25.29l1.29-6.68h3.68L31.35,3,41.4,0,39.7,8.67h6.07l-1.29,6.68h-6.1L36,27.59c-.3,1.58-.83,4.23.81,5.29.76.49,2,.56,3.87.16l-1.29,7.23Zm20.4-25L57.27,27.63c-.49,1.47-1.42,5.17-3.78,5.34A2.83,2.83,0,0,1,53,33c-.75-.09-1.53-1.32-1.65-3a23.12,23.12,0,0,1,.78-6.29c.11-.43.24-.9.39-1.4,1.1-3.61,3.39-8.38,7.34-7ZM67,40.24l5.7-31.63h9.35l-.44,2.62c2.29-2.21,6-3,8.61-3a7.33,7.33,0,0,1,6.31,2.92l-8.62,7.42a4.14,4.14,0,0,0-5.95-.7,5.9,5.9,0,0,0-2,3.88L76.78,40.25Z"/></g></g></g></svg>