<svg xmlns="http://www.w3.org/2000/svg" xmlns:xlink="http://www.w3.org/1999/xlink" viewBox="0 0 51.32 87.17"><defs><style>.cls-1,.cls-2{fill:none;}.cls-2{stroke:#ee3624;stroke-miterlimit:10;stroke-width:4px;}.cls-3{clip-path:url(#clip-path);}</style><clipPath id="clip-path"><rect class="cls-1" x="12.29" y="20.64" width="18.11" height="39.41"/></clipPath></defs><title>Ресурс 4</title><g id="Слой_2" data-name="Слой 2"><g id="Layer_1" data-name="Layer 1"><rect class="cls-2" x="10.16" y="60.06" width="22.37" height="6.57"/><path class="cls-2" d="M29.41,66.63a8.06,8.06,0,1,1-16.12,0"/><rect class="cls-2" x="10.16" y="14.07" width="22.37" height="6.57" transform="translate(42.69 34.72) rotate(180)"/><path class="cls-2" d="M13.28,14.07a8.06,8.06,0,1,1,16.12,0"/><g class="cls-3"><line class="cls-2" x1="1.11" y1="1.67" x2="50.21" y2="34.24"/><path class="cls-2" d="M50.21,44.5"/><path class="cls-2" d="M1.11,11.92"/><line class="cls-2" x1="1.11" y1="22.17" x2="50.21" y2="54.75"/><line class="cls-2" x1="1.11" y1="32.42" x2="50.21" y2="65"/><line class="cls-2" x1="1.11" y1="42.68" x2="50.21" y2="75.25"/><line class="cls-2" x1="1.11" y1="52.93" x2="50.21" y2="85.51"/></g><rect class="cls-2" x="12.29" y="20.64" width="18.11" height="39.41"/></g></g></svg>