<svg xmlns="http://www.w3.org/2000/svg" viewBox="0 0 70.04 65.39"><defs><style>.cls-1{opacity:0.5;}.cls-2{fill:#fff;}</style></defs><title>vc-ruРесурс 7</title><g id="Слой_2" data-name="Слой 2"><g id="Слой_1-2" data-name="Слой 1"><g class="cls-1"><path class="cls-2" d="M56.2,30.14a14.36,14.36,0,0,0,12-5.93l-3.85-2.94a10.15,10.15,0,0,1-8.13,4c-5.63,0-9.71-4.59-9.71-10.22S50.5,4.6,56.36,4.6a10.89,10.89,0,0,1,6.05,1.61v5h4.85V3.94l-.93-.73A17.36,17.36,0,0,0,56.2,0a15.07,15.07,0,1,0,0,30.14ZM66.26,59.88l-.17-6.94V36H56v4.85h5V52.34c0,5-3.78,8.46-7.59,8.46s-5.8-2.64-5.8-7.59V36H38.14v4.85h4.34V54c0,6.71,3.76,11.34,10.48,11.34a9.47,9.47,0,0,0,8.55-5.44h.08l.69,4.62H70V59.89H66.26ZM40,.71H31.59L24.26,22h-.11L16.86.71h-9V5.55h5L21.62,29.8h4.62L35.29,5.55H40ZM0,64.62H5v-5H0Zm19.28-23h-.06L18.91,36H10v4.42h4.74V59.88H10v4.67H32V60H19.76V48.22c.56-4.25,3.74-7.88,8.09-7.88h.08l-.09,4.35h4.85V35.92H28.86A10.79,10.79,0,0,0,19.28,41.62Z"/></g></g></g></svg>