<svg xmlns="http://www.w3.org/2000/svg" viewBox="0 0 22.63 12.91"><defs><style>.cls-1{fill:#666;}</style></defs><title>vk_darkРесурс 9</title><g id="Слой_2" data-name="Слой 2"><g id="Layer_1" data-name="Layer 1"><path class="cls-1" d="M20.83,4.4c-2.29,3-2.53,2.76-.65,4.51a10,10,0,0,1,2.25,2.6s.75,1.32-.84,1.33l-3,0a2.52,2.52,0,0,1-1.51-.46c-1.13-.78-2.19-2.79-3-2.53,0,0-.85.27-.82,2.09a.91.91,0,0,1-.18.6,1,1,0,0,1-.62.26H11.08c-3,.19-5.61-2.56-5.61-2.56a31.29,31.29,0,0,1-5.4-8.9C-.09,1,.08.82.08.82A.85.85,0,0,1,.75.59L4,.57A1.23,1.23,0,0,1,4.5.78a.87.87,0,0,1,.28.38A23.62,23.62,0,0,0,6,3.68C7.18,6.11,8,6.52,8.44,6.27c0,0,.6-.37.47-3.3a3.48,3.48,0,0,0-.34-1.54,1.57,1.57,0,0,0-1-.51c-.18,0,.12-.45.51-.64A7.36,7.36,0,0,1,10.89,0a6.16,6.16,0,0,1,1.59.15c1.12.27.74,1.31.74,3.81,0,.8-.15,1.92.42,2.29.25.16.86,0,2.37-2.55a21.7,21.7,0,0,0,1.26-2.65.7.7,0,0,1,.29-.37A.77.77,0,0,1,18,.62l3.39,0c1-.13,1.19.34,1.19.34C22.78,1.42,22.22,2.55,20.83,4.4Z"/></g></g></svg>